<?xml version="1.0" encoding="utf-8"?>
<!-- Generator: Adobe Illustrator 18.1.1, SVG Export Plug-In . SVG Version: 6.00 Build 0)  -->
<svg version="1.1" id="Layer_1" xmlns="http://www.w3.org/2000/svg" xmlns:xlink="http://www.w3.org/1999/xlink" x="0px" y="0px"
	 viewBox="0 0 66 66" enable-background="new 0 0 66 66" xml:space="preserve">
<g>
	<defs>
		<circle id="SVGID_107_" cx="33" cy="33" r="31.4"/>
	</defs>
	<clipPath id="SVGID_2_">
		<use xlink:href="#SVGID_107_"  overflow="visible"/>
	</clipPath>
	
		<use xlink:href="#SVGID_107_"  overflow="visible" fill-rule="evenodd" clip-rule="evenodd" fill="none" stroke="#091F2F" stroke-width="3" stroke-miterlimit="10"/>
</g>
<path fill="#091F2F" d="M28,34.1l0-9.2H20l-2.3,4.9c-0.8,0.2-3.4,0.7-6.3,1.7L11,31.5v7.8h44v-5.3H28z M26.1,32.6h-6.3v-2.1l1.7-3.6
	h4.6V32.6z"/>
<g>
	<circle fill="#091F2F" cx="19.3" cy="40.4" r="4"/>
	<path fill="#091F2F" d="M19.3,45c-2.5,0-4.6-2-4.6-4.6s2-4.6,4.6-4.6s4.6,2,4.6,4.6S21.8,45,19.3,45z M19.3,36.9
		c-1.9,0-3.5,1.6-3.5,3.5c0,1.9,1.6,3.5,3.5,3.5s3.5-1.6,3.5-3.5C22.8,38.5,21.2,36.9,19.3,36.9z"/>
</g>
<g>
	<circle fill="#091F2F" cx="48.4" cy="40.4" r="4"/>
	<path fill="#091F2F" d="M48.4,45c-2.5,0-4.6-2-4.6-4.6s2-4.6,4.6-4.6s4.6,2,4.6,4.6S50.9,45,48.4,45z M48.4,36.9
		c-1.9,0-3.5,1.6-3.5,3.5c0,1.9,1.6,3.5,3.5,3.5c1.9,0,3.5-1.6,3.5-3.5C51.8,38.5,50.3,36.9,48.4,36.9z"/>
</g>
<g>
	<circle fill="#091F2F" cx="19.3" cy="40.3" r="1.8"/>
	<path fill="#091F2F" d="M19.3,42.7c-1.3,0-2.4-1.1-2.4-2.4c0-1.3,1.1-2.4,2.4-2.4c1.3,0,2.4,1.1,2.4,2.4
		C21.7,41.6,20.6,42.7,19.3,42.7z M19.3,39.1c-0.7,0-1.3,0.6-1.3,1.3c0,0.7,0.6,1.3,1.3,1.3c0.7,0,1.3-0.6,1.3-1.3
		C20.6,39.6,20,39.1,19.3,39.1z"/>
</g>
<polygon fill="#091F2F" points="27.4,30.7 30.5,33.8 52.4,22.5 52.9,20.5 "/>
<g>
	<circle fill="#091F2F" cx="48.3" cy="40.3" r="1.8"/>
	<path fill="#091F2F" d="M48.3,42.7c-1.3,0-2.4-1.1-2.4-2.4C46,39,47,38,48.3,38c1.3,0,2.4,1.1,2.4,2.4
		C50.7,41.6,49.6,42.7,48.3,42.7z M48.3,39.1c-0.7,0-1.3,0.6-1.3,1.3c0,0.7,0.6,1.3,1.3,1.3c0.7,0,1.3-0.6,1.3-1.3
		C49.6,39.6,49,39.1,48.3,39.1z"/>
</g>
<g>
	<path fill="#091F2F" d="M26,25.1h-4.1l1-3.8H25L26,25.1z"/>
</g>
<circle fill="#091F2F" cx="52.8" cy="27.1" r="1.4"/>
<path fill="none" stroke="#091F2F" stroke-miterlimit="10" d="M53,27.1v2.8c0,0,0.8,0.4,0.8,1.2c0.1,0.8-0.6,1.3-1.2,1.3
	c-0.6,0-1.1-0.5-1.1-1.3"/>
<line fill="none" stroke="#091F2F" stroke-miterlimit="10" x1="52.8" y1="25.7" x2="52.8" y2="20.6"/>
<rect x="26.1" y="31.3" fill="#091F2F" width="16.8" height="5.1"/>
</svg>
