<svg xmlns="http://www.w3.org/2000/svg" xmlns:xlink="http://www.w3.org/1999/xlink" viewBox="0 0 66 66">
    <defs>
        <circle id="a" cx="33" cy="33" r="31.4"/>
    </defs>
    <use xlink:href="#a" overflow="visible" fill-rule="evenodd" clip-rule="evenodd" fill="none" stroke="#091F2F" stroke-width="3" stroke-miterlimit="10"/>
    <g fill="none" stroke="#091F2F" stroke-width="3" stroke-miterlimit="10">
        <path d="M12.7 26.6l21-14.5 20.2 14.5"/>
        <path d="M50.2 24.1v25H17.6V24.4"/>
        <path d="M26.9 24.1c0 2-2 2-2 4.1 0 2 2 2 2 4.1 0 2-2 2-2 4.1 0 2 2 2 2 4.1s-2 2-2 4.1m10.3-20.5c0 2-2 2-2 4.1 0 2 2 2 2 4.1 0 2-2 2-2 4.1 0 2 2 2 2 4.1s-2 2-2 4.1m10.3-20.5c0 2-2 2-2 4.1 0 2 2 2 2 4.1 0 2-2 2-2 4.1 0 2 2 2 2 4.1s-2 2-2 4.1"/>
    </g>
</svg>
