<?xml version="1.0" encoding="utf-8"?>
<!-- Generator: Adobe Illustrator 18.1.1, SVG Export Plug-In . SVG Version: 6.00 Build 0)  -->
<svg version="1.1" id="Layer_1" xmlns="http://www.w3.org/2000/svg" xmlns:xlink="http://www.w3.org/1999/xlink" x="0px" y="0px"
	 viewBox="0 0 66 66" enable-background="new 0 0 66 66" xml:space="preserve">
<g>
	<defs>
		<circle id="SVGID_55_" cx="33" cy="33" r="31.4"/>
	</defs>
	<clipPath id="SVGID_2_">
		<use xlink:href="#SVGID_55_"  overflow="visible"/>
	</clipPath>
	
		<use xlink:href="#SVGID_55_"  overflow="visible" fill-rule="evenodd" clip-rule="evenodd" fill="none" stroke="#091F2F" stroke-width="3" stroke-miterlimit="10"/>
</g>
<g>
	<polygon fill="#091F2F" points="15.6,46.7 13.6,44.6 23.8,33.7 26.3,36.3 	"/>
</g>
<rect x="28.1" y="23.9" transform="matrix(0.7071 0.7071 -0.7071 0.7071 31.5078 -13.9572)" fill="#091F2F" width="8.9" height="14.3"/>
<circle fill="#091F2F" cx="42" cy="21.5" r="3.5"/>
<circle fill="#091F2F" cx="49" cy="38.7" r="1.5"/>
<polyline fill="none" stroke="#091F2F" stroke-width="3" stroke-miterlimit="10" points="46.6,35.7 34.6,22.8 28.5,21.9 28.5,15 "/>
<g>
	<path fill="#091F2F" d="M30.4,51.1l-2-2l5.4-6l-5-5.6l2.9-2.3l4.9,5.9c0,0,1.7,2,0.1,3.8C35.7,46,30.4,51.1,30.4,51.1z"/>
</g>
</svg>
