<?xml version="1.0" encoding="utf-8"?>
<!-- Generator: Adobe Illustrator 18.1.1, SVG Export Plug-In . SVG Version: 6.00 Build 0)  -->
<svg version="1.1" id="Layer_1" xmlns="http://www.w3.org/2000/svg" xmlns:xlink="http://www.w3.org/1999/xlink" x="0px" y="0px"
	 viewBox="0 0 66 66" enable-background="new 0 0 66 66" xml:space="preserve">
<g>
	<defs>
		<circle id="SVGID_109_" cx="33" cy="33" r="31.4"/>
	</defs>
	<clipPath id="SVGID_2_">
		<use xlink:href="#SVGID_109_"  overflow="visible"/>
	</clipPath>
	
		<use xlink:href="#SVGID_109_"  overflow="visible" fill-rule="evenodd" clip-rule="evenodd" fill="none" stroke="#091F2F" stroke-width="3" stroke-miterlimit="10"/>
</g>
<g>
	<g>
		<rect x="13.6" y="19.1" fill="#FFFFFF" width="38.8" height="4.5"/>
		<path fill="#091F2F" d="M53.6,24.7H12.4V18h41.1V24.7z M14.7,22.4h36.5v-2.2H14.7V22.4z"/>
	</g>
	<g>
		<rect x="13.6" y="24" fill="#FFFFFF" width="38.8" height="24.5"/>
		<path fill="#091F2F" d="M53.6,49.7H12.4V22.9h41.1V49.7z M14.7,47.4h36.5V25.2H14.7V47.4z"/>
	</g>
	<g>
		<rect x="18.5" y="28" fill="#091F2F" width="3.9" height="3.9"/>
	</g>
	<g>
		<rect x="24.6" y="28" fill="#091F2F" width="3.9" height="3.9"/>
	</g>
	<g>
		<rect x="30.8" y="28" fill="#091F2F" width="3.9" height="3.9"/>
	</g>
	<g>
		<rect x="36.9" y="28" fill="#091F2F" width="3.9" height="3.9"/>
	</g>
	<g>
		<rect x="43.1" y="28" fill="#091F2F" width="3.9" height="3.9"/>
	</g>
	<g>
		<rect x="18.5" y="33.7" fill="#091F2F" width="3.9" height="3.9"/>
	</g>
	<g>
		<rect x="24.6" y="33.7" fill="#091F2F" width="3.9" height="3.9"/>
	</g>
	<g>
		<rect x="30.8" y="33.7" fill="#091F2F" width="3.9" height="3.9"/>
	</g>
	<g>
		<rect x="36.9" y="33.7" fill="#091F2F" width="3.9" height="3.9"/>
	</g>
	<g>
		<rect x="43.1" y="33.7" fill="#091F2F" width="3.9" height="3.9"/>
	</g>
	<g>
		<rect x="18.5" y="39.5" fill="#091F2F" width="3.9" height="3.9"/>
	</g>
	<g>
		<rect x="24.6" y="39.5" fill="#091F2F" width="3.9" height="3.9"/>
	</g>
	<g>
		<rect x="30.8" y="39.5" fill="#091F2F" width="3.9" height="3.9"/>
	</g>
	<g>
		<rect x="36.9" y="39.5" fill="#091F2F" width="3.9" height="3.9"/>
	</g>
</g>
<text transform="matrix(1 0 0 1 42.8334 43.1432)" fill="#091F2F" font-family="'Montserrat-Bold'" font-size="6.4307">x</text>
</svg>
