<svg width="66" height="66" xmlns="http://www.w3.org/2000/svg">
  <g transform="translate(1 1)" fill="none" fill-rule="evenodd">
    <circle class="svg-stroke-hover" stroke="#091F2F" stroke-width="3" fill="#FFF" cx="32" cy="32" r="31.42"/>
    <path class="svg-fill-hover" d="M21.49 49h2.29V32.78h.63v5.37H26c.06-1.77.07-3.67 0-5.81.01-.714-.27-1.402-.777-1.904-.508-.502-1.2-.775-1.913-.756h-3.97c-.79-.102-1.582.163-2.153.718-.57.555-.857 1.34-.777 2.132v5.74H18v-4.53c.006-.198.03-.396.07-.59v-.39l.59.07v16.24h2.18V39.7h.55v9.14l.1.16z" fill="#091F2F"/>
    <circle class="svg-fill-hover" fill="#091F2F" cx="21.21" cy="26.81" r="2.02"/>
    <path class="svg-fill-hover" d="M32.41 49h2.29V32.78h.63v5.37h1.52c.06-1.77.07-3.67 0-5.81.01-.714-.27-1.402-.777-1.904-.508-.502-1.2-.775-1.913-.756h-3.97c-.79-.102-1.582.163-2.153.718-.57.555-.857 1.34-.777 2.132v5.74h1.6v-4.53c.006-.198.03-.396.07-.59v-.39l.59.07v16.24h2.28V39.7h.55v9.14l.06.16z" fill="#091F2F"/>
    <circle class="svg-fill-hover" fill="#091F2F" cx="32.14" cy="26.81" r="2.02"/>
    <path class="svg-fill-hover" d="M43.33 49h2.29V32.78h.63v5.37h1.52c.06-1.77.07-3.67 0-5.81.01-.714-.27-1.402-.777-1.904-.508-.502-1.2-.775-1.913-.756h-3.97c-.79-.102-1.582.163-2.153.718-.57.555-.857 1.34-.777 2.132v5.74h1.6v-4.53c.006-.198.03-.396.07-.59v-.39l.59.07v16.24h2.18V39.7h.55v9.14l.16.16z" fill="#091F2F"/>
    <circle class="svg-fill-hover" fill="#091F2F" cx="43.06" cy="26.81" r="2.02"/>
    <path class="svg-stroke-hover" stroke="#091F2F" stroke-width="2" d="M13.26 49.02v-25.5L32.98 9.27l18.03 14.25v25.26"/>
  </g>
</svg>
