<svg xmlns="http://www.w3.org/2000/svg" xmlns:xlink="http://www.w3.org/1999/xlink" viewBox="0 0 66 66">
    <defs>
        <circle id="a" cx="33" cy="33" r="31.4"/>
    </defs>
    <use class="svg-stroke-hover" class="svg-stroke-hover" xlink:href="#a" overflow="visible" fill-rule="evenodd" clip-rule="evenodd" fill="none" stroke="#091F2F" stroke-width="3" stroke-miterlimit="10"/>
    <path class="svg-stroke-hover" class="svg-fill-hover" fill="#091F2F" d="M20.5 20c0-.1-.4 0-.4 0h8.1c.9-1 2.3-2 4-2 1.6 0 3.1 1 4 2h8.2s-.2-.9-.2-1.1c-.1-.4-.3-1-.4-1.3-.1-.3-.3-.6-.4-.9-.1-.1-.2-.5-.2-.5-.1-.2-.5-.8-.6-1-.1-.2-.2-.4-.4-.5 0-.1-.1-.1-.1-.2l-.2-.2c-.2-.2-.4-.5-.6-.7l-.2-.2-.3-.3c-.2-.2-.5-.4-.7-.6l-.1-.1c-.2-.2-.5-.4-.7-.5-.2-.1-.3-.2-.5-.3-.1 0-.1-.1-.2-.1-.1-.1-.2-.1-.3-.2-1.4-.8-3-1.3-4.7-1.4-.4 0-.8-.1-1.3-.1H31c-.2 0-.5.1-.7.1-.1 0-.2 0-.3.1-.2 0-.5.1-.7.2-.1 0-.2 0-.2.1-.3.1-.5.1-.8.2-.1 0-.1 0-.2.1l-.9.3c-.7.3-1.3.6-1.9 1-.3.2-.6.4-.8.6-.4.3-.7 1-1 1.3-1.8 1.6-2.9 4.2-3.5 6.2h.5zm-.4 3.6L23.3 47H31v10h4V47h6.8l3-23.4"/>
</svg>
