<?xml version="1.0" encoding="utf-8"?>
<!-- Generator: Adobe Illustrator 18.1.1, SVG Export Plug-In . SVG Version: 6.00 Build 0)  -->
<svg version="1.1" id="Layer_1" xmlns="http://www.w3.org/2000/svg" xmlns:xlink="http://www.w3.org/1999/xlink" x="0px" y="0px"
	 viewBox="0 0 66 66" enable-background="new 0 0 66 66" xml:space="preserve">
<g>
	<defs>
		<circle id="SVGID_27_" cx="33" cy="33" r="31.4"/>
	</defs>
	<clipPath id="SVGID_2_">
		<use xlink:href="#SVGID_27_"  overflow="visible"/>
	</clipPath>
	
		<use xlink:href="#SVGID_27_"  overflow="visible" fill-rule="evenodd" clip-rule="evenodd" fill="none" stroke="#091F2F" stroke-width="3" stroke-miterlimit="10"/>
</g>
<g>
</g>
<path fill="none" stroke="#091F2F" stroke-width="3" stroke-miterlimit="10" d="M36.4,15.3c0,2.2-4,6.6-4,6.6s-4-4.4-4-6.6
	s1.8-4,4-4C34.6,11.3,36.4,13.1,36.4,15.3z"/>
<path fill="none" stroke="#091F2F" stroke-width="3" stroke-miterlimit="10" d="M28.3,35.8c0-2.2,4-6.6,4-6.6s4,4.4,4,6.6
	c0,2.2-1.8,4-4,4S28.3,38.1,28.3,35.8z"/>
<path fill="none" stroke="#091F2F" stroke-width="3" stroke-miterlimit="10" d="M42.6,30.2c-2.2,0-6.6-4-6.6-4s4.4-4,6.6-4
	c2.2,0,4,1.8,4,4S44.8,30.2,42.6,30.2z"/>
<path fill="none" stroke="#091F2F" stroke-width="3" stroke-miterlimit="10" d="M22.1,22.1c2.2,0,6.6,4,6.6,4s-4.4,4-6.6,4
	s-4-1.8-4-4S19.8,22.1,22.1,22.1z"/>
<path fill="none" stroke="#091F2F" stroke-width="3" stroke-miterlimit="10" d="M42.5,21.2C40.9,22.7,35,23,35,23s0.3-5.9,1.8-7.5
	s4.1-1.6,5.7,0C44,17.1,44,19.6,42.5,21.2z"/>
<path fill="none" stroke="#091F2F" stroke-width="3" stroke-miterlimit="10" d="M22.2,29.9c1.6-1.6,7.5-1.8,7.5-1.8
	s-0.3,5.9-1.8,7.5c-1.6,1.6-4.1,1.6-5.7,0C20.6,34.1,20.6,31.5,22.2,29.9z"/>
<path fill="none" stroke="#091F2F" stroke-width="3" stroke-miterlimit="10" d="M21.3,51.5c-2-1.3-3.4-7.6-3.4-7.6s6.3-0.9,8.3,0.4
	c2,1.3,2.5,4,1.1,6C25.9,52.3,23.2,52.8,21.3,51.5z"/>
<path fill="none" stroke="#091F2F" stroke-width="3" stroke-miterlimit="10" d="M36.3,36.1c-1.6-1.6-1.8-7.5-1.8-7.5
	s5.9,0.3,7.5,1.8c1.6,1.6,1.6,4.1,0,5.7C40.4,37.7,37.9,37.7,36.3,36.1z"/>
<path fill="none" stroke="#091F2F" stroke-width="3" stroke-miterlimit="10" d="M27.5,15.8c1.6,1.6,1.8,7.5,1.8,7.5
	s-5.9-0.3-7.5-1.8c-1.6-1.6-1.6-4.1,0-5.7C23.4,14.3,26,14.3,27.5,15.8z"/>
<circle fill="#FFFFFF" stroke="#091F2F" stroke-width="3" stroke-miterlimit="10" cx="32.2" cy="26.1" r="6"/>
<line fill="none" stroke="#091F2F" stroke-width="3" stroke-miterlimit="10" x1="32.5" y1="40" x2="32.5" y2="63"/>
<line fill="none" stroke="#091F2F" stroke-width="3" stroke-miterlimit="10" x1="26.6" y1="49.9" x2="32.5" y2="53.5"/>
<path fill="none" stroke="#091F2F" stroke-width="3" stroke-miterlimit="10" d="M43.2,56c2-1.3,3.5-7.6,3.5-7.6s-6.3-1-8.3,0.3
	c-2,1.3-2.5,4-1.2,6C38.6,56.8,41.2,57.3,43.2,56z"/>
<line fill="none" stroke="#091F2F" stroke-width="3" stroke-miterlimit="10" x1="37.7" y1="54.9" x2="31.8" y2="58.5"/>
</svg>
