<?xml version="1.0" encoding="utf-8"?>
<!-- Generator: Adobe Illustrator 18.1.1, SVG Export Plug-In . SVG Version: 6.00 Build 0)  -->
<svg version="1.1" id="Layer_1" xmlns="http://www.w3.org/2000/svg" xmlns:xlink="http://www.w3.org/1999/xlink" x="0px" y="0px"
	 viewBox="0 0 66 66" enable-background="new 0 0 66 66" xml:space="preserve">
<g>
	<defs>
		<circle id="SVGID_37_" cx="33" cy="33" r="31.4"/>
	</defs>
	<clipPath id="SVGID_2_">
		<use xlink:href="#SVGID_37_"  overflow="visible"/>
	</clipPath>
	
		<use xlink:href="#SVGID_37_"  overflow="visible" fill-rule="evenodd" clip-rule="evenodd" fill="none" stroke="#091F2F" stroke-width="3" stroke-miterlimit="10"/>
</g>
<polyline fill="none" stroke="#091F2F" stroke-width="4" stroke-miterlimit="10" points="19,22 40.5,22 45,22 "/>
<polygon fill="#091F2F" points="34.4,31.6 38.2,22 28.5,22 25.2,31.6 "/>
<path fill="#091F2F" d="M33.9,33h-9.4l-7.9,18l4.4,0L27.1,38h7.3l-2.1,5l4.2,0c1-2.5,2-5,3.1-7.6c0.2-0.4-0.4-1.3-0.9-1.3
	c-1.5,0-3.7,0-5.2-0.1L33.9,33z"/>
<polygon fill="#091F2F" points="41.9,44 34,44 30,44 30,46.5 30,53 33,53 33,47 42,47 42,53 45,53 45,46.5 45,44 "/>
<circle fill="#091F2F" cx="35.4" cy="15.5" r="3.7"/>
<line fill="none" stroke="#091F2F" stroke-width="3" stroke-miterlimit="10" x1="9" y1="53.5" x2="58" y2="53.5"/>
</svg>
