<svg xmlns="http://www.w3.org/2000/svg" xmlns:xlink="http://www.w3.org/1999/xlink" viewBox="0 0 66 66">
    <defs>
        <circle id="a" cx="33" cy="33" r="31.4"/>
    </defs>
    <use class="svg-stroke-hover" xlink:href="#a" overflow="visible" fill-rule="evenodd" clip-rule="evenodd" fill="none" stroke="#091F2F" stroke-width="3" stroke-miterlimit="10"/>
    <path fill="#091F2F" d="M29.1 35.5C29.2 33.6 32 30 32 30s2.6 3.8 2.5 5.7c-.1 1.9-1.3 3.4-2.8 3.3s-2.6-1.6-2.6-3.5zM29.1 46.9c.1-1.9 2.9-5.5 2.9-5.5s2.6 3.8 2.5 5.7c-.1 1.9-1.3 3.4-2.8 3.3s-2.6-1.6-2.6-3.5zM37.2 35.5c.1-1.9 2.9-5.5 2.9-5.5s2.6 3.8 2.5 5.7c-.1 1.9-1.3 3.4-2.8 3.3s-2.6-1.6-2.6-3.5zM37.2 46.9c.1-1.9 2.9-5.5 2.9-5.5s2.6 3.8 2.5 5.7c-.1 1.9-1.3 3.4-2.8 3.3s-2.6-1.6-2.6-3.5zM45.1 35.5C45.2 33.6 48 30 48 30s2.6 3.8 2.5 5.7c-.1 1.9-1.3 3.4-2.8 3.3s-2.6-1.6-2.6-3.5zM45.1 46.9c.1-1.9 2.9-5.5 2.9-5.5s2.6 3.8 2.5 5.7c-.1 1.9-1.3 3.4-2.8 3.3s-2.6-1.6-2.6-3.5z"/>
    <path class="svg-stroke-hover" fill="none" stroke="#091F2F" stroke-width="3" stroke-miterlimit="10" d="M39.7 24.5s.9-11.3-12.1-11.3c-13.3 0-12.1 11.5-12.1 11.5V59"/>
    <path fill="#091F2F" d="M52.9 28.5c-2.6-3.7-7.5-6.2-13-6.2s-10.4 2.5-13 6.2h26z"/>
</svg>
