<svg xmlns="http://www.w3.org/2000/svg" xmlns:xlink="http://www.w3.org/1999/xlink" viewBox="0 0 66 66">
  <defs>
    <circle id="a" cx="33" cy="33" r="31.4"/>
  </defs>
  <use xlink:href="#a" overflow="visible" fill-rule="evenodd" clip-rule="evenodd" fill="none" stroke="#091F2F" class="svg-stroke-hover" stroke-width="3" stroke-miterlimit="10"/>
  <path fill="none"  class="svg-stroke-hover" stroke="#091F2F" stroke-width="3" stroke-miterlimit="10" d="M36.9 24.6L49.1 14 38.5 26.8s-.5-1.9-1.6-2.2zM14.3 35.5s.8 4 4.2 7.5 8.6 5.3 8.6 5.3c1.6-6 5.9-9.3 7.8-11.3 3.4-3.4 3-7.4.4-10-2.6-2.6-6.5-2.8-9.9.6-1.9 2-7.8 7.2-11.1 7.9zm10.1-6.9l9.5 9.4"/>
  <path class="svg-fill-hover" fill="#091F2F" d="M20.2 37l-4.9 1.4 1.8 2.9m8.7-.9s-2 5.4-1 6.8c1 1.5-1.7-1.2-1.7-1.2s-.2-2.7 2.7-5.6zm-.2-3.4s-3.2 3.4-3.8 6.7l-2.9-.8-.2-1.3c-.1 0 3.9-1.5 6.9-4.6z"/>
  <circle class="svg-fill-hover" fill="#091F2F" cx="37.1" cy="47.4" r="3.1"/>
  <circle class="svg-fill-hover" fill="#091F2F" cx="45.3" cy="43.1" r="2.3"/>
  <circle class="svg-fill-hover" fill="#091F2F" cx="43.5" cy="53.2" r="1.5"/>
</svg>
