<svg xmlns="http://www.w3.org/2000/svg" xmlns:xlink="http://www.w3.org/1999/xlink" viewBox="0 0 66 66">
    <defs>
        <circle id="a" cx="33" cy="33" r="31.4"/>
    </defs>
    <use xlink:href="#a" overflow="visible" fill-rule="evenodd" clip-rule="evenodd" fill="none" stroke="#091F2F" stroke-width="3" stroke-miterlimit="10"/>
    <path fill="none" stroke="#091F2F" stroke-width="3" stroke-miterlimit="10" d="M36.4 15.3c0 2.2-4 6.6-4 6.6s-4-4.4-4-6.6 1.8-4 4-4 4 1.8 4 4zM28.3 35.8c0-2.2 4-6.6 4-6.6s4 4.4 4 6.6c0 2.2-1.8 4-4 4s-4-1.7-4-4zM42.6 30.2c-2.2 0-6.6-4-6.6-4s4.4-4 6.6-4c2.2 0 4 1.8 4 4s-1.8 4-4 4zM22.1 22.1c2.2 0 6.6 4 6.6 4s-4.4 4-6.6 4-4-1.8-4-4 1.7-4 4-4z"/>
    <path fill="none" stroke="#091F2F" stroke-width="3" stroke-miterlimit="10" d="M42.5 21.2C40.9 22.7 35 23 35 23s.3-5.9 1.8-7.5 4.1-1.6 5.7 0c1.5 1.6 1.5 4.1 0 5.7zM22.2 29.9c1.6-1.6 7.5-1.8 7.5-1.8s-.3 5.9-1.8 7.5c-1.6 1.6-4.1 1.6-5.7 0-1.6-1.5-1.6-4.1 0-5.7zM21.3 51.5c-2-1.3-3.4-7.6-3.4-7.6s6.3-.9 8.3.4c2 1.3 2.5 4 1.1 6s-4.1 2.5-6 1.2zM36.3 36.1c-1.6-1.6-1.8-7.5-1.8-7.5s5.9.3 7.5 1.8c1.6 1.6 1.6 4.1 0 5.7-1.6 1.6-4.1 1.6-5.7 0zM27.5 15.8c1.6 1.6 1.8 7.5 1.8 7.5s-5.9-.3-7.5-1.8c-1.6-1.6-1.6-4.1 0-5.7 1.6-1.5 4.2-1.5 5.7 0z"/>
    <circle fill="#FFF" stroke="#091F2F" stroke-width="3" stroke-miterlimit="10" cx="32.2" cy="26.1" r="6"/>
    <path fill="none" stroke="#091F2F" stroke-width="3" stroke-miterlimit="10" d="M32.5 40v23M26.6 49.9l5.9 3.6M43.2 56c2-1.3 3.5-7.6 3.5-7.6s-6.3-1-8.3.3c-2 1.3-2.5 4-1.2 6 1.4 2.1 4 2.6 6 1.3zM37.7 54.9l-5.9 3.6"/>
</svg>
