<?xml version="1.0" encoding="utf-8"?>
<!-- Generator: Adobe Illustrator 18.1.1, SVG Export Plug-In . SVG Version: 6.00 Build 0)  -->
<svg version="1.1" id="Layer_1" xmlns="http://www.w3.org/2000/svg" xmlns:xlink="http://www.w3.org/1999/xlink" x="0px" y="0px"
	 viewBox="0 0 66 66" enable-background="new 0 0 66 66" xml:space="preserve">
<g>
	<defs>
		<circle id="SVGID_43_" cx="33" cy="33" r="31.4"/>
	</defs>
	<clipPath id="SVGID_2_">
		<use xlink:href="#SVGID_43_"  overflow="visible"/>
	</clipPath>
	
		<use xlink:href="#SVGID_43_"  overflow="visible" fill-rule="evenodd" clip-rule="evenodd" fill="none" stroke="#091F2F" stroke-width="3" stroke-miterlimit="10"/>
</g>
<g>
</g>
<g>
	<path fill="#091F2F" d="M40.4,16.6c-1.2,1.5-1.9,3.4-1.9,5.5c0,4.8,3.9,8.7,8.7,8.7c1.6,0,3.2-0.5,4.5-1.2
		C43.9,26.7,41.2,19.4,40.4,16.6z"/>
	<path fill="#091F2F" d="M54.1,27.4c1.1-1.5,1.8-3.3,1.8-5.3c0-4.8-3.9-8.7-8.7-8.7c-1.5,0-2.9,0.4-4.1,1
		C43.6,16.5,46.1,24.5,54.1,27.4z"/>
</g>
<path fill="none" stroke="#091F2F" stroke-width="3" stroke-miterlimit="10" d="M36.4,24.7c0,0,0.9,5.6,6.9,8l-25,14.9
	c0,0-4.8,0-4.1-5.2L36.4,24.7z"/>
<line fill="none" stroke="#091F2F" stroke-width="3" stroke-miterlimit="10" x1="14.8" y1="46" x2="10.5" y2="49"/>
<path fill="none" stroke="#091F2F" stroke-width="3" stroke-miterlimit="10" d="M28.5,64.1c0-2.7,0-22.6,0-22.6l4.5-2.7
	c0,0,0,20.9,0,24.9"/>
</svg>
