<svg xmlns="http://www.w3.org/2000/svg" xmlns:xlink="http://www.w3.org/1999/xlink" viewBox="0 0 66 66">
    <defs>
        <circle id="a" cx="33" cy="33" r="31.4"/>
    </defs>
    <use class="svg-stroke-hover" xlink:href="#a" overflow="visible" fill-rule="evenodd" clip-rule="evenodd" fill="none" stroke="#091F2F" stroke-width="3" stroke-miterlimit="10"/>
    <path fill="#091F2E" d="M23.9 36.5c-.3-.9-2.2-7.8-2.7-9.5.1 0 .3-.1.4-.1.1.3.2.6.3 1 .4 1.3.7 2.6 1.1 3.9.6-.2 1.1-.3 1.7-.5-.3-1.1-.7-2.2-1-3.3-1.2-3.9-1.3-4-5.4-4-2 0-2.8.6-3.4 2.5-.5 1.7-1.1 3.4-1.7 5.1l1.8.6c0-.1.1-.1.1-.2.4-1.2.7-2.4 1-3.6.1-.5.3-1 .5-1.5.1 0 .2.1.3.1-.5 1.8-2.5 8.8-2.7 9.6h2.6V43.4h2v-.3-5.5c0-.3.1-.6.1-1h.3c0 .4.1.7.1 1.1v5.7h1.9v-.8-6h2.7z"/>
    <path fill="#FFF" d="M21.4 43.5h-2.2v-.1-2.2-3.5c0-.2 0-.5-.1-.7v-.2H19v.2c0 .2-.1.4-.1.6V43.4h-2.2v-.1c-.1-1.3-.1-2.7 0-4v-2.7h-2.6l2.7-9.6h-.1c0 .1-.1.2-.1.3-.1.3-.2.7-.3 1-.2.5-.3 1.1-.5 1.6-.2.7-.4 1.4-.6 2 0 .1 0 .1-.1.2l-.1.2c-.5-.2-1.1-.5-1.7-.6h-.1v-.1c.2-.5.4-1.1.5-1.6.4-1.1.8-2.3 1.1-3.5.6-2 1.4-2.6 3.5-2.6h.6c3.6 0 3.8.3 5 4.1.1.4.3.9.4 1.3l.6 2.1v.1h-.1c-.6.2-1.2.4-1.7.5H23v-.1c-.3-.8-.5-1.7-.7-2.5-.1-.5-.3-1-.4-1.5-.1-.2-.1-.4-.2-.7 0-.1 0-.1-.1-.2h-.2l2.7 9.5h-2.7v7zm-1.9-.3h1.7v-6.9h2.6L21 26.9l.6-.2v.1c0 .1.1.2.1.3.1.2.2.4.2.7.1.5.3 1 .4 1.5.2.8.4 1.6.7 2.3.4-.1.9-.3 1.4-.5-.2-.6-.4-1.3-.6-1.9-.1-.4-.3-.9-.4-1.3-1.1-3.6-1.2-3.9-4.7-3.9h-.6c-1.9 0-2.6.5-3.2 2.4-.4 1.2-.8 2.4-1.1 3.5-.2.5-.3 1-.5 1.5.5.2 1.1.4 1.5.6v-.1c.2-.7.4-1.3.6-2 .2-.5.3-1.1.5-1.6.1-.3.2-.7.3-1 .1-.2.1-.3.2-.5v-.1l.6.2v.1l-2.6 9.4H17v6.8h1.7v-2-3.7c0-.2 0-.5.1-.7v-.4h.6v.4c0 .2.1.5.1.8v5.6z"/>
    <path fill="#091F2E" d="M35.3 28.5v-1.2h.4c0 .3.1.7.1 1v4.3h1.7c.1-1.9.1-3.9 0-5.8 0-1.6-1.2-2.7-2.8-2.7h-3.9c-1.9 0-2.9 1-3 2.9v5.7h1.8v-4.6c0-.3.1-.5.1-.8h.3V43.2h2.4v-.5-7.6c0-.3 0-.7.1-1h.3v9.1h2.5v-.6-14.1z"/>
    <path fill="#FFF" d="M35.4 43.3h-2.8v-.1-.3-.3-8.3V43.3H30v-.1-.3-.3-15.2h-.1v.1c0 .2-.1.4-.1.5v4.6h-2.1v-.1-1.4-4.4c0-2 1.1-3 3.1-3H34.7c1.7 0 2.8 1.2 2.9 2.9.1 2.1 0 4 0 5.8v.1h-2v-.1-4.3-.7-.2h-.1V43l-.1.3zm-2.5-.2h2.2V43v-.3-15.5h.6V32.4h1.5c.1-1.7.1-3.6 0-5.7 0-1.5-1.1-2.6-2.6-2.6H30.7c-1.9 0-2.8 1-2.9 2.8V32.5h1.6v-1.9-2.5c0-.2 0-.4.1-.6v-.4l.6.1V43h2.1v-.1-.3-4.2V35v-.7-.4h.5v8.9c.3.1.3.2.2.3z"/>
    <circle fill="#091F2E" cx="18.9" cy="21.5" r="2"/>
    <path fill="#091F2E" d="M51.9 36.5c-.3-.9-2.2-7.8-2.7-9.5.1 0 .3-.1.4-.1.1.3.2.6.3 1 .4 1.3.7 2.6 1.1 3.9.6-.2 1.1-.3 1.7-.5-.3-1.1-.7-2.2-1-3.3-1.2-3.9-1.3-4-5.4-4-2 0-2.8.6-3.4 2.5-.5 1.7-1.1 3.4-1.7 5.1l1.8.6c0-.1.1-.1.1-.2.4-1.2.7-2.4 1-3.6.1-.5.3-1 .5-1.5.1 0 .2.1.3.1-.5 1.8-2.5 8.8-2.7 9.6h2.6V43.4h2v-.3-5.5c0-.3.1-.6.1-1h.3c0 .4.1.7.1 1.1v5.7h1.9v-.8-6h2.7z"/>
    <path fill="#FFF" d="M49.4 43.5h-2.2v-.1-2.2-3.5c0-.2 0-.5-.1-.7v-.2H47v.2c0 .2-.1.4-.1.6V43.4h-2.2v-.1c-.1-1.3-.1-2.7 0-4v-2.7h-2.6l2.7-9.6h-.1c0 .1-.1.2-.1.3-.1.3-.2.7-.3 1-.2.5-.3 1.1-.5 1.6-.2.7-.4 1.4-.6 2 0 .1 0 .1-.1.2l-.1.2-.1-.1c-.5-.2-1.1-.5-1.7-.6h-.1v-.1c.2-.5.4-1.1.5-1.6.4-1.1.8-2.3 1.1-3.5.6-2 1.4-2.6 3.5-2.6h.6c3.6 0 3.8.3 5 4.1.1.4.3.9.4 1.3l.6 2.1v.1h-.1c-.6.2-1.2.4-1.7.5v.1-.1c-.3-.8-.5-1.7-.7-2.5-.1-.5-.3-1-.4-1.5-.1-.2-.1-.4-.2-.7 0-.1 0-.1-.1-.2h-.2l2.7 9.5h-2.7v7zm-1.9-.3h1.7v-6.9h2.6L49 26.9l.6-.2v.1c0 .1.1.2.1.3.1.2.2.4.2.7.1.5.3 1 .4 1.5.2.8.4 1.6.7 2.3.4-.1.9-.3 1.4-.5-.2-.6-.4-1.3-.6-1.9-.1-.4-.3-.9-.4-1.3-1.1-3.6-1.2-3.9-4.7-3.9h-.6c-1.9 0-2.6.5-3.2 2.4-.4 1.2-.8 2.4-1.1 3.5-.2.5-.3 1-.5 1.5.5.2 1.1.4 1.5.6v-.1c.2-.7.4-1.3.6-2 .2-.5.3-1.1.5-1.6.1-.3.2-.7.3-1 .1-.2.1-.3.2-.5v-.1l.6.2v.1l-2.6 9.4h2.5v6.8h1.7v-2-3.7c0-.2 0-.5.1-.7v-.4h.6v.4c0 .2.1.5.1.8v3.5c.1.7.1 1.4.1 2.1z"/>
    <circle fill="#091F2E" cx="46.9" cy="21.5" r="2"/>
    <circle fill="#091F2E" cx="32.9" cy="21.5" r="2"/>
</svg>
