<?xml version="1.0" encoding="utf-8"?>
<!-- Generator: Adobe Illustrator 18.1.1, SVG Export Plug-In . SVG Version: 6.00 Build 0)  -->
<svg version="1.1" id="Layer_1" xmlns="http://www.w3.org/2000/svg" xmlns:xlink="http://www.w3.org/1999/xlink" x="0px" y="0px"
	 viewBox="0 0 66 66" enable-background="new 0 0 66 66" xml:space="preserve">
<g>
	<defs>
		<circle id="SVGID_13_" cx="33" cy="33" r="31.4"/>
	</defs>
	<clipPath id="SVGID_2_">
		<use xlink:href="#SVGID_13_"  overflow="visible"/>
	</clipPath>
	
		<use xlink:href="#SVGID_13_"  overflow="visible" fill-rule="evenodd" clip-rule="evenodd" fill="none" stroke="#091F2F" stroke-width="3" stroke-miterlimit="10"/>
</g>
<g id="XnCzgE_1_">
	<g>
		<g>
			<path fill="none" stroke="#091F2F" stroke-width="3" stroke-miterlimit="10" d="M14.5,7.9C14.1,8.3,14,9,14.2,9.7
				c0.7,2,2,2.9,4.1,2.6c1.5-0.2,2.5,0.3,3.1,1.7c0.3,0.8,0.9,1.3,1.5,1.8c0.7,0.1,1.4,0.2,2.2,0.3c0.6,0.1,1,0.6,1.1,1.2
				c3.9,1.7,7.7,3.3,11.8,4.3c1.3,0.3,2.7,0.8,3.9,1.4c0.7,0.3,1.5,0.8,2,1.4c1.6,2.1,2.7,4.5,2.1,7.3c-0.6,2.9,0.4,5,3,6.4
				c2.9,1.5,4.5,4,5.4,7c0.4,1.6,0.6,3.3,0.9,4.9c0.2,1.1,0.9,1.9,1.9,2"/>
			<path fill="#091F2F" d="M41.4,47.7c1.1-0.9,2.2-1.8,3.3-2.6c-1-0.9-2.1-1.8-3.1-2.8c-1.8-1.8-8.1-4.1-9.1-4.4l2.1-3.5
				c1-1.5,1.8-1.7,3.5-1.6c1.5,0.1,2.8-0.1,4.1-0.1c0.2,0,0.4,0,0.6-0.1c-0.1-1.2-0.3-2.4-0.4-3.6c-2.4,0.1-8.5,0.1-9.2,1
				c-1.7,2.1-3.3,4.2-5,6.3c-1,1.3-2,2.5-2.9,3.8c0.9,0.5,11.1,3.8,11.7,4.3C38.7,45.4,40,46.5,41.4,47.7z"/>
			<path fill="#091F2F" d="M32.1,21.4c-1-0.6-2-1.1-3-1.6c-0.6,0.9-2.1,3.8-2.8,4.7c-0.6,0.7-1.3,1.3-2,1.9
				c-0.3-0.6-0.3-1.1-0.3-1.5c0-2-0.1-5.9-0.2-7.9c-1.1-0.1-2-0.2-3.1-0.2c0,0.1-0.1,6.9,0,9.2c0,0.9-0.2,1.5-0.9,2.1
				c-2,1.6-2.1,3.8-0.4,5.7c1.3,1.4,2.6,2.8,3.9,4.3c0.7,0.8,1.3,0.8,2,0.1c1.2-1.3,2-2.9,3-4.3c-1.3-1.5-2.2-2.4-3.4-3.8
				c1.5-1.2,2.9-2.1,4-3.3C29.8,25.9,31.4,22.6,32.1,21.4z"/>
			<path fill="#091F2F" d="M19.3,25.7c0,1.7-1.4,3.1-3.1,3.2c-1.8,0-3.2-1.4-3.2-3.2c0-1.8,1.4-3.2,3.2-3.1
				C17.9,22.6,19.3,24,19.3,25.7z"/>
		</g>
	</g>
</g>
</svg>
