<?xml version="1.0" encoding="utf-8"?>
<!-- Generator: Adobe Illustrator 18.1.1, SVG Export Plug-In . SVG Version: 6.00 Build 0)  -->
<svg version="1.1" id="Layer_1" xmlns="http://www.w3.org/2000/svg" xmlns:xlink="http://www.w3.org/1999/xlink" x="0px" y="0px"
	 viewBox="0 0 66 66" enable-background="new 0 0 66 66" xml:space="preserve">
<g>
	<defs>
		<circle id="SVGID_121_" cx="33" cy="33" r="31.4"/>
	</defs>
	<clipPath id="SVGID_2_">
		<use xlink:href="#SVGID_121_"  overflow="visible"/>
	</clipPath>
	
		<use xlink:href="#SVGID_121_"  overflow="visible" fill-rule="evenodd" clip-rule="evenodd" fill="none" stroke="#091F2F" stroke-width="3" stroke-miterlimit="10"/>
</g>
<path fill="#091F2F" d="M33.2,35l0-9.2h-7.9L23,30.6c-0.8,0.2-3.4,0.7-6.3,1.7l-0.4,0.1v7.8h40V35H33.2z M31.4,33.5h-6.3v-2.1
	l1.7-3.6h4.6V33.5z"/>
<g>
	<circle fill="#091F2F" cx="24.6" cy="41.3" r="4"/>
	<path fill="#091F2F" d="M24.6,45.8c-2.5,0-4.6-2-4.6-4.6s2-4.6,4.6-4.6s4.6,2,4.6,4.6S27.1,45.8,24.6,45.8z M24.6,37.8
		c-1.9,0-3.5,1.6-3.5,3.5c0,1.9,1.6,3.5,3.5,3.5s3.5-1.6,3.5-3.5C28.1,39.4,26.5,37.8,24.6,37.8z"/>
</g>
<g>
	<circle fill="#091F2F" cx="49.7" cy="41.3" r="4"/>
	<path fill="#091F2F" d="M49.7,45.8c-2.5,0-4.6-2-4.6-4.6s2-4.6,4.6-4.6s4.6,2,4.6,4.6S52.2,45.8,49.7,45.8z M49.7,37.8
		c-1.9,0-3.5,1.6-3.5,3.5c0,1.9,1.6,3.5,3.5,3.5c1.9,0,3.5-1.6,3.5-3.5C53.1,39.4,51.6,37.8,49.7,37.8z"/>
</g>
<g>
	<circle fill="#091F2F" cx="24.6" cy="41.2" r="1.8"/>
	<path fill="#091F2F" d="M24.6,43.6c-1.3,0-2.4-1.1-2.4-2.4c0-1.3,1.1-2.4,2.4-2.4c1.3,0,2.4,1.1,2.4,2.4
		C26.9,42.5,25.9,43.6,24.6,43.6z M24.6,40c-0.7,0-1.3,0.6-1.3,1.3c0,0.7,0.6,1.3,1.3,1.3c0.7,0,1.3-0.6,1.3-1.3
		C25.8,40.5,25.3,40,24.6,40z"/>
</g>
<g>
	<circle fill="#091F2F" cx="49.6" cy="41.2" r="1.8"/>
	<path fill="#091F2F" d="M49.6,43.6c-1.3,0-2.4-1.1-2.4-2.4c0-1.3,1.1-2.4,2.4-2.4c1.3,0,2.4,1.1,2.4,2.4
		C52,42.5,50.9,43.6,49.6,43.6z M49.6,40c-0.7,0-1.3,0.6-1.3,1.3c0,0.7,0.6,1.3,1.3,1.3c0.7,0,1.3-0.6,1.3-1.3
		C50.9,40.5,50.3,40,49.6,40z"/>
</g>
<polygon fill="#091F2F" points="54.9,36.3 33,36.3 33,24.2 57,24.2 "/>
<path fill="none" stroke="#091F2F" stroke-width="3" stroke-miterlimit="10" d="M10.5,30.4c1.6,0.7,2.7,3.2,2.7,6.2
	c0,3-1.1,5.4-2.7,6.2"/>
<line fill="none" stroke="#091F2F" stroke-width="3" stroke-miterlimit="10" x1="13.2" y1="37.3" x2="17.2" y2="37.3"/>
<path fill="none" stroke="#091F2F" stroke-width="3" stroke-miterlimit="10" d="M51.4,21.2c-0.1,0-0.2,0-0.4,0c-0.9-2-3-3.4-5.4-3.4
	c-2.1,0-4,1.1-5,2.6c-0.6-0.4-1.4-0.6-2.2-0.6c-2.2,0-4.1,1.7-4.1,3.8c0,2.1,1.8,3.8,4.1,3.8c1,0,1.8-0.3,2.5-0.9
	c1.1,1.3,2.7,2.2,4.6,2.2c1.2,0,2.3-0.3,3.2-0.9c0.7,0.5,1.6,0.9,2.6,0.9c2.2,0,4.1-1.7,4.1-3.8C55.4,23,53.6,21.2,51.4,21.2z"/>
</svg>
