<svg xmlns="http://www.w3.org/2000/svg" xmlns:xlink="http://www.w3.org/1999/xlink" viewBox="0 0 66 66">
    <defs>
        <circle id="a" cx="33" cy="33" r="31.4"/>
    </defs>
    <use class="svg-stroke-hover" xlink:href="#a" overflow="visible" fill-rule="evenodd" clip-rule="evenodd" fill="none" stroke="#091F2F" stroke-width="3" stroke-miterlimit="10"/>
    <circle class="svg-stroke-hover" fill="none" stroke="#091F2F" stroke-miterlimit="10" cx="32.5" cy="10.9" r="6.5"/>
    <path class="svg-stroke-hover" fill="none" stroke="#091F2F" stroke-width="3" stroke-miterlimit="10" d="M32.5 2v2.4"/>
    <g class="svg-fill-hover" fill="#091F2F">
        <circle cx="31.1" cy="25.8" r="3.1"/>
        <path d="M36 40l-1.6-6.5 4 1.4-1.4 3.8 3 1.1 2.6-6.9-8.7-3-6.3-.2-6-10.4-2.8 1.6 7.5 13 1.4 7.5-5.5 4.7L29.3 57l2.6-1.8-5-8.8z"/>
        <path d="M37.1 41l-3.7 2.3 10.5 13.1 2.6-1.8z"/>
    </g>
    <path class="svg-stroke-hover" fill="none" stroke="#091F2F" stroke-width="3" stroke-miterlimit="10" d="M11 55.5h44"/>
    <path class="svg-stroke-hover" fill="none" stroke="#091F2F" stroke-miterlimit="10" d="M26.2 11h12.6M27.2 7.2h10.6M27.2 14.5h10.6M32.7 17.1V4.6M28.8 16.2V5.5M36.2 16.2V5.5M22.9 13.8l1.5-.6M21.8 10.2l2.6.2M23.4 7.2l1 .6M41.9 7.8l-1.4.4M44 10.5h-3M42.1 13.2l-1.1-.4"/>
</svg>
