<svg xmlns="http://www.w3.org/2000/svg" xmlns:xlink="http://www.w3.org/1999/xlink" viewBox="0 0 66 66">
    <defs>
        <circle id="a" cx="33" cy="33" r="31.4"/>
    </defs>
    <use xlink:href="#a" overflow="visible" fill-rule="evenodd" clip-rule="evenodd" fill="none" stroke="#091F2F" stroke-width="3" stroke-miterlimit="10"/>
    <path clip-rule="evenodd" fill="none" stroke="#091F2F" stroke-width="3" stroke-miterlimit="10" d="M38.5 19.2c-2.2-.2-4.4.5-6.2 1.8-1.9-1.3-4-2-6.2-1.8-6 .6-10.2 7.2-9.5 14.9S22.7 47.5 28.7 47c1.3-.1 2.5-.5 3.6-1.2 1.1.6 2.3 1.1 3.6 1.2 6 .6 11.4-5.2 12.1-12.9s-3.6-14.3-9.5-14.9z"/>
    <path fill-rule="evenodd" clip-rule="evenodd" fill="#091F2F" d="M31.7 21c-.1-8 4.7-10 4.7-10l.7 1.9S32.4 15 32.4 21h-.7z"/>
</svg>
