<svg id="Layer_1" data-name="Layer 1" xmlns="http://www.w3.org/2000/svg" viewBox="0 0 66 66">
  <circle class="svg-stroke-hover" stroke="#091f2f" stroke-width="3" fill="#ffffff" cx="33" cy="33" r="31.42"/>
  <path class="svg-stroke-hover" stroke="#091f2f" stroke-width="2" fill="#ffffff" d="M9.59 29.63h46.62v17.45H9.59zm0 3.42h46.62M9.79 41.07h46.62M21.46 21.95h23.28v5.34H21.46zM33.1 7.07v8.7"/>
  <path class="svg-stroke-hover" stroke="#091f2f" stroke-width="2" fill="#ffffff" d="M43.36 22H22.84c1-6.13 5.2-10.75 10.26-10.75S42.39 15.82 43.36 22z"/>
  <path class="svg-stroke-hover" stroke="#091f2f" stroke-width="2" fill="#ffffff" d="M15.28 26.2h35.65v22.37H15.28zM46 21.95H20.2v-1.06l12.9-5.12L46 20.89v1.06zM21.46 38.42V26.2m4.66 12.22V26.2m4.66 12.22V26.2m4.65 12.22V25.86m4.66 12.56V26.2m4.65 12.22V26.2M15.28 38.42h35.65"/>
</svg>
