<svg id="Layer_1" data-name="Layer 1" xmlns="http://www.w3.org/2000/svg" viewBox="0 0 66 66">
  <circle class="svg-stroke-hover" cx="33" cy="33" r="31.42" stroke="#091F2F" stroke-width="3" fill="white" />
  <path class="svg-stroke-hover" stroke="#091F2F" stroke-width="2" fill="white" d="M21 30.26L31.82 33a2.76 2.76 0 0 0 1.36 0L44 30.26a2.76 2.76 0 0 1 3.44 2.68v13.78a2.76 2.76 0 0 1-2.08 2.68l-12.2 3.1a2.76 2.76 0 0 1-1.36 0l-12.2-3.1a2.76 2.76 0 0 1-2.08-2.68V32.94A2.76 2.76 0 0 1 21 30.26z"/>
  <path class="svg-stroke-hover" d="M32.5 53.51a1.25 1.25 0 0 1-1.25-1.25V33a1.25 1.25 0 0 1 2.5 0v19.26a1.25 1.25 0 0 1-1.25 1.25zm-3.97-7.45a1 1 0 0 1-.26 0l-6.47-1.75a1 1 0 0 1 .51-1.93l6.48 1.71a1 1 0 0 1-.25 2zm0-3.53a1 1 0 0 1-.26 0l-6.47-1.75a1 1 0 0 1 .51-1.93l6.48 1.71a1 1 0 0 1-.25 2zm0-3.53a1 1 0 0 1-.26 0l-6.47-1.75a1 1 0 0 1 .51-1.93L28.79 37a1 1 0 0 1-.25 2zm7.99 7.12a1 1 0 0 1-.25-2l6.25-1.65a1 1 0 0 1 .48 1.96l-6.25 1.65a1 1 0 0 1-.23.04zm-.03-3.53a1 1 0 0 1-.25-2L42.49 39a1 1 0 0 1 .51 1.9l-6.25 1.65a1 1 0 0 1-.26.04zm-.03-3.52a1 1 0 0 1-.25-2l6.25-1.65a1 1 0 0 1 .54 1.96L36.71 39a1 1 0 0 1-.25.07zm-25.21-9.82l-1.68-2.61 23.44-15.08 22.44 15.1-1.74 2.58-20.74-13.96-21.72 13.97z"/>
</svg>
