<svg xmlns="http://www.w3.org/2000/svg" xmlns:xlink="http://www.w3.org/1999/xlink" viewBox="0 0 66 66">
    <defs>
        <circle id="a" cx="33" cy="33" r="31.4"/>
    </defs>
    <use class="svg-stroke-hover" xlink:href="#a" overflow="visible" fill-rule="evenodd" clip-rule="evenodd" fill="none" stroke="#091F2F" stroke-width="3" stroke-miterlimit="10"/>
    <defs>
        <circle id="b" cx="32.1" cy="34.4" r="16.6"/>
    </defs>
    <use class="svg-stroke-hover" xlink:href="#b" overflow="visible" fill-rule="evenodd" clip-rule="evenodd" fill="none" stroke="#091F2F" stroke-width="3" stroke-miterlimit="10"/>
    <path class="svg-stroke-hover" clip-rule="evenodd" fill="none" stroke="#091F2F" stroke-width="3" stroke-miterlimit="10" d="M34.9 50.1c-7.8-1.3-13.7-7.9-13.7-15.8s5.9-14.5 13.7-15.8"/>
    <path class="svg-stroke-hover" clip-rule="evenodd" fill="none" stroke="#091F2F" stroke-width="3" stroke-miterlimit="10" d="M38 49.8c-6.2-2.4-10.6-8.3-10.6-15.2S31.8 21.8 38 19.4"/>
    <path class="svg-stroke-hover" clip-rule="evenodd" fill="none" stroke="#091F2F" stroke-width="3" stroke-miterlimit="10" d="M28 33.3c3.9-1.7 8.3-1.8 12.4-.1 3 1.3 5.4 3.4 7 5.9M29 27.6c3.9-1.7 8.3-1.8 12.4-.1 3 1.3 5.4 3.4 7.1 6M27.6 38.1c3.3-.8 6.9-.6 10.2.8 2.9 1.2 5.3 3.3 7 5.7M29 50.1c8.8 2 17.7-2.4 21.1 1.1 1.6 1.6 0 4.3-8.3 5.7-8.4 1.4-6.2 4.3-6.2 4.3s1 2.8 8.6 1.3"/>
    <path class="svg-stroke-hover" fill="none" stroke="#091F2F" stroke-width="3" stroke-miterlimit="10" d="M44 12.8l-4 6.6"/>
    <path fill="#091F2F" d="M25.3 50.6L20 56.4l2.7-7.4z"/>
    <circle fill="#091F2F" cx="44.8" cy="11.6" r="3.4"/>
    <path class="svg-stroke-hover" fill="none" stroke="#091F2F" stroke-width="3" stroke-miterlimit="10" d="M50.8 19l-6 5"/>
    <g>
        <path fill="#091F2F" d="M20.8 48.7l-6.9 3.8 5-6.1z"/>
    </g>
    <circle fill="#091F2F" cx="52" cy="18.1" r="3.4"/>
</svg>
