<svg xmlns="http://www.w3.org/2000/svg" xmlns:xlink="http://www.w3.org/1999/xlink" viewBox="0 0 66 66">
    <defs>
        <circle id="a" cx="33" cy="33" r="31.4"/>
    </defs>
    <use xlink:href="#a" overflow="visible" fill-rule="evenodd" clip-rule="evenodd" fill="none" stroke="#091F2F" stroke-width="3" stroke-miterlimit="10"/>
    <path fill="#091F2F" d="M45.7 49.9c-.2-2.3-5.3-4.2-11.6-4.2s-11.4 1.9-11.6 4.2h23.2zM36.5 36.9c0 1.5-2.7 4.4-2.7 4.4s-2.7-2.9-2.7-4.4 1.2-2.7 2.7-2.7 2.7 1.2 2.7 2.7zM36.5 27.2c0 1.5-2.7 4.4-2.7 4.4s-2.7-2.9-2.7-4.4c0-1.5 1.2-2.7 2.7-2.7s2.7 1.2 2.7 2.7zM36.5 18.6c0 1.5-2.7 4.4-2.7 4.4s-2.7-2.9-2.7-4.4 1.2-2.7 2.7-2.7 2.7 1.2 2.7 2.7zM42.5 41.7c-.9 1.2-4.8 1.8-4.8 1.8s-.3-4 .6-5.1c.9-1.2 2.6-1.4 3.8-.5 1.1 1 1.4 2.7.4 3.8zM47.9 34.9c-.9 1.2-4.8 1.8-4.8 1.8s-.3-4 .6-5.1c.9-1.2 2.6-1.4 3.8-.5 1.1 1 1.3 2.7.4 3.8zM53.2 28.2c-.9 1.2-4.8 1.8-4.8 1.8s-.3-4 .6-5.1 2.6-1.4 3.8-.5c1.1.9 1.3 2.6.4 3.8zM24.5 41.7c.9 1.2 4.8 1.8 4.8 1.8s.3-4-.6-5.1c-.9-1.2-2.6-1.4-3.8-.5s-1.3 2.7-.4 3.8zM19.2 34.9c.9 1.2 4.8 1.8 4.8 1.8s.3-4-.6-5.1c-.9-1.2-2.6-1.4-3.8-.5-1.1 1-1.3 2.7-.4 3.8zM13.9 28.2c.9 1.2 4.8 1.8 4.8 1.8s.3-4-.6-5.1c-.9-1.2-2.6-1.4-3.8-.5-1.1.9-1.3 2.6-.4 3.8z"/>
</svg>
