<svg xmlns="http://www.w3.org/2000/svg" xmlns:xlink="http://www.w3.org/1999/xlink" viewBox="0 0 66 66">
    <defs>
        <circle id="a" cx="33" cy="33" r="31.4"/>
    </defs>
    <use class="svg-stroke-hover" xlink:href="#a" overflow="visible" fill-rule="evenodd" clip-rule="evenodd" fill="none" stroke="#091F2F" stroke-width="3" stroke-miterlimit="10"/>
    <path class="svg-stroke-hover" fill="none" stroke="#091F2F" stroke-width="3" stroke-miterlimit="10" d="M45.2 20.2L37.9 37M20.6 24.6l2.9 6.8"/>
    <path class="svg-stroke-hover" fill="#091F2F" d="M15.5 23.1H28V26H15.5z"/>
    <path class="svg-stroke-hover" fill="none" stroke="#091F2F" stroke-width="3" stroke-miterlimit="10" d="M14 49.5h31M40 20.5h7.3l3.4-4.4M39.6 38.7l-8.2-4.9c-2.5-1.4-5.1-2.3-7.9-2.1-5.2.5-9.4 4.8-8.9 9.6.4 4.5 4.9 7.9 8.9 7.9h14.3c3.2-.3 5.8-3 5.5-6-.2-2-1.7-3.3-3.7-4.5z"/>
    <circle class="svg-stroke-hover" fill="none" stroke="#091F2F" stroke-width="3" stroke-miterlimit="10" cx="24.8" cy="39.4" r="3.5"/>
    <path class="svg-stroke-hover" fill="none" stroke="#091F2F" stroke-width="3" stroke-miterlimit="10" d="M24.5 43v2M23 45.5h6"/>
    <circle class="svg-fill-hover" fill="#091F2F" cx="24.7" cy="39.4" r="1.3"/>
</svg>
