<svg xmlns="http://www.w3.org/2000/svg" xmlns:xlink="http://www.w3.org/1999/xlink" viewBox="0 0 66 66">
    <defs>
        <circle id="a" cx="33" cy="33" r="31.4"/>
    </defs>
    <use xlink:href="#a" overflow="visible" fill-rule="evenodd" clip-rule="evenodd" fill="none" stroke="#091F2F" stroke-width="3" stroke-miterlimit="10"/>
    <g fill="#091F2F">
        <path d="M47.6 48.7c-.6.8-.6 1.1-1 1.1s-.5-.2-1.1-1.1c-.6-.9-1.4-2.1-3.2-2.1-1.8 0-2.6 1.3-3.2 2.1-.6.8-.8 1.1-1.2 1.1-.4 0-.6-.2-1.2-1.1-.6-.9-1.5-2.1-3.3-2.1-1.8 0-2.7 1.3-3.3 2.1-.6.8-.8 1.1-1.2 1.1s-.6-.2-1.2-1.1c-.6-.9-1.5-2.1-3.3-2.1s-2.7 1.3-3.3 2.1c-.6.8-.8 1.1-1.2 1.1-.4 0-.4-.2-1-1.1-.6-.9-1.1-2.1-3.1-2.1v2.5s.4.2 1 1.1c.6.9 1.4 2.1 3.2 2.1 1.8 0 2.6-1.3 3.2-2.1.6-.8.8-1.1 1.2-1.1.4 0 .6.2 1.2 1.1.6.9 1.5 2.1 3.3 2.1 1.8 0 2.7-1.3 3.3-2.1.6-.8.8-1.1 1.2-1.1.4 0 .6.2 1.2 1.1.6.9 1.5 2.1 3.3 2.1s2.7-1.3 3.3-2.1c.6-.8.8-1.1 1.2-1.1s.6.2 1.2 1.1c.6.9 1.5 2.1 3.3 2.1 1.8 0 2.3-1.3 2.9-2.1.3-.5.4-.8.4-.9v-2.6c-1.2.1-2.1 1.2-2.6 2zM47.6 40.4c-.6.8-.6 1.1-1 1.1s-.5-.2-1.1-1.1c-.6-.9-1.4-2.1-3.2-2.1-1.8 0-2.6 1.3-3.2 2.1-.6.8-.8 1.1-1.2 1.1-.4 0-.6-.2-1.2-1.1-.6-.9-1.5-2.1-3.3-2.1-1.8 0-2.7 1.3-3.3 2.1-.6.8-.8 1.1-1.2 1.1s-.6-.2-1.2-1.1c-.6-.9-1.5-2.1-3.3-2.1s-2.7 1.3-3.3 2.1c-.6.8-.8 1.1-1.2 1.1-.4 0-.4-.2-1-1.1-.6-.9-1.1-2.1-3.1-2.1v2.5s.4.2 1 1.1c.6.9 1.4 2.1 3.2 2.1 1.8 0 2.6-1.3 3.2-2.1.6-.8.8-1.1 1.2-1.1.4 0 .6.2 1.2 1.1.6.9 1.5 2.1 3.3 2.1 1.8 0 2.7-1.3 3.3-2.1.6-.8.8-1.1 1.2-1.1.4 0 .6.2 1.2 1.1.6.9 1.5 2.1 3.3 2.1s2.7-1.3 3.3-2.1c.6-.8.8-1.1 1.2-1.1s.6.2 1.2 1.1c.6.9 1.5 2.1 3.3 2.1 1.8 0 2.3-1.3 2.9-2.1.2-.6.2-.9.2-1v-2.6c-1 .1-1.9 1.3-2.4 2.1z"/>
    </g>
    <path fill="none" stroke="#091F2F" stroke-width="3" stroke-linecap="round" stroke-linejoin="round" stroke-miterlimit="10" d="M32.5 40V27.8s-.5-4.3 3.4-4.3c.1 0 .1.2.1.2M39.5 41V27.8s-.5-4.3 3.4-4.3h.1"/>
    <path fill="none" stroke="#091F2F" stroke-width="3" stroke-miterlimit="10" d="M32 29.5h7M32 35.5h7M14.7 22.5L34.3 9 53 22.5"/>
</svg>
