<svg id="Layer_1" data-name="Layer 1" xmlns="http://www.w3.org/2000/svg" viewBox="0 0 66 66">
  <circle class="svg-stroke-hover" stroke="#091f2f" stroke-width="2" fill="#ffffff" class="cls-1" cx="33" cy="33" r="31.42"/>
  <path class="svg-fill-hover" fill="#091f2f" class="cls-2" d="M55.25 23.28l-21.31-8.51a2.43 2.43 0 0 0-1.76 0l-21.3 8.51a2.37 2.37 0 0 0-.08 4.37l1.21.54.72.32v9.26a2.7 2.7 0 0 0 0 5v1.71a1 1 0 0 0 2 0v-1.7a2.7 2.7 0 0 0 0-5v-8.39l.88.39 2.11.93 2.52 1.12 11.86 5.24a2.38 2.38 0 0 0 1.92 0l11.87-5.24 2.51-1.12 6.93-3.06a2.37 2.37 0 0 0-.08-4.37zm-22.19 2.9h-.24a3.27 3.27 0 0 1-1.4-.34c-.28-.15-.45-.34-.45-.54a.15.15 0 0 1 0-.09c.14-.43 1-.75 2.06-.75s2.09.39 2.09.88-.9.84-2.06.84z"/>
  <path class="svg-fill-hover" fill="#091f2f" class="cls-2" d="M33.52 40l12.34-5.82a1.13 1.13 0 0 1 1.58 1.1V44a1.15 1.15 0 0 1-1 1.19c-4.17.26-10.69 4.95-12.72 6.48a1.05 1.05 0 0 1-1.26 0c-2.06-1.45-8.64-5.89-12.77-6.36a1.16 1.16 0 0 1-1-1.19v-8.86a1.13 1.13 0 0 1 1.58-1.1L32.61 40a1.06 1.06 0 0 0 .91 0z"/>
</svg>
