<?xml version="1.0" encoding="utf-8"?>
<!-- Generator: Adobe Illustrator 18.1.1, SVG Export Plug-In . SVG Version: 6.00 Build 0)  -->
<svg version="1.1" id="Layer_1" xmlns="http://www.w3.org/2000/svg" xmlns:xlink="http://www.w3.org/1999/xlink" x="0px" y="0px"
	 viewBox="0 0 66 66" enable-background="new 0 0 66 66" xml:space="preserve">
<g>
	<defs>
		<circle id="SVGID_35_" cx="33" cy="33" r="31.4"/>
	</defs>
	<clipPath id="SVGID_2_">
		<use xlink:href="#SVGID_35_"  overflow="visible"/>
	</clipPath>
	
		<use xlink:href="#SVGID_35_"  overflow="visible" fill-rule="evenodd" clip-rule="evenodd" fill="none" stroke="#091F2F" stroke-width="3" stroke-miterlimit="10"/>
</g>
<g>
	<g>
		<path fill="none" stroke="#091F2F" stroke-width="3" stroke-miterlimit="10" d="M26.4,10.8c0,1.5-2,1.5-2,2.9c0,1.5,2,1.5,2,2.9
			c0,1.5-2,1.5-2,2.9c0,1.5,2,1.5,2,2.9s-2,1.5-2,2.9"/>
	</g>
	<g>
		<path fill="none" stroke="#091F2F" stroke-width="3" stroke-miterlimit="10" d="M34,10.8c0,1.5-2,1.5-2,2.9c0,1.5,2,1.5,2,2.9
			c0,1.5-2,1.5-2,2.9c0,1.5,2,1.5,2,2.9s-2,1.5-2,2.9"/>
	</g>
	<g>
		<path fill="none" stroke="#091F2F" stroke-width="3" stroke-miterlimit="10" d="M41.5,10.8c0,1.5-2,1.5-2,2.9c0,1.5,2,1.5,2,2.9
			c0,1.5-2,1.5-2,2.9c0,1.5,2,1.5,2,2.9s-2,1.5-2,2.9"/>
	</g>
</g>
<g>
	<g>
		<rect x="21.7" y="38.4" fill="none" stroke="#091F2F" stroke-width="3" stroke-miterlimit="10" width="21.6" height="15"/>
	</g>
	<path fill="none" stroke="#091F2F" stroke-width="3" stroke-miterlimit="10" d="M43,35c-0.5-3.2-5.1-5.7-10.7-5.7
		S22.2,31.8,21.7,35H43z"/>
	<line fill="none" stroke="#091F2F" stroke-width="3" stroke-miterlimit="10" x1="32.3" y1="27.1" x2="32.3" y2="28.9"/>
</g>
<line fill="none" stroke="#091F2F" stroke-width="3" stroke-miterlimit="10" x1="16.5" y1="38.4" x2="47.3" y2="38.4"/>
</svg>
