<svg xmlns="http://www.w3.org/2000/svg" xmlns:xlink="http://www.w3.org/1999/xlink" viewBox="0 0 66 66">
  <defs>
    <circle id="a" cx="33" cy="33" r="31.4"/>
  </defs>
  <use class="svg-stroke-hover" xlink:href="#a" overflow="visible" fill-rule="evenodd" clip-rule="evenodd" fill="none" stroke="#091F2F" stroke-width="3" stroke-miterlimit="10"/>
  <defs>
    <circle id="b" cx="38.2" cy="29.6" r="16.5"/>
  </defs>
  <use xlink:href="#b" overflow="visible" fill-rule="evenodd" clip-rule="evenodd" fill="#FFF"/>
  <use class="svg-fill-hover" xlink:href="#b" overflow="visible" fill-rule="evenodd" clip-rule="evenodd" fill="none" stroke="#091F2F" stroke-width="3" stroke-miterlimit="10"/>
  <path class="svg-fill-hover" fill-rule="evenodd" clip-rule="evenodd" fill="#091F2F" d="M35.6 33l-1.5-4.7 4-2.9 3.9 2.9-1.5 4.7M40.5 14.2l1.5 4.7-3.9 2.8-4-2.8 1.5-4.7"/>
  <path class="svg-stroke-hover" fill="none" stroke="#091F2F" stroke-miterlimit="10" d="M38.1 21.1v9.2"/>
  <path class="svg-fill-hover" fill-rule="evenodd" clip-rule="evenodd" fill="#091F2F" d="M54.1 25.2l-3.5 3.4-4.4-2.3.9-4.8 4.8-.7"/>
  <path class="svg-stroke-hover" fill="none" stroke="#091F2F" stroke-miterlimit="10" d="M46.8 26l-8.2 4.1"/>
  <path class="svg-fill-hover" fill-rule="evenodd" clip-rule="evenodd" fill="#091F2F" d="M46.5 43.2l-4.2-2.5 1-4.7 4.9-.5 2 4.5"/>
  <path class="svg-stroke-hover" fill="none" stroke="#091F2F" stroke-miterlimit="10" d="M43.8 36.4l-6.1-6.8"/>
  <path class="svg-fill-hover" fill-rule="evenodd" clip-rule="evenodd" fill="#091F2F" d="M25.6 39.4l2.1-4.4 4.8.7.9 4.8-4.3 2.3"/>
  <path class="svg-stroke-hover" fill="none" stroke="#091F2F" stroke-miterlimit="10" d="M32.1 36.2l6.4-6.6"/>
  <path class="svg-fill-hover" fill-rule="evenodd" clip-rule="evenodd" fill="#091F2F" d="M24.3 21.3l4.9.5 1.1 4.8-4.3 2.5-3.6-3.3"/>
  <path class="svg-stroke-hover" fill="none" stroke="#091F2F" stroke-miterlimit="10" d="M29.7 26.4l8.4 3.7M25.9 28.2l2.4 8.2M28.3 22.6l7-4.6M41.3 18l8.9 5.2M50.7 26.9l-3 10.5M32.1 40.4l12.2.3"/>
  <g>
    <path class="svg-stroke-hover" fill="#FFF" stroke="#091F2F" stroke-width="3" stroke-miterlimit="10" d="M45.1 43.2c0 1.5-7.5 9.4-16.8 9.4s-16.8-7.5-16.8-9.4 7.5-9.4 16.8-9.4 16.8 7.9 16.8 9.4zM11.5 43.2h33.6"/>
    <g class="svg-fill-hover" fill="#091F2F">
      <path d="M21.3 39c.4 0 .7-.3.7-.7v-3.2c-.5.2-1 .4-1.4.6v2.6c-.1.4.3.7.7.7zM24.8 39c.4 0 .7-.3.7-.7v-4.2c-.5.1-1 .2-1.4.3v3.9c0 .4.3.7.7.7zM28.3 39c.4 0 .7-.3.7-.7v-4.4h-1.4v4.4c0 .4.3.7.7.7zM31.8 39c.4 0 .7-.3.7-.7v-3.9c-.5-.1-.9-.2-1.4-.3v4.2c0 .4.3.7.7.7zM35.3 39c.4 0 .7-.3.7-.7v-2.8c-.5-.2-.9-.4-1.4-.6v3.3c0 .5.3.8.7.8z"/>
    </g>
  </g>
</svg>
