<svg xmlns="http://www.w3.org/2000/svg" xmlns:xlink="http://www.w3.org/1999/xlink" viewBox="0 0 66 66">
    <defs>
        <circle id="a" cx="33" cy="33" r="31.4"/>
    </defs>
    <use xlink:href="#a" overflow="visible" fill-rule="evenodd" clip-rule="evenodd" fill="none" stroke="#091F2F" stroke-width="3" stroke-miterlimit="10"/>
    <g fill="#091F2F">
        <path d="M27 31.6v-.2c-.2-.2-.5-.5-.6-.4-.2.1-.4.4-.6.7-1.8.3-3.7.6-5.6.2-2.7-.5-4.8.5-5.6 3-.5 1.5-.4 1.2.7 2 .2.1.4.2.7.3 1.6.9 3.4 1.1 5.1 1.4 3.2.6 6.5.6 9.7-.1 1.4-.3 2.8-.8 4.2-1 1.5-.2 3-.2 4.4-.4 1.8-.2 3.5-.5 5.3-.8 1.1-.2 1.2-.4 1.1-1.5-.2-1.4-.4-2.9-.6-4.3-.1-1.2-.3-2.3-.4-3.5 0-.1 0-.4.1-.5.7-.6.8-.6.2-1.4-.1-.1-.1-.2-.2-.3.5-.2.9-.6.6-1.1-.3-.4-.3-.8-.1-1.2.2-.5.5-1 .7-1.6.2-.3.2-.6-.1-.9-.3-.2-.7-.1-.9.1-.2.2-.3.4-.4.7-.4 1-1.3 1.4-2.3 1.6-1.9.2-3.6-.2-5.4-.6-1.2-.3-2.5-.7-3.7-1.1-.1.4-.3.8-.4 1.1-.4.1-1-.2-1 .4 0 .2.4.5.7.7-.1.3-.2.7-.4 1.1H32c-.3 0-.7 0-.8.1-.2.3.1.5.4.7.1.1.2.3.2.5-.1.3-.3.6-.4.9 0 0 0-.1-.1-.1-.3.1-.6.2-.9.2.1.3.3.6.5 1-.1.2-.3.4-.4.7 0-.1 0-.1-.1-.2-.4.2-.7.2-1 .2.1.3.2.6.3 1.1-.2.2-.4.6-.6.8-.5-.1-.8-.1-1.1-.1v1c.1 0 .1.1.2.1-.3.2-.8.5-1.2.7zm12.2 10.6c.5-.1 1.2.1 1.4-.9 0-.2.7-.3 1.1-.3.1 0 .3.3.4.4.1.2.2.6.5.4.3-.1.9.1 1-.5 0-.5.3-.7.7-.6.2 0 .5.2.7.4.2.3.5.3.8.2.9-.4.9-.4.8-1.3v-.3c-.1-.7-.2-1.5-.3-2.2-.2 0-.4 0-.5.1-2.4.3-4.7.7-7.1 1-1.4.2-2.8.2-4.1.5-3 .7-6 1.2-9.1 1.2-3.3 0-6.4-.4-9.4-1.7-.7-.3-1.4-.7-2.1-1-.1.6-.2 1.2-.2 1.8 0 .2.1.4.2.5.6.4 1.3.7 1.9 1v-.2c.3-.1.6-.2 1-.2.5 0 .6.3.6.7 0 .1.1.2.2.2.3.1.6.1.9.2.1-.9.7-.5 1.2-.5v.7c.2.1.4.1.6.1.4.1.9.4 1.2-.3.5.1 1.1 0 1.3.3.5.6 1.1.7 1.6 0 .3-.4.6-.2.9-.2.1 0 .3.2.4.4.1.3.3.5.6.4h.7c.1-.2.1-.4.2-.6.2 0 .4-.1.6-.1.4-.1.8-.1.9.4 0 .1.2.2.3.2.5 0 1 0 1.5-.1-.2-.9.3-1 .9-1.1 1-.2 2-.4 2.9-.6.6-.2 1 0 1.2.6.3 1 .9 1.2 1.9 1.1.1 0 .1 0 .2-.1 0-.6.4-.9.9-.8.2.1.3.4.6.8z"/>
        <path d="M27 31.6c.4-.3.8-.5 1.2-.8-.1 0-.1-.1-.2-.1v-1c.3 0 .6.1 1.1.1.2-.2.5-.6.6-.8-.1-.5-.2-.8-.3-1.1.3 0 .6-.1.9-.1 0 .1 0 .1.1.2.2-.3.3-.6.4-.7-.2-.4-.3-.7-.5-1 .3-.1.6-.2.9-.2 0 0 0 .1.1.1.1-.3.3-.6.4-.9 0-.1-.1-.4-.2-.5-.2-.2-.6-.4-.4-.7.1-.2.5-.1.8-.1h.2c.1-.4.3-.8.4-1.1-.3-.3-.7-.5-.7-.7 0-.6.6-.3 1-.4.1-.3.2-.7.4-1.1 1.3.4 2.5.8 3.7 1.1 1.8.5 3.6.9 5.4.6 1-.1 1.9-.5 2.3-1.6.1-.2.3-.5.4-.7.3-.3.6-.4.9-.1.3.2.3.5.1.9-.3.5-.5 1-.7 1.6-.2.4-.2.8.1 1.2.4.5-.1.9-.6 1.1.1.1.1.2.2.3.5.8.5.8-.2 1.4-.1.1-.1.3-.1.5.1 1.2.2 2.3.4 3.5.2 1.4.4 2.9.6 4.3.1 1.1 0 1.3-1.1 1.5-1.8.3-3.5.6-5.3.8-1.5.2-3 .2-4.4.4-1.4.2-2.8.7-4.2 1-3.2.7-6.5.7-9.7.1-1.8-.3-3.5-.5-5.1-1.4-.2-.1-.4-.2-.7-.3-1.2-.7-1.2-.5-.7-2 .8-2.5 2.9-3.6 5.6-3 1.9.4 3.8.1 5.6-.2.2-.2.4-.5.6-.7.1 0 .4.3.6.4.1.1.1.2.1.2z"/>
        <path d="M39.2 42.2c-.3-.3-.4-.7-.7-.7-.6-.1-.9.3-.9.8-.1 0-.1 0-.2.1-.9.2-1.6-.1-1.9-1.1-.2-.6-.5-.8-1.2-.6-.9.3-1.9.5-2.9.6-.6.1-1.1.3-.9 1.1-.6 0-1 .1-1.5.1-.1 0-.3-.1-.3-.2-.1-.6-.5-.5-.9-.4-.2 0-.4.1-.6.1-.1.2-.1.4-.2.6h-.7c-.4 0-.5-.1-.6-.4-.1-.2-.3-.3-.4-.4-.3 0-.6-.3-.9.2-.4.7-1.1.6-1.6 0-.3-.3-.9-.2-1.3-.3-.3.6-.8.4-1.2.3-.2 0-.4-.1-.6-.1v-.7c-.5 0-1-.4-1.2.5-.3-.1-.6-.1-.9-.2-.1 0-.2-.1-.2-.2 0-.4-.1-.7-.6-.7-.3 0-.6.1-1 .2v.2c-.7-.3-1.3-.7-1.9-1-.1-.1-.2-.3-.2-.5 0-.6.1-1.2.2-1.8.7.4 1.4.7 2.1 1 3 1.3 6.2 1.7 9.4 1.7 3.1 0 6.1-.6 9.1-1.2 1.3-.3 2.7-.3 4.1-.5 2.4-.3 4.8-.7 7.1-1 .1 0 .3 0 .5-.1.1.8.2 1.5.3 2.2v.3c.1 1 .1.9-.8 1.3-.4.2-.6.1-.8-.2-.1-.2-.4-.4-.7-.4-.4 0-.7.2-.7.6 0 .6-.6.4-1 .5-.4.1-.4-.2-.5-.4-.1-.2-.3-.4-.4-.4-.4.1-1.1.2-1.1.3-.1.9-.8.6-1.3.8z"/>
    </g>
</svg>
