<svg xmlns="http://www.w3.org/2000/svg" xmlns:xlink="http://www.w3.org/1999/xlink" viewBox="0 0 66 66">
    <defs>
        <circle id="a" cx="33" cy="33" r="31.4"/>
    </defs>
    <use xlink:href="#a" overflow="visible" fill-rule="evenodd" clip-rule="evenodd" fill="none" stroke="#091F2F" stroke-width="3" stroke-miterlimit="10"/>
    <path fill="none" stroke="#091F2F" stroke-width="3" stroke-miterlimit="10" d="M41.1 31.8V20.2h-12v-2h-4v2h-3.3v29H49.5V31.8z"/>
    <path fill="#091F2F" d="M25.1 41.9h4v4h-4zM34 41.9h4v4h-4zM42.9 41.9h4v4h-4zM25.1 35.9h4v4h-4zM34 35.9h4v4h-4zM42.9 35.9h4v4h-4zM25.1 29.8h4v4h-4zM34 29.8h4v4h-4zM25.1 23.8h4v4h-4zM34 23.8h4v4h-4z"/>
    <path fill="none" stroke="#091F2F" stroke-width="3" stroke-miterlimit="10" d="M10.3 10.7l45.4 44.5"/>
</svg>
