<svg xmlns="http://www.w3.org/2000/svg" xmlns:xlink="http://www.w3.org/1999/xlink" viewBox="0 0 66 66">
    <defs>
        <circle id="a" cx="33" cy="33" r="31.4"/>
    </defs>
    <use class="svg-stroke-hover" xlink:href="#a" overflow="visible" fill-rule="evenodd" clip-rule="evenodd" fill="none" stroke="#091F2F" stroke-width="3" stroke-miterlimit="10"/>
    <path class="svg-stroke-hover" fill="none" stroke="#091F2F" stroke-width="3" stroke-miterlimit="10" d="M12.7 26.6l21-14.5 20.2 14.5"/>
    <path class="svg-stroke-hover" fill="none" stroke="#091F2F" stroke-width="3" stroke-miterlimit="10" d="M50.2 24.1v25H17.6V23.2"/>
    <g>
        <path class="svg-fill-hover" fill="#091F2F" d="M37.8 24.9c-1.4 0-3.5 1.4-3.8 2.9-.2-1.2-1.7-2.2-2.8-2.6-1.5-.6-3.6-.3-4.8.7-.9.7-1.3 1.8-1.3 2.9-.1 2.8 1.7 5.4 3.5 7.4 5.4 6.1 5.4 6.2 5.4 6.2l5.5-6.1c5.5-6.1 3.7-11.4-1.7-11.4"/>
    </g>
</svg>
