<?xml version="1.0" encoding="utf-8"?>
<!-- Generator: Adobe Illustrator 18.1.1, SVG Export Plug-In . SVG Version: 6.00 Build 0)  -->
<svg version="1.1" id="Layer_1" xmlns="http://www.w3.org/2000/svg" xmlns:xlink="http://www.w3.org/1999/xlink" x="0px" y="0px"
	 viewBox="0 0 66 66" enable-background="new 0 0 66 66" xml:space="preserve">
<g>
	<defs>
		<circle id="SVGID_17_" cx="33" cy="33" r="31.4"/>
	</defs>
	<clipPath id="SVGID_2_">
		<use xlink:href="#SVGID_17_"  overflow="visible"/>
	</clipPath>
	
		<use xlink:href="#SVGID_17_"  overflow="visible" fill-rule="evenodd" clip-rule="evenodd" fill="none" stroke="#091F2F" stroke-width="3" stroke-miterlimit="10"/>
</g>
<polyline fill="none" stroke="#091F2F" stroke-width="3" stroke-miterlimit="10" points="12.7,26.6 33.7,12.1 53.9,26.6 "/>
<path fill="none" stroke="#091F2F" stroke-width="3" stroke-miterlimit="10" d="M50.2,24.1c0,9.6,0,25,0,25H17.6c0,0,0-16.2,0-25.9"
	/>
<g>
	<path fill="#091F2F" d="M37.8,24.9c-1.4,0-3.5,1.4-3.8,2.9c-0.2-1.2-1.7-2.2-2.8-2.6c-1.5-0.6-3.6-0.3-4.8,0.7
		c-0.9,0.7-1.3,1.8-1.3,2.9c-0.1,2.8,1.7,5.4,3.5,7.4c5.4,6.1,5.4,6.2,5.4,6.2s0,0,5.5-6.1S43.2,24.9,37.8,24.9"/>
</g>
</svg>
