<svg xmlns="http://www.w3.org/2000/svg" xmlns:xlink="http://www.w3.org/1999/xlink" viewBox="0 0 66 66">
    <defs>
        <circle id="a" cx="33" cy="33" r="31.4"/>
    </defs>
    <use xlink:href="#a" overflow="visible" fill-rule="evenodd" clip-rule="evenodd" fill="none" stroke="#091F2F" stroke-width="3" stroke-miterlimit="10"/>
    <path fill="#091F2F" d="M27.3 36.1v-9.2h-7.9l-2.3 4.9c-.8.2-3.4.7-6.3 1.7l-.4.1v7.8h44v-5.3H27.3zm-1.8-1.4h-6.3v-2.1l1.7-3.6h4.6v5.7z"/>
    <g fill="#091F2F">
        <circle cx="18.7" cy="42.5" r="4"/>
        <path d="M18.7 47c-2.5 0-4.6-2-4.6-4.6s2-4.6 4.6-4.6 4.6 2 4.6 4.6-2.1 4.6-4.6 4.6zm0-8c-1.9 0-3.5 1.6-3.5 3.5s1.6 3.5 3.5 3.5 3.5-1.6 3.5-3.5c0-2-1.6-3.5-3.5-3.5z"/>
    </g>
    <g fill="#091F2F">
        <circle cx="47.8" cy="42.5" r="4"/>
        <path d="M47.8 47c-2.5 0-4.6-2-4.6-4.6s2-4.6 4.6-4.6 4.6 2 4.6 4.6-2.1 4.6-4.6 4.6zm0-8c-1.9 0-3.5 1.6-3.5 3.5s1.6 3.5 3.5 3.5 3.5-1.6 3.5-3.5c-.1-2-1.6-3.5-3.5-3.5z"/>
    </g>
    <g fill="#091F2F">
        <circle cx="18.7" cy="42.4" r="1.8"/>
        <path d="M18.7 44.8c-1.3 0-2.4-1.1-2.4-2.4 0-1.3 1.1-2.4 2.4-2.4 1.3 0 2.4 1.1 2.4 2.4-.1 1.3-1.1 2.4-2.4 2.4zm0-3.7c-.7 0-1.3.6-1.3 1.3 0 .7.6 1.3 1.3 1.3.7 0 1.3-.6 1.3-1.3-.1-.7-.6-1.3-1.3-1.3z"/>
    </g>
    <g fill="#091F2F">
        <circle cx="47.7" cy="42.4" r="1.8"/>
        <path d="M47.7 44.8c-1.3 0-2.4-1.1-2.4-2.4 0-1.3 1.1-2.4 2.4-2.4 1.3 0 2.4 1.1 2.4 2.4 0 1.3-1.1 2.4-2.4 2.4zm0-3.7c-.7 0-1.3.6-1.3 1.3 0 .7.6 1.3 1.3 1.3.7 0 1.3-.6 1.3-1.3 0-.7-.6-1.3-1.3-1.3z"/>
    </g>
    <path fill="#091F2F" d="M25.5 19.4h30.2v19.1H25.5z"/>
</svg>
