<?xml version="1.0" encoding="utf-8"?>
<!-- Generator: Adobe Illustrator 18.1.1, SVG Export Plug-In . SVG Version: 6.00 Build 0)  -->
<svg version="1.1" id="Layer_1" xmlns="http://www.w3.org/2000/svg" xmlns:xlink="http://www.w3.org/1999/xlink" x="0px" y="0px"
	 viewBox="0 0 66 66" enable-background="new 0 0 66 66" xml:space="preserve">
<g>
	<defs>
		<circle id="SVGID_127_" cx="33" cy="33" r="31.4"/>
	</defs>
	<clipPath id="SVGID_2_">
		<use xlink:href="#SVGID_127_"  overflow="visible"/>
	</clipPath>
	
		<use xlink:href="#SVGID_127_"  overflow="visible" fill-rule="evenodd" clip-rule="evenodd" fill="none" stroke="#091F2F" stroke-width="3" stroke-miterlimit="10"/>
</g>
<g>
	
		<line fill="none" stroke="#0C1F2E" stroke-width="3" stroke-linecap="round" stroke-linejoin="round" stroke-miterlimit="10" x1="14.8" y1="23.9" x2="20.5" y2="23.9"/>
	
		<line fill="none" stroke="#0C1F2E" stroke-width="3" stroke-linecap="round" stroke-linejoin="round" stroke-miterlimit="10" x1="29.7" y1="8.6" x2="29.6" y2="14.3"/>
	
		<line fill="none" stroke="#0C1F2E" stroke-width="3" stroke-linecap="round" stroke-linejoin="round" stroke-miterlimit="10" x1="19.6" y1="12.8" x2="23.6" y2="16.9"/>
</g>
<path fill="none" stroke="#0C1F2E" stroke-width="3" stroke-linecap="round" stroke-linejoin="round" stroke-miterlimit="10" d="
	M34.6,23.8l-5.4-3.6l-8.1,12.1l0,0c-0.9,1.5-0.5,3.4,1,4.4c1.5,1,3.5,0.6,4.5-0.9C26.8,35.7,34.6,23.8,34.6,23.8z"/>
<line fill="none" stroke="#0C1F2E" stroke-width="3" stroke-linecap="round" stroke-linejoin="round" stroke-miterlimit="10" x1="22.1" y1="36.8" x2="16.8" y2="44.8"/>
<line fill="none" stroke="#0C1F2E" stroke-width="3" stroke-linecap="round" stroke-linejoin="round" stroke-miterlimit="10" x1="13.6" y1="43.7" x2="19" y2="47.3"/>
<line fill="none" stroke="#0C1F2E" stroke-width="3" stroke-linecap="round" stroke-linejoin="round" stroke-miterlimit="10" x1="23.3" y1="29.2" x2="31.5" y2="28.6"/>
<path fill="none" stroke="#0C1F2E" stroke-width="3" stroke-linecap="round" stroke-linejoin="round" stroke-miterlimit="10" d="
	M45.2,24.4l-6.4,0.7l1.7,14.5l0,0c0.3,1.7,1.8,3,3.6,2.8c1.8-0.2,3.1-1.8,2.9-3.6C46.9,38.6,45.2,24.4,45.2,24.4z"/>
<path fill="#0C1F2E" d="M23.7,28.8L20.9,33l0,0c-0.9,1.5-0.5,3.4,1,4.4c1.5,1,3.5,0.6,4.5-0.9c0.1-0.1,3-4.5,5.2-7.9
	C29,28.7,26.4,28.8,23.7,28.8z"/>
<path fill="#0C1F2E" d="M45.6,29.9c-2,1.2-4.1,2.3-6.1,3.4l0.8,7l0,0c0.3,1.7,1.8,3,3.6,2.8c1.8-0.2,3.1-1.8,2.9-3.6
	C46.7,39.3,46,34,45.6,29.9z"/>
<line fill="none" stroke="#0C1F2E" stroke-width="3" stroke-linecap="round" stroke-linejoin="round" stroke-miterlimit="10" x1="44" y1="42.4" x2="45.1" y2="52"/>
<line fill="none" stroke="#0C1F2E" stroke-width="3" stroke-linecap="round" stroke-linejoin="round" stroke-miterlimit="10" x1="42" y1="53.2" x2="48.5" y2="52.5"/>
<line fill="none" stroke="#0C1F2E" stroke-width="3" stroke-linecap="round" stroke-linejoin="round" stroke-miterlimit="10" x1="39.7" y1="33.4" x2="45.9" y2="30.1"/>
</svg>
