<?xml version="1.0" encoding="utf-8"?>
<!-- Generator: Adobe Illustrator 18.1.1, SVG Export Plug-In . SVG Version: 6.00 Build 0)  -->
<svg version="1.1" id="Layer_1" xmlns="http://www.w3.org/2000/svg" xmlns:xlink="http://www.w3.org/1999/xlink" x="0px" y="0px"
	 viewBox="0 0 66 66" enable-background="new 0 0 66 66" xml:space="preserve">
<g>
	<defs>
		<circle id="SVGID_87_" cx="33" cy="33" r="31.4"/>
	</defs>
	<clipPath id="SVGID_2_">
		<use xlink:href="#SVGID_87_"  overflow="visible"/>
	</clipPath>
	
		<use xlink:href="#SVGID_87_"  overflow="visible" fill-rule="evenodd" clip-rule="evenodd" fill="none" stroke="#091F2F" stroke-width="3" stroke-miterlimit="10"/>
</g>
<g>
</g>
<path fill="#091F2E" d="M23.9,36.5c-0.3-0.9-2.2-7.8-2.7-9.5c0.1,0,0.3-0.1,0.4-0.1c0.1,0.3,0.2,0.6,0.3,1c0.4,1.3,0.7,2.6,1.1,3.9
	c0,0,0,0,0,0c0.6-0.2,1.1-0.3,1.7-0.5c-0.3-1.1-0.7-2.2-1-3.3c-1.2-3.9-1.3-4-5.4-4c-2,0-2.8,0.6-3.4,2.5c-0.5,1.7-1.1,3.4-1.7,5.1
	v0c0.6,0.2,1.2,0.4,1.8,0.6c0-0.1,0.1-0.1,0.1-0.2c0.4-1.2,0.7-2.4,1-3.6c0.1-0.5,0.3-1,0.5-1.5c0.1,0,0.2,0.1,0.3,0.1
	c-0.5,1.8-2.5,8.8-2.7,9.6h2.6c0,0.5,0,1,0,1.4c0,1.8,0,3.6,0,5.4h2c0-0.1,0-0.2,0-0.3c0-1.8,0-3.7,0-5.5c0-0.3,0.1-0.6,0.1-1
	c0.1,0,0.2,0,0.3,0c0,0.4,0.1,0.7,0.1,1.1c0,1.9,0,3.8,0,5.7h1.9c0-0.3,0-0.6,0-0.8c0-2,0-3.9,0-6H23.9z"/>
<path fill="#FFFFFF" d="M21.4,43.5h-2.2v-0.1c0-0.7,0-1.5,0-2.2c0-1.2,0-2.4,0-3.5c0-0.2,0-0.5-0.1-0.7c0-0.1,0-0.2,0-0.2l-0.1,0
	c0,0.1,0,0.1,0,0.2c0,0.2-0.1,0.4-0.1,0.6c0,1.2,0,2.5,0,3.7V43c0,0.1,0,0.2,0,0.2l0,0.2h-2.2l0-0.1c-0.1-1.3-0.1-2.7,0-4
	c0-0.5,0-1,0-1.4v-1.3h-2.6l2.7-9.6l-0.1,0c0,0.1-0.1,0.2-0.1,0.3c-0.1,0.3-0.2,0.7-0.3,1c-0.2,0.5-0.3,1.1-0.5,1.6
	c-0.2,0.7-0.4,1.4-0.6,2c0,0.1,0,0.1-0.1,0.2l-0.1,0.2L15,32.3c-0.5-0.2-1.1-0.5-1.7-0.6l-0.1,0l0-0.1c0.2-0.5,0.4-1.1,0.5-1.6
	c0.4-1.1,0.8-2.3,1.1-3.5c0.6-2,1.4-2.6,3.5-2.6l0.6,0c3.6,0,3.8,0.3,5,4.1c0.1,0.4,0.3,0.9,0.4,1.3c0.2,0.7,0.4,1.4,0.6,2.1l0,0.1
	l-0.1,0c-0.6,0.2-1.2,0.4-1.7,0.5L23,32l0-0.1c-0.3-0.8-0.5-1.7-0.7-2.5c-0.1-0.5-0.3-1-0.4-1.5c-0.1-0.2-0.1-0.4-0.2-0.7
	c0-0.1,0-0.1-0.1-0.2l-0.2,0l2.7,9.5h-2.7l0,6.2c0,0.2,0,0.4,0,0.6L21.4,43.5z M19.5,43.2h1.7c0-0.2,0-0.3,0-0.5l0-0.2l0-6.2h2.6
	L21,26.9l0.6-0.2l0,0.1c0,0.1,0.1,0.2,0.1,0.3c0.1,0.2,0.2,0.4,0.2,0.7c0.1,0.5,0.3,1,0.4,1.5c0.2,0.8,0.4,1.6,0.7,2.3
	c0.4-0.1,0.9-0.3,1.4-0.5c-0.2-0.6-0.4-1.3-0.6-1.9c-0.1-0.4-0.3-0.9-0.4-1.3c-1.1-3.6-1.2-3.9-4.7-3.9l-0.6,0
	c-1.9,0-2.6,0.5-3.2,2.4c-0.4,1.2-0.8,2.4-1.1,3.5c-0.2,0.5-0.3,1-0.5,1.5c0.5,0.2,1.1,0.4,1.5,0.6c0,0,0-0.1,0-0.1
	c0.2-0.7,0.4-1.3,0.6-2c0.2-0.5,0.3-1.1,0.5-1.6c0.1-0.3,0.2-0.7,0.3-1c0.1-0.2,0.1-0.3,0.2-0.5l0-0.1l0.6,0.2l0,0.1l-2.6,9.4H17
	v1.5c0,0.5,0,1,0,1.4c0,1.3,0,2.6,0,3.9h1.7c0-0.1,0-0.1,0-0.2v-1.8c0-1.2,0-2.5,0-3.7c0-0.2,0-0.5,0.1-0.7c0-0.1,0-0.2,0-0.3l0-0.1
	l0.6,0l0,0.1c0,0.1,0,0.2,0,0.3c0,0.2,0.1,0.5,0.1,0.8c0,1.2,0,2.4,0,3.5C19.5,41.8,19.5,42.5,19.5,43.2z"/>
<path fill="#091F2E" d="M35.3,28.5v-1.2c0.1,0,0.2,0,0.4,0c0,0.3,0.1,0.7,0.1,1c0,1.4,0,2.8,0,4.3h1.7c0.1-1.9,0.1-3.9,0-5.8
	c0-1.6-1.2-2.7-2.8-2.7c-1.3,0-2.6,0-3.9,0c-1.9,0-2.9,1-3,2.9c0,1.9,0,3.8,0,5.7h1.8c0-1.5,0-3,0-4.6c0-0.3,0.1-0.5,0.1-0.8l0.3,0
	v1.1c0,1.4,0,11.5,0,14.2c0,0.2,0,0.4,0,0.6h2.4c0-0.2,0-0.3,0-0.5c0-2.5,0-5,0-7.6c0-0.3,0-0.7,0.1-1c0.1,0,0.2,0,0.3,0v1.2
	c0,2.4,0,4.9,0,7.3c0,0.2,0,0.4,0,0.6h2.5c0-0.2,0-0.4,0-0.6C35.3,39.9,35.3,29.8,35.3,28.5z"/>
<path fill="#FFFFFF" d="M35.4,43.3h-2.8v-0.1c0-0.1,0-0.2,0-0.3c0-0.1,0-0.2,0-0.3c0-1.8,0-3.6,0-5.3v-3l0,0c0,0.1,0,0.1,0,0.2
	c0,0.2,0,0.5,0,0.7c0,1.1,0,2.3,0,3.4c0,1.4,0,2.8,0,4.2c0,0.1,0,0.2,0,0.2c0,0.1,0,0.2,0,0.2v0.1H30l0-0.1c0-0.1,0-0.2,0-0.3
	c0-0.1,0-0.2,0-0.3c0-2.7,0-12.7,0-14.2v-1l-0.1,0c0,0,0,0.1,0,0.1c0,0.2-0.1,0.4-0.1,0.5c0,0.8,0,1.7,0,2.5c0,0.7,0,1.3,0,2l0,0.1
	h-2.1v-0.1c0-0.5,0-0.9,0-1.4c0-1.4,0-2.9,0-4.4c0-2,1.1-3,3.1-3c0.7,0,1.4,0,2.1,0c0.7,0,1.3,0,1.8,0c1.7,0,2.8,1.2,2.9,2.9
	c0.1,2.1,0,4,0,5.8l0,0.1h-2v-0.1c0-1.4,0-2.8,0-4.3c0-0.2,0-0.4,0-0.7c0-0.1,0-0.1,0-0.2l-0.1,0v1c0,1.3,0,11.5,0,14.2
	c0,0.1,0,0.2,0,0.3c0,0.1,0,0.2,0,0.3L35.4,43.3z M32.9,43.1h2.2c0,0,0-0.1,0-0.1c0-0.1,0-0.2,0-0.3c0-2.7,0-12.8,0-14.2v-1.3l0.6,0
	l0,0.1c0,0.1,0,0.2,0,0.3c0,0.2,0,0.5,0,0.7c0,1.4,0,2.8,0,4.1h1.5c0.1-1.7,0.1-3.6,0-5.7c0-1.5-1.1-2.6-2.6-2.6c-0.6,0-1.2,0-1.8,0
	c-0.7,0-1.4,0-2.1,0c-1.9,0-2.8,1-2.9,2.8c0,1.5,0,2.9,0,4.4c0,0.4,0,0.8,0,1.2h1.6c0-0.6,0-1.3,0-1.9c0-0.8,0-1.7,0-2.5
	c0-0.2,0-0.4,0.1-0.6c0-0.1,0-0.2,0-0.3l0-0.1l0.6,0.1v1.2c0,1.4,0,11.5,0,14.2c0,0.1,0,0.2,0,0.3c0,0,0,0.1,0,0.1h2.1
	c0,0,0-0.1,0-0.1c0-0.1,0-0.2,0-0.3c0-1.4,0-2.8,0-4.2c0-1.1,0-2.3,0-3.4c0-0.2,0-0.5,0-0.7c0-0.1,0-0.2,0-0.3l0-0.1l0.5,0v3.3
	c0,1.8,0,3.6,0,5.3c0,0.1,0,0.2,0,0.3C33,42.9,33,43,32.9,43.1z"/>
<circle fill="#091F2E" cx="18.9" cy="21.5" r="2"/>
<path fill="#091F2E" d="M51.9,36.5c-0.3-0.9-2.2-7.8-2.7-9.5c0.1,0,0.3-0.1,0.4-0.1c0.1,0.3,0.2,0.6,0.3,1c0.4,1.3,0.7,2.6,1.1,3.9
	c0,0,0,0,0,0c0.6-0.2,1.1-0.3,1.7-0.5c-0.3-1.1-0.7-2.2-1-3.3c-1.2-3.9-1.3-4-5.4-4c-2,0-2.8,0.6-3.4,2.5c-0.5,1.7-1.1,3.4-1.7,5.1
	v0c0.6,0.2,1.2,0.4,1.8,0.6c0-0.1,0.1-0.1,0.1-0.2c0.4-1.2,0.7-2.4,1-3.6c0.1-0.5,0.3-1,0.5-1.5c0.1,0,0.2,0.1,0.3,0.1
	c-0.5,1.8-2.5,8.8-2.7,9.6h2.6c0,0.5,0,1,0,1.4c0,1.8,0,3.6,0,5.4h2c0-0.1,0-0.2,0-0.3c0-1.8,0-3.7,0-5.5c0-0.3,0.1-0.6,0.1-1
	c0.1,0,0.2,0,0.3,0c0,0.4,0.1,0.7,0.1,1.1c0,1.9,0,3.8,0,5.7h1.9c0-0.3,0-0.6,0-0.8c0-2,0-3.9,0-6H51.9z"/>
<path fill="#FFFFFF" d="M49.4,43.5h-2.2v-0.1c0-0.7,0-1.5,0-2.2c0-1.2,0-2.4,0-3.5c0-0.2,0-0.5-0.1-0.7c0-0.1,0-0.2,0-0.2l-0.1,0
	c0,0.1,0,0.1,0,0.2c0,0.2-0.1,0.4-0.1,0.6c0,1.2,0,2.5,0,3.7V43c0,0.1,0,0.2,0,0.2l0,0.2h-2.2l0-0.1c-0.1-1.3-0.1-2.7,0-4
	c0-0.5,0-1,0-1.4v-1.3h-2.6l2.7-9.6l-0.1,0c0,0.1-0.1,0.2-0.1,0.3c-0.1,0.3-0.2,0.7-0.3,1c-0.2,0.5-0.3,1.1-0.5,1.6
	c-0.2,0.7-0.4,1.4-0.6,2c0,0.1,0,0.1-0.1,0.2l-0.1,0.2l-0.1-0.1c-0.5-0.2-1.1-0.5-1.7-0.6l-0.1,0l0-0.1c0.2-0.5,0.4-1.1,0.5-1.6
	c0.4-1.1,0.8-2.3,1.1-3.5c0.6-2,1.4-2.6,3.5-2.6l0.6,0c3.6,0,3.8,0.3,5,4.1c0.1,0.4,0.3,0.9,0.4,1.3c0.2,0.7,0.4,1.4,0.6,2.1l0,0.1
	l-0.1,0c-0.6,0.2-1.2,0.4-1.7,0.5L51,32l0-0.1c-0.3-0.8-0.5-1.7-0.7-2.5c-0.1-0.5-0.3-1-0.4-1.5c-0.1-0.2-0.1-0.4-0.2-0.7
	c0-0.1,0-0.1-0.1-0.2l-0.2,0l2.7,9.5h-2.7l0,6.2c0,0.2,0,0.4,0,0.6L49.4,43.5z M47.5,43.2h1.7c0-0.2,0-0.3,0-0.5l0-0.2l0-6.2h2.6
	L49,26.9l0.6-0.2l0,0.1c0,0.1,0.1,0.2,0.1,0.3c0.1,0.2,0.2,0.4,0.2,0.7c0.1,0.5,0.3,1,0.4,1.5c0.2,0.8,0.4,1.6,0.7,2.3
	c0.4-0.1,0.9-0.3,1.4-0.5c-0.2-0.6-0.4-1.3-0.6-1.9c-0.1-0.4-0.3-0.9-0.4-1.3c-1.1-3.6-1.2-3.9-4.7-3.9l-0.6,0
	c-1.9,0-2.6,0.5-3.2,2.4c-0.4,1.2-0.8,2.4-1.1,3.5c-0.2,0.5-0.3,1-0.5,1.5c0.5,0.2,1.1,0.4,1.5,0.6c0,0,0-0.1,0-0.1
	c0.2-0.7,0.4-1.3,0.6-2c0.2-0.5,0.3-1.1,0.5-1.6c0.1-0.3,0.2-0.7,0.3-1c0.1-0.2,0.1-0.3,0.2-0.5l0-0.1l0.6,0.2l0,0.1l-2.6,9.4h2.5
	v1.5c0,0.5,0,1,0,1.4c0,1.3,0,2.6,0,3.9h1.7c0-0.1,0-0.1,0-0.2v-1.8c0-1.2,0-2.5,0-3.7c0-0.2,0-0.5,0.1-0.7c0-0.1,0-0.2,0-0.3l0-0.1
	l0.6,0l0,0.1c0,0.1,0,0.2,0,0.3c0,0.2,0.1,0.5,0.1,0.8c0,1.2,0,2.4,0,3.5C47.5,41.8,47.5,42.5,47.5,43.2z"/>
<circle fill="#091F2E" cx="46.9" cy="21.5" r="2"/>
<circle fill="#091F2E" cx="32.9" cy="21.5" r="2"/>
</svg>
