<?xml version="1.0" encoding="utf-8"?>
<!-- Generator: Adobe Illustrator 18.1.1, SVG Export Plug-In . SVG Version: 6.00 Build 0)  -->
<svg version="1.1" id="Layer_1" xmlns="http://www.w3.org/2000/svg" xmlns:xlink="http://www.w3.org/1999/xlink" x="0px" y="0px"
	 viewBox="0 0 66 66" enable-background="new 0 0 66 66" xml:space="preserve">
<g>
	<defs>
		<circle id="SVGID_67_" cx="33" cy="33" r="31.4"/>
	</defs>
	<clipPath id="SVGID_2_">
		<use xlink:href="#SVGID_67_"  overflow="visible"/>
	</clipPath>
	
		<use xlink:href="#SVGID_67_"  overflow="visible" fill-rule="evenodd" clip-rule="evenodd" fill="none" stroke="#091F2F" stroke-width="3" stroke-miterlimit="10"/>
</g>
<g>
	<defs>
		<circle id="SVGID_69_" cx="32.1" cy="34.4" r="16.6"/>
	</defs>
	<clipPath id="SVGID_4_">
		<use xlink:href="#SVGID_69_"  overflow="visible"/>
	</clipPath>
	
		<use xlink:href="#SVGID_69_"  overflow="visible" fill-rule="evenodd" clip-rule="evenodd" fill="none" stroke="#091F2F" stroke-width="3" stroke-miterlimit="10"/>
</g>
<path fill-rule="evenodd" clip-rule="evenodd" fill="none" stroke="#091F2F" stroke-width="3" stroke-miterlimit="10" d="M34.9,50.1
	c-7.8-1.3-13.7-7.9-13.7-15.8s5.9-14.5,13.7-15.8"/>
<path fill-rule="evenodd" clip-rule="evenodd" fill="none" stroke="#091F2F" stroke-width="3" stroke-miterlimit="10" d="M38,49.8
	c-6.2-2.4-10.6-8.3-10.6-15.2S31.8,21.8,38,19.4"/>
<path fill-rule="evenodd" clip-rule="evenodd" fill="none" stroke="#091F2F" stroke-width="3" stroke-miterlimit="10" d="M28,33.3
	c3.9-1.7,8.3-1.8,12.4-0.1c3,1.3,5.4,3.4,7,5.9"/>
<path fill-rule="evenodd" clip-rule="evenodd" fill="none" stroke="#091F2F" stroke-width="3" stroke-miterlimit="10" d="M29,27.6
	c3.9-1.7,8.3-1.8,12.4-0.1c3,1.3,5.4,3.4,7.1,6"/>
<path fill-rule="evenodd" clip-rule="evenodd" fill="none" stroke="#091F2F" stroke-width="3" stroke-miterlimit="10" d="M27.6,38.1
	c3.3-0.8,6.9-0.6,10.2,0.8c2.9,1.2,5.3,3.3,7,5.7"/>
<g>
</g>
<path fill-rule="evenodd" clip-rule="evenodd" fill="none" stroke="#091F2F" stroke-width="3" stroke-miterlimit="10" d="M29,50.1
	c8.8,2,17.7-2.4,21.1,1.1c1.6,1.6,0,4.3-8.3,5.7c-8.4,1.4-6.2,4.3-6.2,4.3s1,2.8,8.6,1.3"/>
<line fill="none" stroke="#091F2F" stroke-width="3" stroke-miterlimit="10" x1="44" y1="12.8" x2="40" y2="19.4"/>
<g>
	<polygon fill="#091F2F" points="25.3,50.6 20,56.4 22.7,49 	"/>
</g>
<circle fill="#091F2F" cx="44.8" cy="11.6" r="3.4"/>
<line fill="none" stroke="#091F2F" stroke-width="3" stroke-miterlimit="10" x1="50.8" y1="19" x2="44.8" y2="24"/>
<g>
	<polygon fill="#091F2F" points="20.8,48.7 13.9,52.5 18.9,46.4 	"/>
</g>
<circle fill="#091F2F" cx="52" cy="18.1" r="3.4"/>
</svg>
