<svg xmlns="http://www.w3.org/2000/svg" xmlns:xlink="http://www.w3.org/1999/xlink" viewBox="0 0 66 66">
    <defs>
        <circle id="a" cx="33" cy="33" r="31.4"/>
    </defs>
    <use xlink:href="#a" overflow="visible" fill-rule="evenodd" clip-rule="evenodd" fill="none" stroke="#091F2F" stroke-width="3" stroke-miterlimit="10"/>
    <path fill="#FFF" stroke="#091F2F" stroke-width="3" stroke-miterlimit="10" d="M52.4 34.7c0-16.1-15.8-12.6-23.5-12.6-1.7 0-6.9-2.6-6.9-2.6l-1.6 5.3c-2.3 1.6-4 3.9-4.8 6.6h-3.4v6.8h3.4c1.1 3.6 3.9 6.5 7.5 8l-.8 5.9 5 1.8 4-6.6c3.3 0 4.3.3 8.3-.4l3.4 6 5.1-1.4-1.7-6.2c3.5-1.8 6-4.9 6-10.6z"/>
    <circle fill="#FFF" stroke="#091F2F" stroke-width="3" stroke-miterlimit="10" cx="37.6" cy="18" r="6.1"/>
    <circle fill="#091F2F" cx="22.3" cy="30.6" r="1.7"/>
    <g>
        <path fill="#091F2F" d="M38.3 18.3l1.4.6c-.2.5-.7.9-1.2 1.1v1.3h-1.2V20c-1-.2-1.6-1-1.6-2 0-1.1.6-1.9 1.6-2.1v-1.2h1.2V16c.6.2 1 .5 1.2 1.1l-1.3.6c-.1-.2-.3-.4-.5-.4-.3 0-.5.3-.5.8s.2.8.5.8c.1-.2.3-.3.4-.6z"/>
    </g>
</svg>
