<svg xmlns="http://www.w3.org/2000/svg" xmlns:xlink="http://www.w3.org/1999/xlink" viewBox="0 0 66 66">
  <defs>
    <circle id="a" cx="33" cy="33" r="31.4" class="svg-stroke-hover" />
  </defs>
  <use xlink:href="#a" overflow="visible" fill-rule="evenodd" clip-rule="evenodd" fill="none" stroke="#091F2F" stroke-width="3" stroke-miterlimit="10"/>
  <path class="svg-fill-hover" fill="#091F2F" d="M28 34.1v-9.2h-8l-2.3 4.9c-.8.2-3.4.7-6.3 1.7H11v7.8h44V34H28zm-1.9-1.5h-6.3v-2.1l1.7-3.6h4.6v5.7z"/>
  <g fill="#091F2F">
    <circle cx="19.3" cy="40.4" r="4"/>
    <path d="M19.3 45c-2.5 0-4.6-2-4.6-4.6s2-4.6 4.6-4.6 4.6 2 4.6 4.6-2.1 4.6-4.6 4.6zm0-8.1c-1.9 0-3.5 1.6-3.5 3.5s1.6 3.5 3.5 3.5 3.5-1.6 3.5-3.5-1.6-3.5-3.5-3.5z"/>
  </g>
  <g class="svg-fill-hover" fill="#091F2F">
    <circle cx="48.4" cy="40.4" r="4"/>
    <path d="M48.4 45c-2.5 0-4.6-2-4.6-4.6s2-4.6 4.6-4.6 4.6 2 4.6 4.6-2.1 4.6-4.6 4.6zm0-8.1c-1.9 0-3.5 1.6-3.5 3.5s1.6 3.5 3.5 3.5 3.5-1.6 3.5-3.5c-.1-1.9-1.6-3.5-3.5-3.5z"/>
  </g>
  <g class="svg-fill-hover" fill="#091F2F">
    <circle cx="19.3" cy="40.3" r="1.8"/>
    <path d="M19.3 42.7c-1.3 0-2.4-1.1-2.4-2.4 0-1.3 1.1-2.4 2.4-2.4 1.3 0 2.4 1.1 2.4 2.4 0 1.3-1.1 2.4-2.4 2.4zm0-3.6c-.7 0-1.3.6-1.3 1.3 0 .7.6 1.3 1.3 1.3.7 0 1.3-.6 1.3-1.3 0-.8-.6-1.3-1.3-1.3z"/>
  </g>
  <path class="svg-fill-hover" fill="#091F2F" d="M27.4 30.7l3.1 3.1 21.9-11.3.5-2"/>
  <g class="svg-fill-hover" fill="#091F2F">
    <circle cx="48.3" cy="40.3" r="1.8"/>
    <path d="M48.3 42.7c-1.3 0-2.4-1.1-2.4-2.4C46 39 47 38 48.3 38c1.3 0 2.4 1.1 2.4 2.4 0 1.2-1.1 2.3-2.4 2.3zm0-3.6c-.7 0-1.3.6-1.3 1.3 0 .7.6 1.3 1.3 1.3.7 0 1.3-.6 1.3-1.3 0-.8-.6-1.3-1.3-1.3z"/>
  </g>
  <path fill="#091F2F" d="M26 25.1h-4.1l1-3.8H25l1 3.8z"/>
  <circle fill="#091F2F" cx="52.8" cy="27.1" r="1.4"/>
  <path fill="none" stroke="#091F2F" stroke-miterlimit="10" d="M53 27.1v2.8s.8.4.8 1.2c.1.8-.6 1.3-1.2 1.3s-1.1-.5-1.1-1.3M52.8 25.7v-5.1"/>
  <path fill="#091F2F" d="M26.1 31.3h16.8v5.1H26.1z"/>
</svg>
