<svg xmlns="http://www.w3.org/2000/svg" xmlns:xlink="http://www.w3.org/1999/xlink" viewBox="0 0 66 66">
  <defs>
    <circle id="a" cx="33" cy="33" r="31.4"/>
  </defs>
  <use class="svg-stroke-hover" xlink:href="#a" overflow="visible" fill-rule="evenodd" clip-rule="evenodd" fill="none" stroke="#091F2F" stroke-width="3" stroke-miterlimit="10"/>
  <path class="svg-stroke-hover" fill="none" stroke="#091F2F" stroke-width="3" stroke-miterlimit="10" d="M40.3 31.8V20.2H28.4v-2h-4v2h-3.3v29h27.6V31.8z"/>
  <path class="svg-fill-hover" fill="#091F2F" d="M24.4 41.9h4v4h-4zm8.8 0h4v4h-4zm8.9 0h4v4h-4zm-17.7-6h4v4h-4zm8.8 0h4v4h-4zm8.9 0h4v4h-4zm-17.7-6.1h4v4h-4zm8.8 0h4v4h-4zm-8.8-6h4v4h-4zm8.8 0h4v4h-4z"/>
</svg>
