<svg xmlns="http://www.w3.org/2000/svg" xmlns:xlink="http://www.w3.org/1999/xlink" viewBox="0 0 66 66">
    <defs>
        <circle id="a" cx="33" cy="33" r="31.4"/>
    </defs>
    <use class="svg-stroke-hover" xlink:href="#a" overflow="visible" fill-rule="evenodd" clip-rule="evenodd" fill="none" stroke="#091F2F" stroke-width="3" stroke-miterlimit="10"/>
    <path fill="#091F2F" d="M33.2 35v-9.2h-7.9L23 30.6c-.8.2-3.4.7-6.3 1.7l-.4.1v7.8h40V35H33.2zm-1.8-1.5h-6.3v-2.1l1.7-3.6h4.6v5.7z"/>
    <g fill="#091F2F">
        <circle cx="24.6" cy="41.3" r="4"/>
        <path d="M24.6 45.8c-2.5 0-4.6-2-4.6-4.6s2-4.6 4.6-4.6 4.6 2 4.6 4.6-2.1 4.6-4.6 4.6zm0-8c-1.9 0-3.5 1.6-3.5 3.5s1.6 3.5 3.5 3.5 3.5-1.6 3.5-3.5-1.6-3.5-3.5-3.5z"/>
    </g>
    <g fill="#091F2F">
        <circle cx="49.7" cy="41.3" r="4"/>
        <path d="M49.7 45.8c-2.5 0-4.6-2-4.6-4.6s2-4.6 4.6-4.6 4.6 2 4.6 4.6-2.1 4.6-4.6 4.6zm0-8c-1.9 0-3.5 1.6-3.5 3.5s1.6 3.5 3.5 3.5 3.5-1.6 3.5-3.5c-.1-1.9-1.6-3.5-3.5-3.5z"/>
    </g>
    <g fill="#091F2F">
        <circle cx="24.6" cy="41.2" r="1.8"/>
        <path d="M24.6 43.6c-1.3 0-2.4-1.1-2.4-2.4 0-1.3 1.1-2.4 2.4-2.4 1.3 0 2.4 1.1 2.4 2.4-.1 1.3-1.1 2.4-2.4 2.4zm0-3.6c-.7 0-1.3.6-1.3 1.3 0 .7.6 1.3 1.3 1.3.7 0 1.3-.6 1.3-1.3-.1-.8-.6-1.3-1.3-1.3z"/>
    </g>
    <g fill="#091F2F">
        <circle cx="49.6" cy="41.2" r="1.8"/>
        <path d="M49.6 43.6c-1.3 0-2.4-1.1-2.4-2.4 0-1.3 1.1-2.4 2.4-2.4 1.3 0 2.4 1.1 2.4 2.4 0 1.3-1.1 2.4-2.4 2.4zm0-3.6c-.7 0-1.3.6-1.3 1.3 0 .7.6 1.3 1.3 1.3.7 0 1.3-.6 1.3-1.3 0-.8-.6-1.3-1.3-1.3z"/>
    </g>
    <path fill="#091F2F" d="M54.9 36.3H33V24.2h24z"/>
    <path class="svg-stroke-hover" fill="none" stroke="#091F2F" stroke-width="3" stroke-miterlimit="10" d="M10.5 30.4c1.6.7 2.7 3.2 2.7 6.2s-1.1 5.4-2.7 6.2M13.2 37.3h4M51.4 21.2H51c-.9-2-3-3.4-5.4-3.4-2.1 0-4 1.1-5 2.6-.6-.4-1.4-.6-2.2-.6-2.2 0-4.1 1.7-4.1 3.8 0 2.1 1.8 3.8 4.1 3.8 1 0 1.8-.3 2.5-.9 1.1 1.3 2.7 2.2 4.6 2.2 1.2 0 2.3-.3 3.2-.9.7.5 1.6.9 2.6.9 2.2 0 4.1-1.7 4.1-3.8 0-1.9-1.8-3.7-4-3.7z"/>
</svg>
