<svg xmlns="http://www.w3.org/2000/svg" xmlns:xlink="http://www.w3.org/1999/xlink" viewBox="0 0 66 66">
    <defs>
        <circle id="a" cx="33" cy="33" r="31.4"/>
    </defs>
    <use class="svg-stroke-hover" xlink:href="#a" overflow="visible" fill-rule="evenodd" clip-rule="evenodd" fill="none" stroke="#091F2F" stroke-width="3" stroke-miterlimit="10"/>
    <path fill="#091F2F" d="M32.7 16.4c-9.1 0-16.6 7.4-16.6 16.6s7.4 16.6 16.6 16.6S49.3 42.1 49.3 33s-7.4-16.6-16.6-16.6zm13 15.6h-8.5l6-6c1.3 1.7 2.2 3 2.5 6zM35 20.1c2 .4 4.3 1.3 6.1 2.7l-6.1 6v-8.7zm-4-.1v8.8l-6.3-6.3c1.8-1.3 4.3-2.2 6.3-2.5zm-8.5 5.6l6.4 6.4h-9c.2-4 1.1-4.6 2.6-6.4zM19.8 35h9l-6.3 6.3c-1.4-1.8-2.4-4.3-2.7-6.3zM31 46c-2-.3-4.5-1.1-6.3-2.5l6.3-6.3V46zm0-12.7c0-1.3 1-2.3 2.3-2.3 1.3 0 2.3 1 2.3 2.3 0 1.3-1 2.3-2.3 2.3-1.3-.1-2.3-1.1-2.3-2.3zm4 12.6v-8.7l6 6c-1.7 1.4-4 2.4-6 2.7zm8.2-4.9l-6-6h8.5c-.3 1-1.2 4.3-2.5 6z"/>
</svg>
