<svg xmlns="http://www.w3.org/2000/svg" xmlns:xlink="http://www.w3.org/1999/xlink" viewBox="0 0 66 66">
    <defs>
        <circle id="a" cx="33" cy="33" r="31.4"/>
    </defs>
    <use class="svg-stroke-hover" xlink:href="#a" overflow="visible" fill-rule="evenodd" clip-rule="evenodd" fill="none" stroke="#091F2F" stroke-width="3" stroke-miterlimit="10"/>
    <g fill="#091F2F">
        <path d="M26.3 36l4.2-12.4L34 35.5l2-4.7 3 5.2h8c7.4-10.7 3.7-19.1-6.1-19.1-2.8 0-7 2.8-7.7 5.8-.3-2.5-3.4-4.3-5.6-5.2-3.1-1.3-7.1-.7-9.7 1.4-1.8 1.4-2.6 3.6-2.7 5.7-.2 4 1.8 8 4.3 11.4h6.8z"/>
        <path d="M37.2 39l-.8-1.4-2.9 6.9-3.2-10.9-1.8 5.4h-6.6c.1.1.2.3.4.4 10.9 12.3 10.9 12.4 10.9 12.4s.1 0 11-12.3c.2-.2.3-.4.5-.5h-7.5z"/>
    </g>
</svg>
