<?xml version="1.0" encoding="utf-8"?>
<!-- Generator: Adobe Illustrator 18.1.1, SVG Export Plug-In . SVG Version: 6.00 Build 0)  -->
<svg version="1.1" id="Layer_1" xmlns="http://www.w3.org/2000/svg" xmlns:xlink="http://www.w3.org/1999/xlink" x="0px" y="0px"
	 viewBox="0 0 66 66" enable-background="new 0 0 66 66" xml:space="preserve">
<g>
	<defs>
		<circle id="SVGID_1_" cx="33" cy="33" r="31.4"/>
	</defs>
	<clipPath id="SVGID_2_">
		<use xlink:href="#SVGID_1_"  overflow="visible"/>
	</clipPath>
	
		<use xlink:href="#SVGID_1_"  overflow="visible" fill-rule="evenodd" clip-rule="evenodd" fill="none" stroke="#091F2F" stroke-width="3" stroke-miterlimit="10"/>
</g>
<line fill="#FFFFFF" stroke="#091F2F" stroke-width="3" stroke-miterlimit="10" x1="32.7" y1="9.8" x2="32.7" y2="56.2"/>
<line fill="#FFFFFF" stroke="#091F2F" stroke-width="3" stroke-miterlimit="10" x1="57.3" y1="33" x2="8.2" y2="33"/>
<line fill="#FFFFFF" stroke="#091F2F" stroke-width="3" stroke-miterlimit="10" x1="45.8" y1="19.9" x2="19.6" y2="46.1"/>
<line fill="#FFFFFF" stroke="#091F2F" stroke-width="3" stroke-miterlimit="10" x1="45.8" y1="46.1" x2="19.6" y2="19.9"/>
<circle fill="#091F2F" stroke="#091F2F" stroke-miterlimit="10" cx="32.7" cy="31.8" r="9.9"/>
<polyline fill="none" stroke="#091F2F" stroke-width="3" stroke-miterlimit="10" points="27.2,12.2 32.6,18.1 38.5,12.5 "/>
<polyline fill="none" stroke="#091F2F" stroke-width="3" stroke-miterlimit="10" points="38.5,54.1 33.1,48.2 27.2,53.7 "/>
<polyline fill="none" stroke="#091F2F" stroke-width="3" stroke-miterlimit="10" points="10.2,38.8 16,33.4 10.5,27.5 "/>
<polyline fill="none" stroke="#091F2F" stroke-width="3" stroke-miterlimit="10" points="55.3,27.5 49.5,32.9 55,38.8 "/>
<polyline fill="none" stroke="#091F2F" stroke-width="3" stroke-miterlimit="10" points="12.5,20.6 20.4,21 20.7,12.9 "/>
<polyline fill="none" stroke="#091F2F" stroke-width="3" stroke-miterlimit="10" points="52.1,44.3 44.2,44 43.9,52 "/>
<polyline fill="none" stroke="#091F2F" stroke-width="3" stroke-miterlimit="10" points="44.6,13.3 44.2,21.3 52.3,21.5 "/>
<polyline fill="none" stroke="#091F2F" stroke-width="3" stroke-miterlimit="10" points="20.8,53 21.2,45 13.1,44.8 "/>
<text transform="matrix(1 0 0 1 27.2216 37.661)" fill="#FFFFFF" font-family="'Montserrat-Bold'" font-size="17.6243">P</text>
</svg>
