<?xml version="1.0" encoding="utf-8"?>
<!-- Generator: Adobe Illustrator 18.1.1, SVG Export Plug-In . SVG Version: 6.00 Build 0)  -->
<svg version="1.1" id="Layer_1" xmlns="http://www.w3.org/2000/svg" xmlns:xlink="http://www.w3.org/1999/xlink" x="0px" y="0px"
	 viewBox="0 0 66 66" enable-background="new 0 0 66 66" xml:space="preserve">
<g>
	<defs>
		<circle id="SVGID_63_" cx="33" cy="33" r="31.4"/>
	</defs>
	<clipPath id="SVGID_2_">
		<use xlink:href="#SVGID_63_"  overflow="visible"/>
	</clipPath>
	
		<use xlink:href="#SVGID_63_"  overflow="visible" fill-rule="evenodd" clip-rule="evenodd" fill="none" stroke="#091F2F" stroke-width="3" stroke-miterlimit="10"/>
</g>
<g>
</g>
<line fill="none" stroke="#091F2F" stroke-width="3" stroke-miterlimit="10" x1="45.2" y1="20.2" x2="37.9" y2="37"/>
<line fill="none" stroke="#091F2F" stroke-width="3" stroke-miterlimit="10" x1="20.6" y1="24.6" x2="23.5" y2="31.4"/>
<rect x="15.5" y="23.1" fill="#091F2F" width="12.5" height="2.9"/>
<line fill="none" stroke="#091F2F" stroke-width="3" stroke-miterlimit="10" x1="14" y1="49.5" x2="45" y2="49.5"/>
<polyline fill="none" stroke="#091F2F" stroke-width="3" stroke-miterlimit="10" points="40,20.5 47.3,20.5 50.7,16.1 "/>
<path fill="none" stroke="#091F2F" stroke-width="3" stroke-miterlimit="10" d="M39.6,38.7l-8.2-4.9c-2.5-1.4-5.1-2.3-7.9-2.1
	c-5.2,0.5-9.4,4.8-8.9,9.6c0.4,4.5,4.9,7.9,8.9,7.9v0l14,0c0,0,0.3,0,0.3,0c3.2-0.3,5.8-3,5.5-6C43.1,41.2,41.6,39.9,39.6,38.7z"/>
<circle fill="none" stroke="#091F2F" stroke-width="3" stroke-miterlimit="10" cx="24.8" cy="39.4" r="3.5"/>
<line fill="none" stroke="#091F2F" stroke-width="3" stroke-miterlimit="10" x1="24.5" y1="43" x2="24.5" y2="45"/>
<line fill="none" stroke="#091F2F" stroke-width="3" stroke-miterlimit="10" x1="23" y1="45.5" x2="29" y2="45.5"/>
<circle fill="#091F2F" cx="24.7" cy="39.4" r="1.3"/>
</svg>
