<svg xmlns="http://www.w3.org/2000/svg" xmlns:xlink="http://www.w3.org/1999/xlink" viewBox="0 0 66 66">
    <defs>
        <circle id="a" cx="33" cy="33" r="31.4"/>
    </defs>
    <use class="svg-stroke-hover" xlink:href="#a" overflow="visible" fill-rule="evenodd" clip-rule="evenodd" fill="none" stroke="#091F2F" stroke-width="3" stroke-miterlimit="10"/>
    <path class="svg-stroke-hover" fill="none" stroke="#091F2F" stroke-width="3" stroke-miterlimit="10" d="M29.2 37.7l20.8-18c1.7-1.7 1.9-4.4.4-5.9s-4.2-1.3-5.9.4l-17.8 21 2.5 2.5z"/>
    <path fill="#091F2F" d="M14.6 52l-2.4-2.4L24 35.8l4.6 4.5z"/>
    <path fill="#091F2F" d="M15.1 53l-4-4c-.4-.4-.4-.9 0-1.3s.9-.4 1.3 0l4 4c.4.4.4.9 0 1.3-.3.3-.9.3-1.3 0z"/>
    <circle class="svg-stroke-hover" fill="none" stroke="#091F2F" stroke-width="3" stroke-miterlimit="10" cx="45.5" cy="39.7" r="3.7"/>
</svg>
