<?xml version="1.0" encoding="utf-8"?>
<!-- Generator: Adobe Illustrator 18.1.1, SVG Export Plug-In . SVG Version: 6.00 Build 0)  -->
<svg version="1.1" id="Layer_1" xmlns="http://www.w3.org/2000/svg" xmlns:xlink="http://www.w3.org/1999/xlink" x="0px" y="0px"
	 viewBox="0 0 66 66" enable-background="new 0 0 66 66" xml:space="preserve">
<g>
	<defs>
		<circle id="SVGID_39_" cx="33" cy="33" r="31.4"/>
	</defs>
	<clipPath id="SVGID_2_">
		<use xlink:href="#SVGID_39_"  overflow="visible"/>
	</clipPath>
	
		<use xlink:href="#SVGID_39_"  overflow="visible" fill-rule="evenodd" clip-rule="evenodd" fill="none" stroke="#091F2F" stroke-width="3" stroke-miterlimit="10"/>
</g>
<g>
	<path fill="#091F2F" d="M26.3,36l4.2-12.4L34,35.5l2-4.7l3,5.2h8c7.4-10.7,3.7-19.1-6.1-19.1c-2.8,0-7,2.8-7.7,5.8
		c-0.3-2.5-3.4-4.3-5.6-5.2c-3.1-1.3-7.1-0.7-9.7,1.4c-1.8,1.4-2.6,3.6-2.7,5.7C15,28.6,17,32.6,19.5,36H26.3z"/>
	<path fill="#091F2F" d="M37.2,39l-0.8-1.4l-2.9,6.9l-3.2-10.9L28.5,39h-6.6c0.1,0.1,0.2,0.3,0.4,0.4c10.9,12.3,10.9,12.4,10.9,12.4
		s0.1,0,11-12.3c0.2-0.2,0.3-0.4,0.5-0.5H37.2z"/>
</g>
</svg>
