<svg xmlns="http://www.w3.org/2000/svg" xmlns:xlink="http://www.w3.org/1999/xlink" viewBox="0 0 66 66">
    <defs>
        <circle id="a" cx="33" cy="33" r="31.4"/>
    </defs>
    <use class="svg-stroke-hover" xlink:href="#a" overflow="visible" fill-rule="evenodd" clip-rule="evenodd" fill="none" stroke="#091F2F" stroke-width="3" stroke-miterlimit="10"/>
    <path fill="#091F2F" d="M52.2 45.1c-1.6.2-2.5 1.5-3.1 2.4-.6.9-.9 1.2-1.3 1.2s-.7-.3-1.3-1.2c-.7-1-1.7-2.4-3.7-2.4s-3 1.4-3.7 2.4c-.6.9-.9 1.2-1.3 1.2s-.7-.3-1.3-1.2c-.7-1-1.7-2.4-3.7-2.4s-3 1.4-3.7 2.4c-.6.9-.9 1.2-1.3 1.2s-.7-.3-1.3-1.2c-.7-1-1.7-2.4-3.7-2.4s-3 1.4-3.7 2.4c-.6.9-.9 1.2-1.3 1.2s-.7-.3-1.4-1.2c-.7-1-1.7-2.4-3.7-2.4v2.8c.5 0 .7.3 1.4 1.2.7 1 1.7 2.4 3.7 2.4s3-1.4 3.7-2.4c.6-.9.9-1.2 1.3-1.2s.7.3 1.3 1.2c.7 1 1.7 2.4 3.7 2.4s3-1.4 3.7-2.4c.6-.9.9-1.2 1.3-1.2s.7.3 1.3 1.2c.7 1 1.7 2.4 3.7 2.4s3-1.4 3.7-2.4c.6-.9.9-1.2 1.3-1.2s.7.3 1.3 1.2c.7 1 1.7 2.4 3.7 2.4s2.9-1.4 3.6-2.4c.4-.6.8-.9.8-1v-3zM19.3 36.7c-3.7 0-6.7 3-6.7 6.7h13.3c0-3.7-3-6.7-6.6-6.7zM39.2 36.7c-3.7 0-6.7 3-6.7 6.7h13.3c0-3.7-2.9-6.7-6.6-6.7z"/>
    <path fill="#091F2F" d="M47.4 37.8c-3.1 0-5.6 2.7-5.6 5.6H53c0-2.9-2.5-5.6-5.6-5.6z"/>
    <path fill="#091F2F" d="M30.4 31.7c-6.4 0-11.7 5.2-11.7 11.7H42c.1-6.5-5.2-11.7-11.6-11.7zM44.5 26.1c0 .1-.1.2-.1.2l3.8 1.2s0-.1.1-.2c1.7-5.4-.8-11.1-5.6-13.6 2.3 3.4 3.1 8 1.8 12.4zM38.2 13.5c-4.2 1.1-7 4-8.3 8.2 0 .1-.3.2-.3.2l5.6 1.7 3-10.1z"/>
    <path fill="#091F2F" d="M28.1 21.1c1.3-4.4 4.5-7.6 8.4-9.1-5.3-.4-10.3 2.8-11.9 8.1 0 .1-.1.2-.1.2l3.5 1.1c.1-.1.1-.2.1-.3zM42.8 25.9s-.2-.2-.2-.3c1.3-4.2.4-8.4-2.4-11.6l-3.1 10.2 5.7 1.7zM33.98 24.494l3.14 1.016-4.96 15.318-3.14-1.016z"/>
    <circle fill="#091F2F" cx="40.3" cy="11.3" r="1.2"/>
</svg>
