<svg xmlns="http://www.w3.org/2000/svg" xmlns:xlink="http://www.w3.org/1999/xlink" viewBox="0 0 66 66">
    <defs>
        <circle id="a" cx="33" cy="33" r="31.4"/>
    </defs>
    <use class="svg-stroke-hover"  xlink:href="#a" overflow="visible" fill-rule="evenodd" clip-rule="evenodd" fill="none" stroke="#091F2F" stroke-width="3" stroke-miterlimit="10"/>
    <path class="svg-stroke-hover" fill="none" stroke="#091F2F" stroke-width="3" stroke-miterlimit="10" d="M11.1 25.1l21.1-14.6 20.2 14.6"/>
    <path fill="#091F2E" d="M22.9 44.4c-.3-.9-2.2-7.8-2.7-9.5.1 0 .3-.1.4-.1.1.3.2.6.3 1 .4 1.3.7 2.6 1.1 3.9.6-.2 1.1-.3 1.7-.5-.3-1.1-.7-2.2-1-3.3-1.2-3.9-1.3-4-5.4-4-2 0-2.8.6-3.4 2.5-.5 1.7-1.1 3.4-1.7 5.1l1.8.6c0-.1.1-.1.1-.2.4-1.2.7-2.4 1-3.6.1-.5.3-1 .5-1.5.1 0 .2.1.3.1-.5 1.8-2.5 8.8-2.7 9.6h2.6V51.3h2V51v-5.5c0-.3.1-.6.1-1h.3c0 .4.1.7.1 1.1v5.7h1.9v-.8-6h2.7z"/>
    <path fill="#FFF" d="M20.4 51.4h-2.2v-.1-2.2-3.5c0-.2 0-.5-.1-.7v-.2H18v.2c0 .2-.1.4-.1.6v5.9h-2.2v-.1c-.1-1.3-.1-2.7 0-4v-2.7h-2.6l2.7-9.6h-.1c0 .1-.1.2-.1.3-.1.3-.2.7-.3 1-.2.5-.3 1.1-.5 1.6-.2.7-.4 1.4-.6 2 0 .1 0 .1-.1.2l-.1.2-.1-.1c-.5-.2-1.1-.5-1.7-.6h-.1v-.1c.2-.5.4-1.1.5-1.6.4-1.1.8-2.3 1.1-3.5.6-2 1.4-2.6 3.5-2.6h.6c3.6 0 3.8.3 5 4.1.1.4.3.9.4 1.3l.6 2.1v.1h-.1c-.6.2-1.2.4-1.7.5h-.1v-.1c-.3-.8-.5-1.7-.7-2.5-.1-.5-.3-1-.4-1.5-.1-.2-.1-.4-.2-.7 0-.1 0-.1-.1-.2h-.2l2.7 9.5h-2.7v6.8l.1.2zm-1.9-.3h1.7v-6.9h2.6L20 34.8l.6-.2v.1c0 .1.1.2.1.3.1.2.2.4.2.7.1.5.3 1 .4 1.5.2.8.4 1.6.7 2.3.4-.1.9-.3 1.4-.5-.2-.6-.4-1.3-.6-1.9-.1-.4-.3-.9-.4-1.3-1.1-3.6-1.2-3.9-4.7-3.9h-.6c-1.9 0-2.6.5-3.2 2.4-.4 1.2-.8 2.4-1.1 3.5-.2.5-.3 1-.5 1.5.5.2 1.1.4 1.5.6v-.1c.2-.7.4-1.3.6-2 .2-.5.3-1.1.5-1.6.1-.3.2-.7.3-1 .1-.2.1-.3.2-.5v-.1l.6.2v.1l-2.6 9.4h2.5v6.8h1.7v-2-3.7c0-.2 0-.5.1-.7v-.4h.6v.4c0 .2.1.5.1.8V49c.1.8.1 1.4.1 2.1z"/>
    <path fill="#091F2E" d="M34.2 36.4v-1.2h.4c0 .3.1.7.1 1v4.3h1.7c.1-1.9.1-3.9 0-5.8 0-1.6-1.2-2.7-2.8-2.7h-3.9c-1.9 0-2.9 1-3 2.9v5.7h1.8V36c0-.3.1-.5.1-.8h.3V51.1h2.4v-.5V43c0-.3 0-.7.1-1h.3v9.1h2.5v-.6-14.1z"/>
    <path fill="#FFF" d="M34.4 51.2h-2.8v-.1-.3-.3-8.3V51.2h-2.7v-.1-.3-.3-15.2h-.1v.1c0 .2-.1.4-.1.5v4.6h-2.1v-.1V39v-4.4c0-2 1.1-3 3.1-3H33.6c1.7 0 2.8 1.2 2.9 2.9.1 2.1 0 4 0 5.8v.1h-2v-.1V36v-.7-.2h-.1v16.1zm-2.5-.2h2.2v-.1-.3-15.5h.6V40.3h1.5c.1-1.7.1-3.6 0-5.7 0-1.5-1.1-2.6-2.6-2.6H29.7c-1.9 0-2.8 1-2.9 2.8V40.4h1.6v-1.9V36c0-.2 0-.4.1-.6V35l.6.1V50.9h2.1v-.1-.3-4.2-3.4-.7-.4h.5v8.9c.2.2.2.2.2.3z"/>
    <circle fill="#091F2E" cx="17.9" cy="29.4" r="2"/>
    <path fill="#091F2E" d="M50.8 44.4c-.3-.9-2.2-7.8-2.7-9.5.1 0 .3-.1.4-.1.1.3.2.6.3 1 .4 1.3.7 2.6 1.1 3.9.6-.2 1.1-.3 1.7-.5-.3-1.1-.7-2.2-1-3.3-1.2-3.9-1.3-4-5.4-4-2 0-2.8.6-3.4 2.5-.5 1.7-1.1 3.4-1.7 5.1l1.8.6c0-.1.1-.1.1-.2.4-1.2.7-2.4 1-3.6.1-.5.3-1 .5-1.5.1 0 .2.1.3.1-.5 1.8-2.5 8.8-2.7 9.6h2.6V51.3h2V51v-5.5c0-.3.1-.6.1-1h.3c0 .4.1.7.1 1.1v5.7h1.9v-.8-6h2.7z"/>
    <path fill="#FFF" d="M48.3 51.4h-2.2v-.1-2.2-3.5c0-.2 0-.5-.1-.7v-.2h-.1v.2c0 .2-.1.4-.1.6v5.9h-2.2v-.1c-.1-1.3-.1-2.7 0-4v-2.7H41l2.7-9.6h-.1c0 .1-.1.2-.1.3-.1.3-.2.7-.3 1-.2.5-.3 1.1-.5 1.6-.2.7-.4 1.4-.6 2 0 .1 0 .1-.1.2v.2l-.1-.1c-.5-.2-1.1-.5-1.7-.6h-.1v-.1c.2-.5.4-1.1.5-1.6.4-1.1.8-2.3 1.1-3.5.6-2 1.4-2.6 3.5-2.6h.6c3.6 0 3.8.3 5 4.1.1.4.3.9.4 1.3l.6 2.1v.1h-.1c-.6.2-1.2.4-1.7.5h-.1v-.1c-.3-.8-.5-1.7-.7-2.5-.1-.5-.3-1-.4-1.5-.1-.2-.1-.4-.2-.7 0-.1 0-.1-.1-.2h-.2l2.7 9.5h-2.7v7zm-1.9-.3h1.7v-6.9h2.6L48 34.8l.6-.2v.1c0 .1.1.2.1.3.1.2.2.4.2.7.1.5.3 1 .4 1.5.2.8.4 1.6.7 2.3.4-.1.9-.3 1.4-.5-.2-.6-.4-1.3-.6-1.9-.1-.4-.3-.9-.4-1.3-1.1-3.6-1.2-3.9-4.7-3.9h-.6c-1.9 0-2.6.5-3.2 2.4-.4 1.2-.8 2.4-1.1 3.5-.2.5-.3 1-.5 1.5.5.2 1.1.4 1.5.6v-.1c.2-.7.4-1.3.6-2 .2-.5.3-1.1.5-1.6.1-.3.2-.7.3-1 .1-.2.1-.3.2-.5v-.1l.6.2v.1l-2.6 9.4h2.5v6.8h1.7v-2-3.7c0-.2 0-.5.1-.7v-.4h.6v.4c0 .2.1.5.1.8v5.6z"/>
    <circle fill="#091F2E" cx="45.8" cy="29.4" r="2"/>
    <circle fill="#091F2E" cx="31.9" cy="29.4" r="2"/>
    <g>
        <defs>
            <path id="b" d="M28.5 106.7v5.9h4.3c2.1 0 4.7-.1 4.7-2.9 0-2.9-2.4-3-3.7-3h-5.3zm0-9.5v5.1h4.6c1.4 0 3.6-.1 3.6-2.6 0-2.4-2.1-2.5-3.2-2.5h-5zm-5.8-4.6h9.5c2.6 0 4.9.1 6.4.6 3 1 4.2 3.4 4.2 5.7 0 1.3-.3 2.1-.5 2.4-1.1 2.5-3.5 3-4.8 3.3 1.5.2 3.5.6 4.8 2.1.9.9 1.4 2.3 1.4 3.7 0 1.9-1 4.6-4.1 5.9-1.8.8-3.8.9-6.6.9H22.7V92.6z"/>
        </defs>
        <use xlink:href="#b" overflow="visible" fill-rule="evenodd" clip-rule="evenodd" fill="#091F2E"/>
        <clipPath id="c">
            <use xlink:href="#b" overflow="visible"/>
        </clipPath>
        <g clip-path="url(#c)">
            <defs>
                <path id="d" d="M-9.6 62.8h167.8v243.5H-9.6z"/>
            </defs>
            <use xlink:href="#d" overflow="visible" fill="#091F2E"/>
        </g>
        <g>
            <defs>
                <path id="e" d="M22.7 120.6h21v4.8h-21z"/>
            </defs>
            <use xlink:href="#e" overflow="visible" fill-rule="evenodd" clip-rule="evenodd" fill="#091F2E"/>
            <clipPath id="f">
                <use xlink:href="#e" overflow="visible"/>
            </clipPath>
            <g clip-path="url(#f)">
                <defs>
                    <path id="g" d="M-9.7 62.6H159v244.7H-9.7z"/>
                </defs>
                <use xlink:href="#g" overflow="visible" fill="#091F2E"/>
            </g>
        </g>
    </g>
</svg>
