<svg xmlns="http://www.w3.org/2000/svg" xmlns:xlink="http://www.w3.org/1999/xlink" viewBox="0 0 66 66">
  <defs>
    <circle id="a" cx="33" cy="33" r="31.4"/>
  </defs>
  <use class="svg-stroke-hover" xlink:href="#a" overflow="visible" fill-rule="evenodd" clip-rule="evenodd" fill="none" stroke="#091F2F" stroke-width="3" stroke-miterlimit="10"/>
  <defs>
    <path id="b" d="M28.5-197.3v5.9h4.3c2.1 0 4.7-.1 4.7-2.9 0-2.9-2.4-3-3.7-3h-5.3zm0-9.5v5.1h4.6c1.4 0 3.6-.1 3.6-2.6 0-2.4-2.1-2.5-3.2-2.5h-5zm-5.8-4.6h9.5c2.6 0 4.9.1 6.4.6 3 1 4.2 3.4 4.2 5.7 0 1.3-.3 2.1-.5 2.4-1.1 2.5-3.5 3-4.8 3.3 1.5.2 3.5.6 4.8 2.1.9.9 1.4 2.3 1.4 3.7 0 1.9-1 4.6-4.1 5.9-1.8.8-3.8.9-6.6.9H22.7v-24.6z"/>
  </defs>
  <use class="svg-fill-hover" xlink:href="#b" overflow="visible" fill-rule="evenodd" clip-rule="evenodd" fill="#091F2E"/>
  <clipPath id="c">
    <use xlink:href="#b" overflow="visible"/>
  </clipPath>
  <g clip-path="url(#c)">
    <defs>
      <path id="d" d="M-9.6-241.2h167.8V2.3H-9.6z"/>
    </defs>
    <use class="svg-fill-hover" xlink:href="#d" overflow="visible" fill="#091F2E"/>
  </g>
  <defs>
    <path id="e" d="M22.7-183.4h21v4.8h-21z"/>
  </defs>
  <use class="svg-fill-hover" xlink:href="#e" overflow="visible" fill-rule="evenodd" clip-rule="evenodd" fill="#091F2E"/>
  <clipPath id="f">
    <use xlink:href="#e" overflow="visible"/>
  </clipPath>
  <g clip-path="url(#f)">
    <defs>
      <path id="g" d="M-9.7-241.4H159V3.3H-9.7z"/>
    </defs>
    <use class="svg-fill-hover" xlink:href="#g" overflow="visible" fill="#091F2E"/>
  </g>
  <path class="svg-stroke-hover" fill="none" stroke="#091F2F" stroke-width="3" stroke-miterlimit="10" d="M17.2 19.8l6.4-8.8 6.5 8.8zM17.2 48.9V21.2l3.4-1.4H27l3.2 2v27.7M16.9 36.7h13.4M16.9 31.3h13.4M16.9 25.9h13.4M30.3 30.5s7 12.8 23.1 12.2M30.1 37.1s7.2 9.8 23.3 9.8M40.2 45.1v4.3"/>
</svg>
