<svg xmlns="http://www.w3.org/2000/svg" xmlns:xlink="http://www.w3.org/1999/xlink" viewBox="0 0 66 66">
    <defs>
        <circle id="a" cx="33" cy="33" r="31.4"/>
    </defs>
    <use class="svg-stroke-hover" xlink:href="#a" overflow="visible" fill-rule="evenodd" clip-rule="evenodd" fill="none" stroke="#091F2F" stroke-width="3" stroke-miterlimit="10"/>
    <g class="svg-fill-hover" fill="#091F2F">
        <path d="M40.4 16.6c-1.2 1.5-1.9 3.4-1.9 5.5 0 4.8 3.9 8.7 8.7 8.7 1.6 0 3.2-.5 4.5-1.2-7.8-2.9-10.5-10.2-11.3-13zM54.1 27.4c1.1-1.5 1.8-3.3 1.8-5.3 0-4.8-3.9-8.7-8.7-8.7-1.5 0-2.9.4-4.1 1 .5 2.1 3 10.1 11 13z"/>
    </g>
    <path class="svg-stroke-hover" fill="none" stroke="#091F2F" stroke-width="3" stroke-miterlimit="10" d="M36.4 24.7s.9 5.6 6.9 8l-25 14.9s-4.8 0-4.1-5.2l22.2-17.7zM14.8 46l-4.3 3"/>
    <path class="svg-stroke-hover" fill="none" stroke="#091F2F" stroke-width="3" stroke-miterlimit="10" d="M28.5 64.1V41.5l4.5-2.7v24.9"/>
</svg>
