<?xml version="1.0" encoding="utf-8"?>
<!-- Generator: Adobe Illustrator 18.1.1, SVG Export Plug-In . SVG Version: 6.00 Build 0)  -->
<svg version="1.1" id="Layer_1" xmlns="http://www.w3.org/2000/svg" xmlns:xlink="http://www.w3.org/1999/xlink" x="0px" y="0px"
	 viewBox="0 0 66 66" enable-background="new 0 0 66 66" xml:space="preserve">
<g>
	<defs>
		<circle id="SVGID_101_" cx="33" cy="33" r="31.4"/>
	</defs>
	<clipPath id="SVGID_2_">
		<use xlink:href="#SVGID_101_"  overflow="visible"/>
	</clipPath>
	
		<use xlink:href="#SVGID_101_"  overflow="visible" fill-rule="evenodd" clip-rule="evenodd" fill="none" stroke="#091F2F" stroke-width="3" stroke-miterlimit="10"/>
</g>
<line fill="none" stroke="#091F2F" stroke-width="3" stroke-miterlimit="10" x1="20.3" y1="26.6" x2="18.3" y2="49.9"/>
<line fill="none" stroke="#091F2F" stroke-width="3" stroke-miterlimit="10" x1="46.5" y1="26.6" x2="48.5" y2="49.9"/>
<rect x="13.5" y="20.2" fill="#FFFFFF" stroke="#091F2F" stroke-width="3" stroke-miterlimit="10" width="39.2" height="5.7"/>
<rect x="13.5" y="30.9" fill="#FFFFFF" stroke="#091F2F" stroke-width="3" stroke-miterlimit="10" width="39.2" height="5.7"/>
<line fill="none" stroke="#091F2F" stroke-width="3" stroke-miterlimit="10" x1="20.3" y1="43" x2="46.5" y2="43"/>
<line fill="none" stroke="#091F2F" stroke-width="3" stroke-miterlimit="10" x1="19.9" y1="20.5" x2="16.3" y2="25.5"/>
<line fill="none" stroke="#091F2F" stroke-width="3" stroke-miterlimit="10" x1="25.9" y1="20.5" x2="22.3" y2="25.5"/>
<line fill="none" stroke="#091F2F" stroke-width="3" stroke-miterlimit="10" x1="31.9" y1="20.5" x2="28.2" y2="25.5"/>
<line fill="none" stroke="#091F2F" stroke-width="3" stroke-miterlimit="10" x1="37.8" y1="20.5" x2="34.2" y2="25.5"/>
<line fill="none" stroke="#091F2F" stroke-width="3" stroke-miterlimit="10" x1="43.8" y1="20.5" x2="40.2" y2="25.5"/>
<line fill="none" stroke="#091F2F" stroke-width="3" stroke-miterlimit="10" x1="49.8" y1="20.5" x2="46.2" y2="25.5"/>
<line fill="none" stroke="#091F2F" stroke-width="3" stroke-miterlimit="10" x1="19.9" y1="31.2" x2="16.3" y2="36.2"/>
<line fill="none" stroke="#091F2F" stroke-width="3" stroke-miterlimit="10" x1="25.9" y1="31.2" x2="22.3" y2="36.2"/>
<line fill="none" stroke="#091F2F" stroke-width="3" stroke-miterlimit="10" x1="31.9" y1="31.2" x2="28.2" y2="36.2"/>
<line fill="none" stroke="#091F2F" stroke-width="3" stroke-miterlimit="10" x1="37.8" y1="31.2" x2="34.2" y2="36.2"/>
<line fill="none" stroke="#091F2F" stroke-width="3" stroke-miterlimit="10" x1="43.8" y1="31.2" x2="40.2" y2="36.2"/>
<line fill="none" stroke="#091F2F" stroke-width="3" stroke-miterlimit="10" x1="49.8" y1="31.2" x2="46.2" y2="36.2"/>
</svg>
