<?xml version="1.0" encoding="utf-8"?>
<!-- Generator: Adobe Illustrator 18.1.1, SVG Export Plug-In . SVG Version: 6.00 Build 0)  -->
<svg version="1.1" id="Layer_1" xmlns="http://www.w3.org/2000/svg" xmlns:xlink="http://www.w3.org/1999/xlink" x="0px" y="0px"
	 viewBox="0 0 66 66" enable-background="new 0 0 66 66" xml:space="preserve">
<g>
	<defs>
		<circle id="SVGID_75_" cx="33" cy="33" r="31.4"/>
	</defs>
	<clipPath id="SVGID_2_">
		<use xlink:href="#SVGID_75_"  overflow="visible"/>
	</clipPath>
	
		<use xlink:href="#SVGID_75_"  overflow="visible" fill-rule="evenodd" clip-rule="evenodd" fill="none" stroke="#091F2F" stroke-width="3" stroke-miterlimit="10"/>
</g>
<path fill-rule="evenodd" clip-rule="evenodd" fill="none" stroke="#091F2F" stroke-width="3" stroke-miterlimit="10" d="M38.5,19.2
	c-2.2-0.2-4.4,0.5-6.2,1.8c-1.9-1.3-4-2-6.2-1.8c-6,0.6-10.2,7.2-9.5,14.9S22.7,47.5,28.7,47c1.3-0.1,2.5-0.5,3.6-1.2
	c1.1,0.6,2.3,1.1,3.6,1.2c6,0.6,11.4-5.2,12.1-12.9S44.4,19.8,38.5,19.2z"/>
<path fill-rule="evenodd" clip-rule="evenodd" fill="#091F2F" d="M31.7,21c-0.1-8,4.7-10,4.7-10l0.7,1.9c0,0-4.7,2.1-4.7,8.1H31.7z"
	/>
</svg>
