<?xml version="1.0" encoding="utf-8"?>
<!-- Generator: Adobe Illustrator 18.1.1, SVG Export Plug-In . SVG Version: 6.00 Build 0)  -->
<svg version="1.1" id="Layer_1" xmlns="http://www.w3.org/2000/svg" xmlns:xlink="http://www.w3.org/1999/xlink" x="0px" y="0px"
	 viewBox="0 0 66 66" enable-background="new 0 0 66 66" xml:space="preserve">
<g>
	<defs>
		<circle id="SVGID_49_" cx="33" cy="33" r="31.4"/>
	</defs>
	<clipPath id="SVGID_2_">
		<use xlink:href="#SVGID_49_"  overflow="visible"/>
	</clipPath>
	
		<use xlink:href="#SVGID_49_"  overflow="visible" fill-rule="evenodd" clip-rule="evenodd" fill="none" stroke="#091F2F" stroke-width="3" stroke-miterlimit="10"/>
</g>
<g>
</g>
<path fill="#091F2F" d="M29.1,35.5C29.2,33.6,32,30,32,30s2.6,3.8,2.5,5.7c-0.1,1.9-1.3,3.4-2.8,3.3S29.1,37.4,29.1,35.5z"/>
<path fill="#091F2F" d="M29.1,46.9c0.1-1.9,2.9-5.5,2.9-5.5s2.6,3.8,2.5,5.7c-0.1,1.9-1.3,3.4-2.8,3.3S29.1,48.8,29.1,46.9z"/>
<path fill="#091F2F" d="M37.2,35.5c0.1-1.9,2.9-5.5,2.9-5.5s2.6,3.8,2.5,5.7c-0.1,1.9-1.3,3.4-2.8,3.3S37.2,37.4,37.2,35.5z"/>
<path fill="#091F2F" d="M37.2,46.9c0.1-1.9,2.9-5.5,2.9-5.5s2.6,3.8,2.5,5.7c-0.1,1.9-1.3,3.4-2.8,3.3S37.2,48.8,37.2,46.9z"/>
<path fill="#091F2F" d="M45.1,35.5C45.2,33.6,48,30,48,30s2.6,3.8,2.5,5.7c-0.1,1.9-1.3,3.4-2.8,3.3S45.1,37.4,45.1,35.5z"/>
<path fill="#091F2F" d="M45.1,46.9c0.1-1.9,2.9-5.5,2.9-5.5s2.6,3.8,2.5,5.7c-0.1,1.9-1.3,3.4-2.8,3.3S45.1,48.8,45.1,46.9z"/>
<path fill="none" stroke="#091F2F" stroke-width="3" stroke-miterlimit="10" d="M39.7,24.5c0,0,0.9-11.3-12.1-11.3
	c-13.3,0-12.1,11.5-12.1,11.5V59"/>
<path fill="#091F2F" d="M52.9,28.5c-2.6-3.7-7.5-6.2-13-6.2c-5.5,0-10.4,2.5-13,6.2H52.9z"/>
</svg>
