<svg xmlns="http://www.w3.org/2000/svg" xmlns:xlink="http://www.w3.org/1999/xlink" viewBox="0 0 66 66">
  <defs>
    <circle id="a" cx="33" cy="33" r="31.4"/>
  </defs>
  <use class="svg-stroke-hover" xlink:href="#a" overflow="visible" fill-rule="evenodd" clip-rule="evenodd" fill="none" stroke="#091F2F" stroke-width="3" stroke-miterlimit="10"/>
  <g>
    <path class="svg-stroke-hover" fill="#FFF" stroke="#091F2F" stroke-width="3" stroke-miterlimit="10" d="M56.4 34.3c0 2.1-10.5 13.1-23.4 13.1S9.6 36.9 9.6 34.3 20.1 21.2 33 21.2s23.4 11 23.4 13.1zM9.6 34.3h46.8"/>
    <g class="svg-fill-hover" fill="#091F2F">
      <path d="M23.2 28.4c.5 0 1-.4 1-1v-4.5c-.7.2-1.3.5-2 .8v3.7c0 .6.5 1 1 1zM28.1 28.4c.5 0 1-.4 1-1v-5.8c-.7.1-1.3.3-2 .4v5.4c0 .6.5 1 1 1zM33 28.4c.5 0 1-.4 1-1v-6.2h-2v6.1c0 .7.5 1.1 1 1.1zM37.9 28.4c.5 0 1-.4 1-1v-5.5c-.7-.2-1.3-.3-2-.4v5.9c0 .6.4 1 1 1zM42.8 28.4c.5 0 1-.4 1-1v-3.9c-.6-.3-1.3-.5-2-.8v4.7c0 .6.4 1 1 1z"/>
    </g>
  </g>
</svg>
