<?xml version="1.0" encoding="utf-8"?>
<!-- Generator: Adobe Illustrator 18.1.1, SVG Export Plug-In . SVG Version: 6.00 Build 0)  -->
<svg version="1.1" id="Layer_1" xmlns="http://www.w3.org/2000/svg" xmlns:xlink="http://www.w3.org/1999/xlink" x="0px" y="0px"
	 viewBox="0 0 66 66" enable-background="new 0 0 66 66" xml:space="preserve">
<g>
	<defs>
		<circle id="SVGID_65_" cx="33" cy="33" r="31.4"/>
	</defs>
	<clipPath id="SVGID_2_">
		<use xlink:href="#SVGID_65_"  overflow="visible"/>
	</clipPath>
	
		<use xlink:href="#SVGID_65_"  overflow="visible" fill-rule="evenodd" clip-rule="evenodd" fill="none" stroke="#091F2F" stroke-width="3" stroke-miterlimit="10"/>
</g>
<g>
</g>
<path fill="none" stroke="#091F2F" stroke-width="3" stroke-miterlimit="10" d="M29.2,37.7l20.8-18c1.7-1.7,1.9-4.4,0.4-5.9
	c-1.5-1.5-4.2-1.3-5.9,0.4L26.7,35.2L29.2,37.7z"/>
<g>
	<polygon fill="#091F2F" points="14.6,52 12.2,49.6 24,35.8 28.6,40.3 	"/>
</g>
<g>
	<path fill="#091F2F" d="M15.1,53l-4-4c-0.4-0.4-0.4-0.9,0-1.3h0c0.4-0.4,0.9-0.4,1.3,0l4,4c0.4,0.4,0.4,0.9,0,1.3h0
		C16.1,53.3,15.5,53.3,15.1,53z"/>
</g>
<circle fill="none" stroke="#091F2F" stroke-width="3" stroke-miterlimit="10" cx="45.5" cy="39.7" r="3.7"/>
</svg>
