<?xml version="1.0" encoding="utf-8"?>
<!-- Generator: Adobe Illustrator 18.1.1, SVG Export Plug-In . SVG Version: 6.00 Build 0)  -->
<svg version="1.1" id="Layer_1" xmlns="http://www.w3.org/2000/svg" xmlns:xlink="http://www.w3.org/1999/xlink" x="0px" y="0px"
	 viewBox="0 0 66 66" enable-background="new 0 0 66 66" xml:space="preserve">
<g>
	<defs>
		<circle id="SVGID_21_" cx="33" cy="33" r="31.4"/>
	</defs>
	<clipPath id="SVGID_2_">
		<use xlink:href="#SVGID_21_"  overflow="visible"/>
	</clipPath>
	
		<use xlink:href="#SVGID_21_"  overflow="visible" fill-rule="evenodd" clip-rule="evenodd" fill="none" stroke="#091F2F" stroke-width="3" stroke-miterlimit="10"/>
</g>
<path fill="#091F2F" d="M52.2,45.1c-1.6,0.2-2.5,1.5-3.1,2.4c-0.6,0.9-0.9,1.2-1.3,1.2c-0.4,0-0.7-0.3-1.3-1.2
	c-0.7-1-1.7-2.4-3.7-2.4c-2,0-3,1.4-3.7,2.4c-0.6,0.9-0.9,1.2-1.3,1.2c-0.4,0-0.7-0.3-1.3-1.2c-0.7-1-1.7-2.4-3.7-2.4
	c-2,0-3,1.4-3.7,2.4c-0.6,0.9-0.9,1.2-1.3,1.2s-0.7-0.3-1.3-1.2c-0.7-1-1.7-2.4-3.7-2.4c-2,0-3,1.4-3.7,2.4
	c-0.6,0.9-0.9,1.2-1.3,1.2c-0.4,0-0.7-0.3-1.4-1.2c-0.7-1-1.7-2.4-3.7-2.4v2.8c0.5,0,0.7,0.3,1.4,1.2c0.7,1,1.7,2.4,3.7,2.4
	c2,0,3-1.4,3.7-2.4c0.6-0.9,0.9-1.2,1.3-1.2c0.4,0,0.7,0.3,1.3,1.2c0.7,1,1.7,2.4,3.7,2.4s3-1.4,3.7-2.4c0.6-0.9,0.9-1.2,1.3-1.2
	c0.4,0,0.7,0.3,1.3,1.2c0.7,1,1.7,2.4,3.7,2.4c2,0,3-1.4,3.7-2.4c0.6-0.9,0.9-1.2,1.3-1.2c0.4,0,0.7,0.3,1.3,1.2
	c0.7,1,1.7,2.4,3.7,2.4c2,0,2.9-1.4,3.6-2.4c0.4-0.6,0.8-0.9,0.8-1V45.1z"/>
<path fill="#091F2F" d="M19.3,36.7c-3.7,0-6.7,3-6.7,6.7h13.3C25.9,39.7,22.9,36.7,19.3,36.7z"/>
<path fill="#091F2F" d="M39.2,36.7c-3.7,0-6.7,3-6.7,6.7h13.3C45.8,39.7,42.9,36.7,39.2,36.7z"/>
<path fill="#091F2F" d="M47.4,37.8c-3.1,0-5.6,2.7-5.6,5.6H53C53,40.5,50.5,37.8,47.4,37.8z"/>
<path fill="#091F2F" d="M30.4,31.7c-6.4,0-11.7,5.2-11.7,11.7h23.3C42.1,36.9,36.8,31.7,30.4,31.7z"/>
<path fill="#091F2F" d="M44.5,26.1c0,0.1-0.1,0.2-0.1,0.2l3.8,1.2c0,0,0-0.1,0.1-0.2c1.7-5.4-0.8-11.1-5.6-13.6
	C45,17.1,45.8,21.7,44.5,26.1z"/>
<path fill="#091F2F" d="M38.2,13.5c-4.2,1.1-7,4-8.3,8.2c0,0.1-0.3,0.2-0.3,0.2l5.6,1.7L38.2,13.5z"/>
<path fill="#091F2F" d="M28.1,21.1c1.3-4.4,4.5-7.6,8.4-9.1c-5.3-0.4-10.3,2.8-11.9,8.1c0,0.1-0.1,0.2-0.1,0.2l3.5,1.1
	C28.1,21.3,28.1,21.2,28.1,21.1z"/>
<path fill="#091F2F" d="M42.8,25.9c0,0-0.2-0.2-0.2-0.3c1.3-4.2,0.4-8.4-2.4-11.6l-3.1,10.2L42.8,25.9z"/>
<rect x="31.4" y="24.6" transform="matrix(0.9514 0.308 -0.308 0.9514 11.6824 -8.5816)" fill="#091F2F" width="3.3" height="16.1"/>
<circle fill="#091F2F" cx="40.3" cy="11.3" r="1.2"/>
</svg>
