<?xml version="1.0" encoding="utf-8"?>
<!-- Generator: Adobe Illustrator 18.1.1, SVG Export Plug-In . SVG Version: 6.00 Build 0)  -->
<svg version="1.1" id="Layer_1" xmlns="http://www.w3.org/2000/svg" xmlns:xlink="http://www.w3.org/1999/xlink" x="0px" y="0px"
	 viewBox="0 0 66 66" enable-background="new 0 0 66 66" xml:space="preserve">
<g>
	<defs>
		<circle id="SVGID_99_" cx="33" cy="33" r="31.4"/>
	</defs>
	<clipPath id="SVGID_2_">
		<use xlink:href="#SVGID_99_"  overflow="visible"/>
	</clipPath>
	
		<use xlink:href="#SVGID_99_"  overflow="visible" fill-rule="evenodd" clip-rule="evenodd" fill="none" stroke="#091F2F" stroke-width="3" stroke-miterlimit="10"/>
</g>
<polygon fill="none" stroke="#091F2F" stroke-width="3" stroke-miterlimit="10" points="41.1,31.8 41.1,20.2 29.1,20.2 29.1,18.2 
	25.1,18.2 25.1,20.2 21.8,20.2 21.8,49.2 30.2,49.2 41.1,49.2 49.5,49.2 49.5,31.8 "/>
<rect x="25.1" y="41.9" fill="#091F2F" width="4" height="4"/>
<rect x="34" y="41.9" fill="#091F2F" width="4" height="4"/>
<rect x="42.9" y="41.9" fill="#091F2F" width="4" height="4"/>
<rect x="25.1" y="35.9" fill="#091F2F" width="4" height="4"/>
<rect x="34" y="35.9" fill="#091F2F" width="4" height="4"/>
<rect x="42.9" y="35.9" fill="#091F2F" width="4" height="4"/>
<rect x="25.1" y="29.8" fill="#091F2F" width="4" height="4"/>
<rect x="34" y="29.8" fill="#091F2F" width="4" height="4"/>
<rect x="25.1" y="23.8" fill="#091F2F" width="4" height="4"/>
<rect x="34" y="23.8" fill="#091F2F" width="4" height="4"/>
<line fill="none" stroke="#091F2F" stroke-width="3" stroke-miterlimit="10" x1="10.3" y1="10.7" x2="55.7" y2="55.2"/>
</svg>
