<?xml version="1.0" encoding="utf-8"?>
<!-- Generator: Adobe Illustrator 18.1.1, SVG Export Plug-In . SVG Version: 6.00 Build 0)  -->
<svg version="1.1" id="Layer_1" xmlns="http://www.w3.org/2000/svg" xmlns:xlink="http://www.w3.org/1999/xlink" x="0px" y="0px"
	 viewBox="0 0 66 66" enable-background="new 0 0 66 66" xml:space="preserve">
<g>
	<defs>
		<circle id="SVGID_111_" cx="33" cy="33" r="31.4"/>
	</defs>
	<clipPath id="SVGID_2_">
		<use xlink:href="#SVGID_111_"  overflow="visible"/>
	</clipPath>
	
		<use xlink:href="#SVGID_111_"  overflow="visible" fill-rule="evenodd" clip-rule="evenodd" fill="none" stroke="#091F2F" stroke-width="3" stroke-miterlimit="10"/>
</g>
<g>
	<polygon fill="#091F2F" points="29.2,56.9 26.1,56.8 25.6,40.6 29.5,40.7 	"/>
</g>
<rect x="25.4" y="24" fill="#091F2F" width="9.7" height="15.6"/>
<circle fill="#091F2F" cx="30.2" cy="17.3" r="3.9"/>
<polyline fill="none" stroke="#091F2F" stroke-width="3" stroke-miterlimit="10" points="44.6,24.7 25.5,23.9 20.1,27.9 25.4,34.3 
	"/>
<g>
	<path fill="#091F2F" d="M44,48.9l-3.1,0l-0.4-8.8l-8.1-0.5l0.4-4l8.3,0.8c0,0,2.8,0.3,3,2.9C44.1,40.9,44,48.9,44,48.9z"/>
</g>
<path fill="#091F2F" d="M30.6,18.9h-1.4c-1.5,0-2.8-1.2-2.8-2.8V9.8c0-1.5,1.2-2.8,2.8-2.8h1.4c1.5,0,2.8,1.2,2.8,2.8v6.4
	C33.3,17.7,32.1,18.9,30.6,18.9z"/>
<polygon fill="#091F2F" points="32.9,13.7 35.1,15.6 32.4,15.6 "/>
<line fill="none" stroke="#091F2F" stroke-width="2" stroke-miterlimit="10" x1="43.2" y1="11.8" x2="46.1" y2="33.3"/>
<circle fill="#091F2F" cx="43.2" cy="12.5" r="2.1"/>
<circle fill="#091F2F" cx="46.1" cy="33.3" r="2.1"/>
</svg>
