<?xml version="1.0" encoding="utf-8"?>
<!-- Generator: Adobe Illustrator 18.1.1, SVG Export Plug-In . SVG Version: 6.00 Build 0)  -->
<svg version="1.1" id="Layer_1" xmlns="http://www.w3.org/2000/svg" xmlns:xlink="http://www.w3.org/1999/xlink" x="0px" y="0px"
	 viewBox="0 0 66 66" enable-background="new 0 0 66 66" xml:space="preserve">
<g>
	<defs>
		<circle id="SVGID_7_" cx="33" cy="33" r="31.4"/>
	</defs>
	<clipPath id="SVGID_2_">
		<use xlink:href="#SVGID_7_"  overflow="visible"/>
	</clipPath>
	
		<use xlink:href="#SVGID_7_"  overflow="visible" fill-rule="evenodd" clip-rule="evenodd" fill="none" stroke="#091F2F" stroke-width="3" stroke-miterlimit="10"/>
</g>
<g>
	<path fill="#091F2F" d="M47.6,48.7c-0.6,0.8-0.6,1.1-1,1.1c-0.4,0-0.5-0.2-1.1-1.1c-0.6-0.9-1.4-2.1-3.2-2.1
		c-1.8,0-2.6,1.3-3.2,2.1c-0.6,0.8-0.8,1.1-1.2,1.1c-0.4,0-0.6-0.2-1.2-1.1c-0.6-0.9-1.5-2.1-3.3-2.1c-1.8,0-2.7,1.3-3.3,2.1
		c-0.6,0.8-0.8,1.1-1.2,1.1s-0.6-0.2-1.2-1.1c-0.6-0.9-1.5-2.1-3.3-2.1s-2.7,1.3-3.3,2.1c-0.6,0.8-0.8,1.1-1.2,1.1
		c-0.4,0-0.4-0.2-1-1.1c-0.6-0.9-1.1-2.1-3.1-2.1v2.5c0,0,0.4,0.2,1,1.1c0.6,0.9,1.4,2.1,3.2,2.1c1.8,0,2.6-1.3,3.2-2.1
		c0.6-0.8,0.8-1.1,1.2-1.1c0.4,0,0.6,0.2,1.2,1.1c0.6,0.9,1.5,2.1,3.3,2.1c1.8,0,2.7-1.3,3.3-2.1c0.6-0.8,0.8-1.1,1.2-1.1
		c0.4,0,0.6,0.2,1.2,1.1c0.6,0.9,1.5,2.1,3.3,2.1s2.7-1.3,3.3-2.1c0.6-0.8,0.8-1.1,1.2-1.1s0.6,0.2,1.2,1.1c0.6,0.9,1.5,2.1,3.3,2.1
		c1.8,0,2.3-1.3,2.9-2.1c0.3-0.5,0.4-0.8,0.4-0.9v-2.6C49,46.8,48.1,47.9,47.6,48.7z"/>
	<path fill="#091F2F" d="M47.6,40.4c-0.6,0.8-0.6,1.1-1,1.1c-0.4,0-0.5-0.2-1.1-1.1c-0.6-0.9-1.4-2.1-3.2-2.1
		c-1.8,0-2.6,1.3-3.2,2.1c-0.6,0.8-0.8,1.1-1.2,1.1c-0.4,0-0.6-0.2-1.2-1.1c-0.6-0.9-1.5-2.1-3.3-2.1c-1.8,0-2.7,1.3-3.3,2.1
		c-0.6,0.8-0.8,1.1-1.2,1.1s-0.6-0.2-1.2-1.1c-0.6-0.9-1.5-2.1-3.3-2.1s-2.7,1.3-3.3,2.1c-0.6,0.8-0.8,1.1-1.2,1.1
		c-0.4,0-0.4-0.2-1-1.1c-0.6-0.9-1.1-2.1-3.1-2.1v2.5c0,0,0.4,0.2,1,1.1c0.6,0.9,1.4,2.1,3.2,2.1c1.8,0,2.6-1.3,3.2-2.1
		c0.6-0.8,0.8-1.1,1.2-1.1c0.4,0,0.6,0.2,1.2,1.1c0.6,0.9,1.5,2.1,3.3,2.1c1.8,0,2.7-1.3,3.3-2.1c0.6-0.8,0.8-1.1,1.2-1.1
		c0.4,0,0.6,0.2,1.2,1.1c0.6,0.9,1.5,2.1,3.3,2.1s2.7-1.3,3.3-2.1c0.6-0.8,0.8-1.1,1.2-1.1s0.6,0.2,1.2,1.1c0.6,0.9,1.5,2.1,3.3,2.1
		c1.8,0,2.3-1.3,2.9-2.1C50,41.3,50,41,50,40.9v-2.6C49,38.4,48.1,39.6,47.6,40.4z"/>
</g>
<path fill="none" stroke="#091F2F" stroke-width="3" stroke-linecap="round" stroke-linejoin="round" stroke-miterlimit="10" d="
	M32.5,40V27.8c0,0-0.5-4.3,3.4-4.3c0.1,0,0.1,0.2,0.1,0.2"/>
<path fill="none" stroke="#091F2F" stroke-width="3" stroke-linecap="round" stroke-linejoin="round" stroke-miterlimit="10" d="
	M39.5,41V27.8c0,0-0.5-4.3,3.4-4.3c0.1,0,0.1,0,0.1,0"/>
<line fill="none" stroke="#091F2F" stroke-width="3" stroke-miterlimit="10" x1="32" y1="29.5" x2="39" y2="29.5"/>
<line fill="none" stroke="#091F2F" stroke-width="3" stroke-miterlimit="10" x1="32" y1="35.5" x2="39" y2="35.5"/>
<polyline fill="none" stroke="#091F2F" stroke-width="3" stroke-miterlimit="10" points="14.7,22.5 34.3,9 53,22.5 "/>
<g>
</g>
</svg>
