<svg xmlns="http://www.w3.org/2000/svg" xmlns:xlink="http://www.w3.org/1999/xlink" viewBox="0 0 66 66">
    <defs>
        <circle id="a" cx="33" cy="33" r="31.4"/>
    </defs>
    <use class="svg-stroke-hover" xlink:href="#a" overflow="visible" fill-rule="evenodd" clip-rule="evenodd" fill="none" stroke="#091F2F" stroke-width="3" stroke-miterlimit="10"/>
    <path class="svg-stroke-hover"  fill="none" stroke="#091F2F" stroke-width="4" stroke-miterlimit="10" d="M19 22h26"/>
    <path class="svg-fill-hover" fill="#091F2F" d="M34.4 31.6l3.8-9.6h-9.7l-3.3 9.6zM33.9 33h-9.4l-7.9 18H21l6.1-13h7.3l-2.1 5h4.2c1-2.5 2-5 3.1-7.6.2-.4-.4-1.3-.9-1.3-1.5 0-3.7 0-5.2-.1l.4-1z"/>
    <path class="svg-fill-hover" fill="#091F2F" d="M41.9 44H30v9h3v-6h9v6h3v-9z"/>
    <circle class="svg-fill-hover" fill="#091F2F" cx="35.4" cy="15.5" r="3.7"/>
    <path class="svg-stroke-hover" fill="none" stroke="#091F2F" stroke-width="3" stroke-miterlimit="10" d="M9 53.5h49"/>
</svg>
