<svg xmlns="http://www.w3.org/2000/svg" xmlns:xlink="http://www.w3.org/1999/xlink" viewBox="0 0 66 66">
    <defs>
        <circle id="a" cx="33" cy="33" r="31.4"/>
    </defs>
    <use class="svg-stroke-hover" xlink:href="#a" overflow="visible" fill-rule="evenodd" clip-rule="evenodd" fill="none" stroke="#091F2F" stroke-width="3" stroke-miterlimit="10"/>
    <g class="svg-fill-hover" fill="#091F2E">
        <path stroke="#FFF" stroke-width=".25" stroke-miterlimit="10" d="M28.6 38.8c-.4-1.3-3.3-11.7-4-14.1.2-.1.4-.1.6-.2.2.5.4 1 .5 1.4.6 2 1.1 3.9 1.7 5.9.8-.2 1.7-.5 2.5-.8-.5-1.7-1-3.3-1.5-5-1.8-5.8-2-5.9-8.1-5.9-3 0-4.1.9-5 3.7-.8 2.5-1.7 5-2.5 7.6.9.3 1.8.6 2.6 1 0-.1.1-.2.1-.3.5-1.8 1-3.6 1.6-5.4.2-.7.5-1.4.7-2.2.2.1.3.1.5.2-.8 2.7-3.7 13.1-4 14.2H18V41c0 2.7-.1 5.4.1 8.1H21v-.5-8.2c0-.5.1-1 .2-1.4h.5c.1.5.1 1.1.1 1.6v8.5h2.9v-1.2-9h3.9zM50.6 26.8v-1.7h.5c0 .5.1 1 .1 1.5v6.3h2.6c.1-2.9.1-5.8 0-8.7-.1-2.4-1.7-4-4.1-4.1h-5.8c-2.8 0-4.4 1.5-4.5 4.3-.1 2.9 0 5.7 0 8.6h2.7v-6.8c0-.4.1-.8.2-1.2l.5.1v23.7h3.6v-.7-11.3c0-.5.1-1 .1-1.6h.4v13.6h3.7v-.9-21.1z"/>
        <path d="M32.6 13.5h3.3v37.2h-3.3V13.5z"/>
    </g>
    <circle class="svg-fill-hover" fill="#091F2E" cx="21.1" cy="16.4" r="2.9"/>
    <circle class="svg-fill-hover" fill="#091F2E" cx="47.1" cy="16.4" r="2.9"/>
    <path class="svg-fill-hover" fill="none" d="M49 34v15M45 34v9"/>
</svg>
