<svg xmlns="http://www.w3.org/2000/svg" xmlns:xlink="http://www.w3.org/1999/xlink" viewBox="0 0 66 66">
    <defs>
        <circle id="a" cx="33" cy="33" r="31.4"/>
    </defs>
    <use xlink:href="#a" overflow="visible" fill-rule="evenodd" clip-rule="evenodd" fill="none" stroke="#091F2F" stroke-width="3" stroke-miterlimit="10"/>
    <g fill="none" stroke="#0C1F2E" stroke-width="3" stroke-linecap="round" stroke-linejoin="round" stroke-miterlimit="10">
        <path d="M14.8 23.9h5.7M29.7 8.6l-.1 5.7M19.6 12.8l4 4.1"/>
    </g>
    <path fill="none" stroke="#0C1F2E" stroke-width="3" stroke-linecap="round" stroke-linejoin="round" stroke-miterlimit="10" d="M34.6 23.8l-5.4-3.6-8.1 12.1c-.9 1.5-.5 3.4 1 4.4 1.5 1 3.5.6 4.5-.9.2-.1 8-12 8-12zM22.1 36.8l-5.3 8M13.6 43.7l5.4 3.6M23.3 29.2l8.2-.6M45.2 24.4l-6.4.7 1.7 14.5c.3 1.7 1.8 3 3.6 2.8 1.8-.2 3.1-1.8 2.9-3.6-.1-.2-1.8-14.4-1.8-14.4z"/>
    <path fill="#0C1F2E" d="M23.7 28.8L20.9 33c-.9 1.5-.5 3.4 1 4.4 1.5 1 3.5.6 4.5-.9.1-.1 3-4.5 5.2-7.9-2.6.1-5.2.2-7.9.2zM45.6 29.9c-2 1.2-4.1 2.3-6.1 3.4l.8 7c.3 1.7 1.8 3 3.6 2.8 1.8-.2 3.1-1.8 2.9-3.6-.1-.2-.8-5.5-1.2-9.6z"/>
    <path fill="none" stroke="#0C1F2E" stroke-width="3" stroke-linecap="round" stroke-linejoin="round" stroke-miterlimit="10" d="M44 42.4l1.1 9.6M42 53.2l6.5-.7M39.7 33.4l6.2-3.3"/>
</svg>
