<svg xmlns="http://www.w3.org/2000/svg" xmlns:xlink="http://www.w3.org/1999/xlink" viewBox="0 0 66 66">
    <defs>
        <circle id="a" cx="33" cy="33" r="31.4"/>
    </defs>
    <use xlink:href="#a" overflow="visible" fill-rule="evenodd" clip-rule="evenodd" fill="none" stroke="#091F2F" stroke-width="3" stroke-miterlimit="10"/>
    <g fill="#091F2F">
        <path d="M51.7 46.7c-.7 1-.8 1.4-1.3 1.4s-.7-.3-1.4-1.4c-.8-1.1-1.9-2.7-4.1-2.7-2.3 0-3.4 1.6-4.1 2.7-.7 1-1 1.4-1.5 1.4s-.8-.3-1.5-1.4c-.8-1.1-1.9-2.7-4.2-2.7-2.3 0-3.4 1.6-4.2 2.7-.7 1-1 1.4-1.5 1.4s-.8-.3-1.5-1.4c-.8-1.1-1.9-2.7-4.2-2.7s-3.4 1.6-4.2 2.7c-.7 1-1 1.4-1.5 1.4s-.7-.3-1.4-1.4c-.8-1.1-1.8-2.7-4.1-2.7v3.2c.6 0 .7.3 1.4 1.4.8 1.1 1.9 2.7 4.1 2.7 2.3 0 3.4-1.6 4.1-2.7.7-1 1-1.4 1.5-1.4s.8.3 1.5 1.4c.8 1.1 1.9 2.7 4.2 2.7 2.3 0 3.4-1.6 4.2-2.7.7-1 1-1.4 1.5-1.4s.8.3 1.5 1.4c.8 1.1 1.9 2.7 4.2 2.7 2.3 0 3.4-1.6 4.2-2.7.7-1 1-1.4 1.5-1.4s.8.3 1.5 1.4c.8 1.1 1.9 2.7 4.2 2.7 2.3 0 3-1.6 3.8-2.7.4-.6.6-1 .6-1.2V44c-1 .2-2.6 1.7-3.3 2.7zM51.7 36.1c-.7 1-.8 1.4-1.3 1.4s-.7-.3-1.4-1.4c-.8-1.1-1.9-2.7-4.1-2.7-2.3 0-3.4 1.6-4.1 2.7-.7 1-1 1.4-1.5 1.4s-.8-.3-1.5-1.4c-.8-1.1-1.9-2.7-4.2-2.7-2.3 0-3.4 1.6-4.2 2.7-.7 1-1 1.4-1.5 1.4s-.8-.3-1.5-1.4c-.8-1.1-1.9-2.7-4.2-2.7S18.7 35 18 36.1c-.7 1-1 1.4-1.5 1.4s-.7-.3-1.4-1.4c-.8-1.1-1.8-2.7-4.1-2.7v3.2c.6 0 .7.3 1.4 1.4.8 1.1 1.9 2.7 4.1 2.7 2.3 0 3.4-1.6 4.1-2.7.7-1 1-1.4 1.5-1.4s.8.3 1.5 1.4c.8 1.1 1.9 2.7 4.2 2.7 2.3 0 3.4-1.6 4.2-2.7.7-1 1-1.4 1.5-1.4s.8.3 1.5 1.4c.8 1.1 1.9 2.7 4.2 2.7 2.3 0 3.4-1.6 4.2-2.7.7-1 1-1.4 1.5-1.4s.8.3 1.5 1.4c.8 1.1 1.9 2.7 4.2 2.7 2.3 0 3-1.6 3.8-2.7.4-.6.6-1 .6-1.2v-3.4c-1 .2-2.6 1.7-3.3 2.7z"/>
    </g>
    <path fill="none" stroke="#091F2F" stroke-width="3" stroke-miterlimit="10" d="M32.5 35V20s-.7-5.5 4.3-5.5h.2M41.5 37V20s-.7-5.5 4.3-5.5h.2M32 22.5h9M32 29.5h9"/>
</svg>
