<svg xmlns="http://www.w3.org/2000/svg" xmlns:xlink="http://www.w3.org/1999/xlink" viewBox="0 0 66 66">
    <defs>
        <circle id="a" cx="33" cy="33" r="31.4"/>
    </defs>
    <use xlink:href="#a" overflow="visible" fill-rule="evenodd" clip-rule="evenodd" fill="none" stroke="#091F2F" stroke-width="3" stroke-miterlimit="10"/>
    <g fill="#091F2F">
        <path d="M39.5 24.6c0 .1 0 .1 0 0l.6.6c1.2 1.1 2.5 1.9 4 2.5h.2l1.2-.9c.2-.1.3-.1.5 0l.6.3c.7.4 1.4.5 2.2.4.8-.1 1.4-.5 1.8-1.1.2-.4.3-.8.5-1.2-.1-.2-.1-.3-.1-.5 0-.3-.2-.7-.7-.8-.3 0-.6-.1-1-.1-.4-.1-.8-.2-1.1-.6-.2-.2-.4-.5-.6-.7-.6-.6-1.2-1.2-1.9-1.8 0 0-.1-.1-.1-.2.1-.3.1-.7.2-1 .1-.6-.1-1.1-.5-1.6-.2-.2-.4-.2-.6-.2-.5.1-.8.4-1 .9-.2.3-.3.7-.5 1-.3.5-.6 1-1 1.4-.6.8-1.3 1.6-1.9 2.4-.2.5-.5.9-.8 1.2zM19 23.7c0-.1 0-.2.1-.4s.2-.3.4-.3h.3c.2 0 .4.1.6.3.2.3.3.6.4 1 .2.7.3 1.5.5 2.2.1.3.2.7.3 1 .1.1.2.3.3.4.1.1.3.2.5.2h.2c3.6 0 7.1.1 10.7.1.2 0 .3 0 .5-.1.5-.1 1-.3 1.5-.4.5-.1.9-.3 1.3-.6.6-.4 1.3-.8 1.9-1.2 0 0 .1-.1.2-.1 0 .1 0 .1.1.1 1.3 1.3 2.8 2.3 4.6 3 .1 0 .1.1.1.2.1 1.2.2 2.3.2 3.5 0 .9-.2 1.8-.4 2.7-.3 1.3-.6 2.5-.8 3.8-.3 1.4-.3 2.9-.2 4.3 0 .5 0 .9.1 1.4 0 .4.2.6.5.7.2.1.4.1.5.2.6.2.8.9.4 1.4-.2.2-.4.3-.6.3-.5.1-1 .1-1.5 0-.8-.1-1.3-.6-1.4-1.5 0-.4 0-.9-.1-1.3 0-.9 0-1.8-.1-2.7 0-.9-.1-1.8-.1-2.7v-.1.1c-.3 1.5-.7 3.1-1 4.6 0 .2-.1.4-.1.6 0 .6.4.9.8 1.2.1.1.3.2.3.3.1.2.1.5 0 .7-.3.2-.6.4-1 .4-.5 0-1 0-1.5-.1-.7-.2-1.1-.7-1.1-1.4 0-.4 0-.7.1-1.1 0-.5.1-.9.2-1.3l.3-2.7c.1-.6.1-1.3.2-1.9v-.2c-.1-.2-.2-.5-.3-.7 0-.1-.1-.1-.2-.1-1.4-.4-2.7-.7-4-1.2-1-.4-2-.8-3-1.3-.1 0-.2-.1-.2 0-.5 0-1 0-1.5.1-.4.1-.5.2-.6.6 0 .2 0 .5-.1.7-.1.6-.1 1.2-.3 1.7-.1.4-.3.7-.4 1.1-.3.8-.6 1.6-.9 2.3-.2.5-.2 1-.1 1.5l.3.6c.2.4.4.9.7 1.3.2.3.3.6.4 1 0 .3.1.6 0 .8-.1.5-.4.7-.9.6-.2-.1-.4-.2-.7-.3l-.6-.3c-.2-.1-.4-.2-.6-.4-.3-.4-.4-.8-.6-1.2-.3-.8-.5-1.7-.7-2.6v-.2-2-.2c-.1 0-.2 0-.3.1-.1.2-.2.5-.3.7-.3 1.1-.3 2.3-.2 3.5 0 .3.2.7.3 1 .2.5.3 1 .5 1.5.1.4 0 .7-.4.8-.7.3-1.6.2-2.2-.6-.3-.3-.5-.7-.6-1.1-.2-.7-.5-1.4-.5-2.2-.1-1.3 0-2.5.6-3.7.2-.3.3-.7.4-1 .2-.6.2-1.3-.1-1.9-.4-1-.6-2-.8-3.1-.2-1.3-.1-2.6.5-3.8.2-.3.3-.6.5-.9.1-.1.1-.2 0-.3-.3-.4-.5-.8-.7-1.2l-.6-2.4c-.1-.4-.1-.9-.2-1.3v-.1c.2.1.2-.2.2-.4z"/>
        <path d="M39.5 24.6c.3-.4.6-.7.9-1.1.6-.8 1.3-1.6 1.9-2.4.4-.5.7-.9 1-1.4.2-.3.3-.7.5-1 .2-.4.5-.7 1-.9.2-.1.5 0 .6.2.4.4.6 1 .5 1.6-.1.3-.1.7-.2 1 0 .1 0 .1.1.2.7.5 1.3 1.1 1.9 1.8.2.2.4.5.6.7.3.4.7.5 1.1.6.3 0 .6.1 1 .1.5 0 .7.5.7.8 0 .2 0 .3-.1.5-.1.4-.3.8-.5 1.2-.4.7-1 1-1.8 1.1-.8.1-1.5 0-2.2-.4l-.6-.3c-.2-.1-.3-.1-.5 0l-1.2.9H44c-1.5-.6-2.8-1.4-4-2.5-.1-.2-.3-.4-.5-.7 0 .1 0 .1 0 0z"/>
    </g>
</svg>
