<svg xmlns="http://www.w3.org/2000/svg" xmlns:xlink="http://www.w3.org/1999/xlink" viewBox="0 0 66 66">
  <defs>
    <circle id="a" cx="33" cy="33" r="31.4"/>
  </defs>
  <use class="svg-stroke-hover" xlink:href="#a" overflow="visible" fill-rule="evenodd" clip-rule="evenodd" fill="none" stroke="#091F2F" stroke-width="3" stroke-miterlimit="10"/>
  <g class="svg-stroke-hover" fill="none" stroke="#091F2F" stroke-width="3" stroke-linecap="round" stroke-linejoin="round" stroke-miterlimit="10">
    <path d="M23.9 24.5l2.2 2.2M35.9 24.3l-2.2 2.3M30.3 22l-.1 3.2"/>
  </g>
  <path class="svg-stroke-hover" fill="none" stroke="#091F2F" stroke-width="3" stroke-miterlimit="10" d="M11.1 26.1l21.1-14.5 20.1 14.5"/>
  <path class="svg-stroke-hover" fill="none" stroke="#091F2F" stroke-width="3" stroke-miterlimit="10" d="M48 23.6v25H15.4V22.7"/>
  <path class="svg-stroke-hover" fill="none" stroke="#091F2F" stroke-width="3" stroke-miterlimit="10" d="M42.9 30.4H32.4v1.9c0 .8-.6 1.4-2 1.4-.7 0-1.8-.6-1.8-1.4v-1.9c-3.7.1-6.8 3.2-6.7 7C22 41 25 44 28.6 44.1c3.8.1 6.9-3 6.9-6.8 0-.7.6-1.9 1.8-1.9h5.4v-5z"/>
</svg>
