<svg xmlns="http://www.w3.org/2000/svg" xmlns:xlink="http://www.w3.org/1999/xlink" viewBox="0 0 66 66">
    <defs>
        <circle id="a" cx="33" cy="33" r="31.4"/>
    </defs>
    <use class="svg-stroke-hover" xlink:href="#a" overflow="visible" fill-rule="evenodd" clip-rule="evenodd" fill="none" stroke="#091F2F" stroke-width="3" stroke-miterlimit="10"/>
    <path fill="#091F2F" d="M29.2 56.9l-3.1-.1-.5-16.2 3.9.1zM25.4 24h9.7v15.6h-9.7z"/>
    <circle fill="#091F2F" cx="30.2" cy="17.3" r="3.9"/>
    <path class="svg-stroke-hover" fill="none" stroke="#091F2F" stroke-width="3" stroke-miterlimit="10" d="M44.6 24.7l-19.1-.8-5.4 4 5.3 6.4"/>
    <path fill="#091F2F" d="M44 48.9h-3.1l-.4-8.8-8.1-.5.4-4 8.3.8s2.8.3 3 2.9c0 1.6-.1 9.6-.1 9.6zM30.6 18.9h-1.4c-1.5 0-2.8-1.2-2.8-2.8V9.8c0-1.5 1.2-2.8 2.8-2.8h1.4c1.5 0 2.8 1.2 2.8 2.8v6.4c-.1 1.5-1.3 2.7-2.8 2.7z"/>
    <path fill="#091F2F" d="M32.9 13.7l2.2 1.9h-2.7z"/>
    <path class="svg-stroke-hover" fill="none" stroke="#091F2F" stroke-width="2" stroke-miterlimit="10" d="M43.2 11.8l2.9 21.5"/>
    <circle fill="#091F2F" cx="43.2" cy="12.5" r="2.1"/>
    <circle fill="#091F2F" cx="46.1" cy="33.3" r="2.1"/>
</svg>
