<?xml version="1.0" encoding="utf-8"?>
<!-- Generator: Adobe Illustrator 18.1.1, SVG Export Plug-In . SVG Version: 6.00 Build 0)  -->
<svg version="1.1" id="Layer_1" xmlns="http://www.w3.org/2000/svg" xmlns:xlink="http://www.w3.org/1999/xlink" x="0px" y="0px"
	 viewBox="0 0 66 66" enable-background="new 0 0 66 66" xml:space="preserve">
<g>
	<defs>
		<circle id="SVGID_59_" cx="33" cy="33" r="31.4"/>
	</defs>
	<clipPath id="SVGID_2_">
		<use xlink:href="#SVGID_59_"  overflow="visible"/>
	</clipPath>
	
		<use xlink:href="#SVGID_59_"  overflow="visible" fill-rule="evenodd" clip-rule="evenodd" fill="none" stroke="#091F2F" stroke-width="3" stroke-miterlimit="10"/>
</g>
<circle fill="none" stroke="#091F2F" stroke-miterlimit="10" cx="32.5" cy="10.9" r="6.5"/>
<line fill="none" stroke="#091F2F" stroke-width="3" stroke-miterlimit="10" x1="32.5" y1="2" x2="32.5" y2="4.4"/>
<g>
	<circle fill="#091F2F" cx="31.1" cy="25.8" r="3.1"/>
	<polygon fill="#091F2F" points="36,40 34.4,33.5 38.4,34.9 37,38.7 40,39.8 42.6,32.9 33.9,29.9 27.6,29.7 21.6,19.3 18.8,20.9 
		26.3,33.9 27.7,41.4 22.2,46.1 29.3,57 31.9,55.2 26.9,46.4 	"/>
	<polygon fill="#091F2F" points="37.1,41 33.4,43.3 43.9,56.4 46.5,54.6 	"/>
</g>
<line fill="none" stroke="#091F2F" stroke-width="3" stroke-miterlimit="10" x1="11" y1="55.5" x2="55" y2="55.5"/>
<line fill="none" stroke="#091F2F" stroke-miterlimit="10" x1="26.2" y1="11" x2="38.8" y2="11"/>
<line fill="none" stroke="#091F2F" stroke-miterlimit="10" x1="27.2" y1="7.2" x2="37.8" y2="7.2"/>
<line fill="none" stroke="#091F2F" stroke-miterlimit="10" x1="27.2" y1="14.5" x2="37.8" y2="14.5"/>
<line fill="none" stroke="#091F2F" stroke-miterlimit="10" x1="32.7" y1="17.1" x2="32.7" y2="4.6"/>
<line fill="none" stroke="#091F2F" stroke-miterlimit="10" x1="28.8" y1="16.2" x2="28.8" y2="5.5"/>
<line fill="none" stroke="#091F2F" stroke-miterlimit="10" x1="36.2" y1="16.2" x2="36.2" y2="5.5"/>
<line fill="none" stroke="#091F2F" stroke-miterlimit="10" x1="22.9" y1="13.8" x2="24.4" y2="13.2"/>
<line fill="none" stroke="#091F2F" stroke-miterlimit="10" x1="21.8" y1="10.2" x2="24.4" y2="10.4"/>
<line fill="none" stroke="#091F2F" stroke-miterlimit="10" x1="23.4" y1="7.2" x2="24.4" y2="7.8"/>
<line fill="none" stroke="#091F2F" stroke-miterlimit="10" x1="41.9" y1="7.8" x2="40.5" y2="8.2"/>
<line fill="none" stroke="#091F2F" stroke-miterlimit="10" x1="44" y1="10.5" x2="41" y2="10.5"/>
<line fill="none" stroke="#091F2F" stroke-miterlimit="10" x1="42.1" y1="13.2" x2="41" y2="12.8"/>
</svg>
