<?xml version="1.0" encoding="utf-8"?>
<!-- Generator: Adobe Illustrator 18.1.1, SVG Export Plug-In . SVG Version: 6.00 Build 0)  -->
<svg version="1.1" id="Layer_1" xmlns="http://www.w3.org/2000/svg" xmlns:xlink="http://www.w3.org/1999/xlink" x="0px" y="0px"
	 viewBox="0 0 66 66" enable-background="new 0 0 66 66" xml:space="preserve">
<g>
	<defs>
		<circle id="SVGID_5_" cx="33" cy="33" r="31.4"/>
	</defs>
	<clipPath id="SVGID_2_">
		<use xlink:href="#SVGID_5_"  overflow="visible"/>
	</clipPath>
	
		<use xlink:href="#SVGID_5_"  overflow="visible" fill-rule="evenodd" clip-rule="evenodd" fill="none" stroke="#091F2F" stroke-width="3" stroke-miterlimit="10"/>
</g>
<g>
	<g>
		<g>
			<g enable-background="new    ">
				<g>
					<g>
						<g>
							<g>
								<g>
									<path fill="#091F2F" d="M39.5,24.6C39.5,24.7,39.5,24.7,39.5,24.6c0.2,0.2,0.4,0.4,0.6,0.6c1.2,1.1,2.5,1.9,4,2.5
										c0,0,0.1,0,0.2,0c0.4-0.3,0.8-0.6,1.2-0.9c0.2-0.1,0.3-0.1,0.5,0c0.2,0.1,0.4,0.2,0.6,0.3c0.7,0.4,1.4,0.5,2.2,0.4
										c0.8-0.1,1.4-0.5,1.8-1.1c0.2-0.4,0.3-0.8,0.5-1.2C51,25,51,24.9,51,24.7c0-0.3-0.2-0.7-0.7-0.8c-0.3,0-0.6-0.1-1-0.1
										c-0.4-0.1-0.8-0.2-1.1-0.6c-0.2-0.2-0.4-0.5-0.6-0.7c-0.6-0.6-1.2-1.2-1.9-1.8c0,0-0.1-0.1-0.1-0.2c0.1-0.3,0.1-0.7,0.2-1
										c0.1-0.6-0.1-1.1-0.5-1.6c-0.2-0.2-0.4-0.2-0.6-0.2c-0.5,0.1-0.8,0.4-1,0.9c-0.2,0.3-0.3,0.7-0.5,1c-0.3,0.5-0.6,1-1,1.4
										c-0.6,0.8-1.3,1.6-1.9,2.4C40.1,23.9,39.8,24.3,39.5,24.6z"/>
									<path fill="#091F2F" d="M19,23.7c0-0.1,0-0.2,0.1-0.4c0.1-0.2,0.2-0.3,0.4-0.3c0.1,0,0.2,0,0.3,0c0.2,0,0.4,0.1,0.6,0.3
										c0.2,0.3,0.3,0.6,0.4,1c0.2,0.7,0.3,1.5,0.5,2.2c0.1,0.3,0.2,0.7,0.3,1c0.1,0.1,0.2,0.3,0.3,0.4c0.1,0.1,0.3,0.2,0.5,0.2
										c0.1,0,0.1,0,0.2,0c3.6,0,7.1,0.1,10.7,0.1c0.2,0,0.3,0,0.5-0.1c0.5-0.1,1-0.3,1.5-0.4c0.5-0.1,0.9-0.3,1.3-0.6
										c0.6-0.4,1.3-0.8,1.9-1.2c0,0,0.1-0.1,0.2-0.1c0,0.1,0,0.1,0.1,0.1c1.3,1.3,2.8,2.3,4.6,3c0.1,0,0.1,0.1,0.1,0.2
										c0.1,1.2,0.2,2.3,0.2,3.5c0,0.9-0.2,1.8-0.4,2.7c-0.3,1.3-0.6,2.5-0.8,3.8c-0.3,1.4-0.3,2.9-0.2,4.3c0,0.5,0,0.9,0.1,1.4
										c0,0.4,0.2,0.6,0.5,0.7c0.2,0.1,0.4,0.1,0.5,0.2c0.6,0.2,0.8,0.9,0.4,1.4c-0.2,0.2-0.4,0.3-0.6,0.3c-0.5,0.1-1,0.1-1.5,0
										c-0.8-0.1-1.3-0.6-1.4-1.5c0-0.4,0-0.9-0.1-1.3c0-0.9,0-1.8-0.1-2.7c0-0.9-0.1-1.8-0.1-2.7c0,0,0-0.1,0-0.1
										c0,0,0,0.1,0,0.1c-0.3,1.5-0.7,3.1-1,4.6c0,0.2-0.1,0.4-0.1,0.6c0,0.6,0.4,0.9,0.8,1.2c0.1,0.1,0.3,0.2,0.3,0.3
										c0.1,0.2,0.1,0.5,0,0.7C39.7,46.8,39.4,47,39,47c-0.5,0-1,0-1.5-0.1c-0.7-0.2-1.1-0.7-1.1-1.4c0-0.4,0-0.7,0.1-1.1
										c0-0.5,0.1-0.9,0.2-1.3c0.1-0.9,0.2-1.8,0.3-2.7c0.1-0.6,0.1-1.3,0.2-1.9c0-0.1,0-0.1,0-0.2c-0.1-0.2-0.2-0.5-0.3-0.7
										c0-0.1-0.1-0.1-0.2-0.1c-1.4-0.4-2.7-0.7-4-1.2c-1-0.4-2-0.8-3-1.3c-0.1,0-0.2-0.1-0.2,0C29,35,28.5,35,28,35.1
										c-0.4,0.1-0.5,0.2-0.6,0.6c0,0.2,0,0.5-0.1,0.7c-0.1,0.6-0.1,1.2-0.3,1.7c-0.1,0.4-0.3,0.7-0.4,1.1
										c-0.3,0.8-0.6,1.6-0.9,2.3c-0.2,0.5-0.2,1-0.1,1.5c0.1,0.2,0.2,0.4,0.3,0.6c0.2,0.4,0.4,0.9,0.7,1.3c0.2,0.3,0.3,0.6,0.4,1
										c0,0.3,0.1,0.6,0,0.8c-0.1,0.5-0.4,0.7-0.9,0.6c-0.2-0.1-0.4-0.2-0.7-0.3c-0.2-0.1-0.4-0.2-0.6-0.3
										c-0.2-0.1-0.4-0.2-0.6-0.4c-0.3-0.4-0.4-0.8-0.6-1.2c-0.3-0.8-0.5-1.7-0.7-2.6c0-0.1,0-0.1,0-0.2c0-0.7,0-1.3,0-2
										c0,0,0-0.1,0-0.2c-0.1,0-0.2,0-0.3,0.1c-0.1,0.2-0.2,0.5-0.3,0.7c-0.3,1.1-0.3,2.3-0.2,3.5c0,0.3,0.2,0.7,0.3,1
										c0.2,0.5,0.3,1,0.5,1.5c0.1,0.4,0,0.7-0.4,0.8c-0.7,0.3-1.6,0.2-2.2-0.6c-0.3-0.3-0.5-0.7-0.6-1.1
										c-0.2-0.7-0.5-1.4-0.5-2.2c-0.1-1.3,0-2.5,0.6-3.7c0.2-0.3,0.3-0.7,0.4-1c0.2-0.6,0.2-1.3-0.1-1.9c-0.4-1-0.6-2-0.8-3.1
										c-0.2-1.3-0.1-2.6,0.5-3.8c0.2-0.3,0.3-0.6,0.5-0.9c0.1-0.1,0.1-0.2,0-0.3c-0.3-0.4-0.5-0.8-0.7-1.2
										c-0.2-0.8-0.4-1.6-0.6-2.4c-0.1-0.4-0.1-0.9-0.2-1.3c0,0,0-0.1,0-0.1C19,24.2,19,23.9,19,23.7z"/>
									<path fill="#091F2F" d="M39.5,24.6c0.3-0.4,0.6-0.7,0.9-1.1c0.6-0.8,1.3-1.6,1.9-2.4c0.4-0.5,0.7-0.9,1-1.4
										c0.2-0.3,0.3-0.7,0.5-1c0.2-0.4,0.5-0.7,1-0.9c0.2-0.1,0.5,0,0.6,0.2c0.4,0.4,0.6,1,0.5,1.6c-0.1,0.3-0.1,0.7-0.2,1
										c0,0.1,0,0.1,0.1,0.2c0.7,0.5,1.3,1.1,1.9,1.8c0.2,0.2,0.4,0.5,0.6,0.7c0.3,0.4,0.7,0.5,1.1,0.6c0.3,0,0.6,0.1,1,0.1
										c0.5,0,0.7,0.5,0.7,0.8c0,0.2,0,0.3-0.1,0.5c-0.1,0.4-0.3,0.8-0.5,1.2c-0.4,0.7-1,1-1.8,1.1c-0.8,0.1-1.5,0-2.2-0.4
										c-0.2-0.1-0.4-0.2-0.6-0.3c-0.2-0.1-0.3-0.1-0.5,0c-0.4,0.3-0.8,0.6-1.2,0.9c0,0-0.1,0-0.2,0c-1.5-0.6-2.8-1.4-4-2.5
										C39.9,25.1,39.7,24.9,39.5,24.6C39.5,24.7,39.5,24.7,39.5,24.6z"/>
								</g>
							</g>
						</g>
					</g>
				</g>
			</g>
		</g>
	</g>
</g>
<g>
</g>
</svg>
