<?xml version="1.0" encoding="utf-8"?>
<!-- Generator: Adobe Illustrator 18.1.1, SVG Export Plug-In . SVG Version: 6.00 Build 0)  -->
<svg version="1.1" id="Layer_1" xmlns="http://www.w3.org/2000/svg" xmlns:xlink="http://www.w3.org/1999/xlink" x="0px" y="0px"
	 viewBox="0 0 66 66" enable-background="new 0 0 66 66" xml:space="preserve">
<g>
	<defs>
		<circle id="SVGID_89_" cx="33" cy="33" r="31.4"/>
	</defs>
	<clipPath id="SVGID_2_">
		<use xlink:href="#SVGID_89_"  overflow="visible"/>
	</clipPath>
	
		<use xlink:href="#SVGID_89_"  overflow="visible" fill-rule="evenodd" clip-rule="evenodd" fill="none" stroke="#091F2F" stroke-width="3" stroke-miterlimit="10"/>
</g>
<g>
</g>
<path fill="#091F2F" d="M32.7,16.4c-9.1,0-16.6,7.4-16.6,16.6s7.4,16.6,16.6,16.6S49.3,42.1,49.3,33S41.9,16.4,32.7,16.4z M45.7,32
	h-8.5l6-6C44.5,27.7,45.4,29,45.7,32z M35,20.1c2,0.4,4.3,1.3,6.1,2.7L35,28.8V20.1z M31,20v8.8l-6.3-6.3C26.5,21.2,29,20.3,31,20z
	 M22.5,25.6l6.4,6.4h-9C20.1,28,21,27.4,22.5,25.6z M19.8,35h9l-6.3,6.3C21.1,39.5,20.1,37,19.8,35z M31,46c-2-0.3-4.5-1.1-6.3-2.5
	l6.3-6.3V46z M31,33.3c0-1.3,1-2.3,2.3-2.3c1.3,0,2.3,1,2.3,2.3c0,1.3-1,2.3-2.3,2.3C32,35.5,31,34.5,31,33.3z M35,45.9v-8.7l6,6
	C39.3,44.6,37,45.6,35,45.9z M43.2,41l-6-6h8.5C45.4,36,44.5,39.3,43.2,41z"/>
</svg>
