<svg xmlns="http://www.w3.org/2000/svg" xmlns:xlink="http://www.w3.org/1999/xlink" viewBox="0 0 66 66">
    <defs>
        <circle id="a" cx="33" cy="33" r="31.4"/>
    </defs>
    <use class="svg-stroke-hover" xlink:href="#a" overflow="visible" fill-rule="evenodd" clip-rule="evenodd" fill="none" stroke="#091F2F" stroke-width="3" stroke-miterlimit="10"/>
    <path class="svg-stroke-hover" fill="none" stroke="#091F2F" stroke-width="3" stroke-miterlimit="10" d="M26.4 10.8c0 1.5-2 1.5-2 2.9 0 1.5 2 1.5 2 2.9 0 1.5-2 1.5-2 2.9 0 1.5 2 1.5 2 2.9s-2 1.5-2 2.9M34 10.8c0 1.5-2 1.5-2 2.9 0 1.5 2 1.5 2 2.9 0 1.5-2 1.5-2 2.9 0 1.5 2 1.5 2 2.9s-2 1.5-2 2.9M41.5 10.8c0 1.5-2 1.5-2 2.9 0 1.5 2 1.5 2 2.9 0 1.5-2 1.5-2 2.9 0 1.5 2 1.5 2 2.9s-2 1.5-2 2.9"/>
    <g>
        <path class="svg-stroke-hover" fill="none" stroke="#091F2F" stroke-width="3" stroke-miterlimit="10" d="M21.7 38.4h21.6v15H21.7zM43 35c-.5-3.2-5.1-5.7-10.7-5.7S22.2 31.8 21.7 35H43zM32.3 27.1v1.8"/>
    </g>
    <path class="svg-stroke-hover" fill="none" stroke="#091F2F" stroke-width="3" stroke-miterlimit="10" d="M16.5 38.4h30.8"/>
</svg>
