<svg xmlns="http://www.w3.org/2000/svg" xmlns:xlink="http://www.w3.org/1999/xlink" viewBox="0 0 66 66">
    <defs>
        <circle id="a" cx="33" cy="33" r="31.4"/>
    </defs>
    <use xlink:href="#a" overflow="visible" fill-rule="evenodd" clip-rule="evenodd" fill="none" stroke="#091F2F" stroke-width="3" stroke-miterlimit="10"/>
    <g>
        <path fill="none" stroke="#091F2F" stroke-width="3" stroke-miterlimit="10" d="M14.5 7.9c-.4.4-.5 1.1-.3 1.8.7 2 2 2.9 4.1 2.6 1.5-.2 2.5.3 3.1 1.7.3.8.9 1.3 1.5 1.8.7.1 1.4.2 2.2.3.6.1 1 .6 1.1 1.2 3.9 1.7 7.7 3.3 11.8 4.3 1.3.3 2.7.8 3.9 1.4.7.3 1.5.8 2 1.4 1.6 2.1 2.7 4.5 2.1 7.3-.6 2.9.4 5 3 6.4 2.9 1.5 4.5 4 5.4 7 .4 1.6.6 3.3.9 4.9.2 1.1.9 1.9 1.9 2"/>
        <path fill="#091F2F" d="M41.4 47.7c1.1-.9 2.2-1.8 3.3-2.6-1-.9-2.1-1.8-3.1-2.8-1.8-1.8-8.1-4.1-9.1-4.4l2.1-3.5c1-1.5 1.8-1.7 3.5-1.6 1.5.1 2.8-.1 4.1-.1.2 0 .4 0 .6-.1-.1-1.2-.3-2.4-.4-3.6-2.4.1-8.5.1-9.2 1-1.7 2.1-3.3 4.2-5 6.3-1 1.3-2 2.5-2.9 3.8.9.5 11.1 3.8 11.7 4.3 1.7 1 3 2.1 4.4 3.3zM32.1 21.4c-1-.6-2-1.1-3-1.6-.6.9-2.1 3.8-2.8 4.7-.6.7-1.3 1.3-2 1.9-.3-.6-.3-1.1-.3-1.5 0-2-.1-5.9-.2-7.9-1.1-.1-2-.2-3.1-.2 0 .1-.1 6.9 0 9.2 0 .9-.2 1.5-.9 2.1-2 1.6-2.1 3.8-.4 5.7 1.3 1.4 2.6 2.8 3.9 4.3.7.8 1.3.8 2 .1 1.2-1.3 2-2.9 3-4.3-1.3-1.5-2.2-2.4-3.4-3.8 1.5-1.2 2.9-2.1 4-3.3.9-.9 2.5-4.2 3.2-5.4z"/>
        <path fill="#091F2F" d="M19.3 25.7c0 1.7-1.4 3.1-3.1 3.2-1.8 0-3.2-1.4-3.2-3.2 0-1.8 1.4-3.2 3.2-3.1 1.7 0 3.1 1.4 3.1 3.1z"/>
    </g>
</svg>
