<?xml version="1.0" encoding="utf-8"?>
<!-- Generator: Adobe Illustrator 18.1.1, SVG Export Plug-In . SVG Version: 6.00 Build 0)  -->
<svg version="1.1" id="Layer_1" xmlns="http://www.w3.org/2000/svg" xmlns:xlink="http://www.w3.org/1999/xlink" x="0px" y="0px"
	 viewBox="0 0 66 66" enable-background="new 0 0 66 66" xml:space="preserve">
<g>
	<defs>
		<circle id="SVGID_119_" cx="33" cy="33" r="31.4"/>
	</defs>
	<clipPath id="SVGID_2_">
		<use xlink:href="#SVGID_119_"  overflow="visible"/>
	</clipPath>
	
		<use xlink:href="#SVGID_119_"  overflow="visible" fill-rule="evenodd" clip-rule="evenodd" fill="none" stroke="#091F2F" stroke-width="3" stroke-miterlimit="10"/>
</g>
<path fill="#091F2F" d="M27.3,36.1l0-9.2h-7.9l-2.3,4.9c-0.8,0.2-3.4,0.7-6.3,1.7l-0.4,0.1v7.8h44v-5.3H27.3z M25.5,34.7h-6.3v-2.1
	l1.7-3.6h4.6V34.7z"/>
<g>
	<circle fill="#091F2F" cx="18.7" cy="42.5" r="4"/>
	<path fill="#091F2F" d="M18.7,47c-2.5,0-4.6-2-4.6-4.6s2-4.6,4.6-4.6s4.6,2,4.6,4.6S21.2,47,18.7,47z M18.7,39
		c-1.9,0-3.5,1.6-3.5,3.5c0,1.9,1.6,3.5,3.5,3.5s3.5-1.6,3.5-3.5C22.2,40.5,20.6,39,18.7,39z"/>
</g>
<g>
	<circle fill="#091F2F" cx="47.8" cy="42.5" r="4"/>
	<path fill="#091F2F" d="M47.8,47c-2.5,0-4.6-2-4.6-4.6s2-4.6,4.6-4.6s4.6,2,4.6,4.6S50.3,47,47.8,47z M47.8,39
		c-1.9,0-3.5,1.6-3.5,3.5c0,1.9,1.6,3.5,3.5,3.5c1.9,0,3.5-1.6,3.5-3.5C51.2,40.5,49.7,39,47.8,39z"/>
</g>
<g>
	<circle fill="#091F2F" cx="18.7" cy="42.4" r="1.8"/>
	<path fill="#091F2F" d="M18.7,44.8c-1.3,0-2.4-1.1-2.4-2.4c0-1.3,1.1-2.4,2.4-2.4c1.3,0,2.4,1.1,2.4,2.4C21,43.7,20,44.8,18.7,44.8
		z M18.7,41.1c-0.7,0-1.3,0.6-1.3,1.3c0,0.7,0.6,1.3,1.3,1.3c0.7,0,1.3-0.6,1.3-1.3C19.9,41.7,19.4,41.1,18.7,41.1z"/>
</g>
<g>
	<circle fill="#091F2F" cx="47.7" cy="42.4" r="1.8"/>
	<path fill="#091F2F" d="M47.7,44.8c-1.3,0-2.4-1.1-2.4-2.4c0-1.3,1.1-2.4,2.4-2.4c1.3,0,2.4,1.1,2.4,2.4
		C50.1,43.7,49,44.8,47.7,44.8z M47.7,41.1c-0.7,0-1.3,0.6-1.3,1.3c0,0.7,0.6,1.3,1.3,1.3c0.7,0,1.3-0.6,1.3-1.3
		C49,41.7,48.4,41.1,47.7,41.1z"/>
</g>
<rect x="25.5" y="19.4" fill="#091F2F" width="30.2" height="19.1"/>
</svg>
