<?xml version="1.0" encoding="utf-8"?>
<!-- Generator: Adobe Illustrator 18.1.1, SVG Export Plug-In . SVG Version: 6.00 Build 0)  -->
<svg version="1.1" id="Layer_1" xmlns="http://www.w3.org/2000/svg" xmlns:xlink="http://www.w3.org/1999/xlink" x="0px" y="0px"
	 viewBox="0 0 66 66" enable-background="new 0 0 66 66" xml:space="preserve">
<g>
	<defs>
		<circle id="SVGID_95_" cx="33" cy="33" r="31.4"/>
	</defs>
	<clipPath id="SVGID_2_">
		<use xlink:href="#SVGID_95_"  overflow="visible"/>
	</clipPath>
	
		<use xlink:href="#SVGID_95_"  overflow="visible" fill-rule="evenodd" clip-rule="evenodd" fill="none" stroke="#091F2F" stroke-width="3" stroke-miterlimit="10"/>
</g>
<path fill="#FFFFFF" stroke="#091F2F" stroke-width="3" stroke-miterlimit="10" d="M52.4,34.7c0-16.1-15.8-12.6-23.5-12.6
	c-1.7,0-6.9-2.6-6.9-2.6l-1.6,5.3c-2.3,1.6-4,3.9-4.8,6.6h-3.4v6.8h3.4c1.1,3.6,3.9,6.5,7.5,8l-0.8,5.9l5,1.8l4-6.6
	c3.3,0,4.3,0.3,8.3-0.4l3.4,6l5.1-1.4l-1.7-6.2C49.9,43.5,52.4,40.4,52.4,34.7z"/>
<circle fill="#FFFFFF" stroke="#091F2F" stroke-width="3" stroke-miterlimit="10" cx="37.6" cy="18" r="6.1"/>
<circle fill="#091F2F" cx="22.3" cy="30.6" r="1.7"/>
<g>
	<path fill="#091F2F" d="M38.3,18.3l1.4,0.6c-0.2,0.5-0.7,0.9-1.2,1.1v1.3h-1.2V20c-1-0.2-1.6-1-1.6-2c0-1.1,0.6-1.9,1.6-2.1v-1.2
		h1.2v1.3c0.6,0.2,1,0.5,1.2,1.1l-1.3,0.6c-0.1-0.2-0.3-0.4-0.5-0.4c-0.3,0-0.5,0.3-0.5,0.8c0,0.5,0.2,0.8,0.5,0.8
		C38,18.7,38.2,18.6,38.3,18.3z"/>
</g>
</svg>
