<svg xmlns="http://www.w3.org/2000/svg" xmlns:xlink="http://www.w3.org/1999/xlink" viewBox="0 0 66 66">
    <defs>
        <circle id="a" cx="33" cy="33" r="31.4"/>
    </defs>
    <use xlink:href="#a" overflow="visible" fill-rule="evenodd" clip-rule="evenodd" fill="none" stroke="#091F2F" stroke-width="3" stroke-miterlimit="10"/>
    <path fill="#FFF" stroke="#091F2F" stroke-width="3" stroke-miterlimit="10" d="M32.7 9.8v46.4M57.3 33H8.2M45.8 19.9L19.6 46.1M45.8 46.1L19.6 19.9"/>
    <circle fill="#091F2F" stroke="#091F2F" stroke-miterlimit="10" cx="32.7" cy="31.8" r="9.9"/>
    <path fill="none" stroke="#091F2F" stroke-width="3" stroke-miterlimit="10" d="M27.2 12.2l5.4 5.9 5.9-5.6M38.5 54.1l-5.4-5.9-5.9 5.5M10.2 38.8l5.8-5.4-5.5-5.9M55.3 27.5l-5.8 5.4 5.5 5.9M12.5 20.6l7.9.4.3-8.1M52.1 44.3l-7.9-.3-.3 8M44.6 13.3l-.4 8 8.1.2M20.8 53l.4-8-8.1-.2"/>
    <text transform="translate(27.222 37.661)" fill="#FFF" font-family="'Montserrat-Bold'" font-size="17.624">
        P
    </text>
</svg>
