<?xml version="1.0" encoding="utf-8"?>
<!-- Generator: Adobe Illustrator 18.1.1, SVG Export Plug-In . SVG Version: 6.00 Build 0)  -->
<svg version="1.1" id="Layer_1" xmlns="http://www.w3.org/2000/svg" xmlns:xlink="http://www.w3.org/1999/xlink" x="0px" y="0px"
	 viewBox="0 0 66 66" enable-background="new 0 0 66 66" xml:space="preserve">
<g>
	<defs>
		<circle id="SVGID_47_" cx="33" cy="33" r="31.4"/>
	</defs>
	<clipPath id="SVGID_2_">
		<use xlink:href="#SVGID_47_"  overflow="visible"/>
	</clipPath>
	
		<use xlink:href="#SVGID_47_"  overflow="visible" fill-rule="evenodd" clip-rule="evenodd" fill="none" stroke="#091F2F" stroke-width="3" stroke-miterlimit="10"/>
</g>
<g>
</g>
<g>
	<path fill-rule="evenodd" clip-rule="evenodd" fill="none" stroke="#091F2F" stroke-width="3" stroke-miterlimit="10" d="M18.2,19
		L18.2,19c-3.6,3.6-3.6,9.4-0.1,12.9l9.7,9.7c-1.8-1.8-0.3-6.2,3.3-9.7c3.5-3.5,7.9-5,9.7-3.3L31,18.9C27.5,15.4,21.7,15.5,18.2,19z
		"/>
	
		<ellipse transform="matrix(-0.7071 -0.7071 0.7071 -0.7071 33.6339 84.2796)" fill-rule="evenodd" clip-rule="evenodd" fill="none" stroke="#091F2F" stroke-width="3" stroke-miterlimit="10" cx="34.3" cy="35.2" rx="4.5" ry="9"/>
</g>
<line fill="none" stroke="#091F2F" stroke-width="3" stroke-miterlimit="10" x1="33.5" y1="2" x2="33.5" y2="22"/>
<line fill="none" stroke="#091F2F" stroke-width="3" stroke-miterlimit="10" x1="40" y1="42.3" x2="49.8" y2="53.3"/>
<line fill="none" stroke="#091F2F" stroke-width="3" stroke-miterlimit="10" x1="44" y1="37.9" x2="52.8" y2="41.6"/>
<line fill="none" stroke="#091F2F" stroke-width="3" stroke-miterlimit="10" x1="35" y1="45.9" x2="38.1" y2="54.1"/>
<path fill="none" d="M3.5,59"/>
</svg>
