<svg xmlns="http://www.w3.org/2000/svg" xmlns:xlink="http://www.w3.org/1999/xlink" viewBox="0 0 66 66">    <defs>        <circle id="a" cx="33" cy="33" r="31.4"/>    </defs>    <use class="svg-stroke-hover" xlink:href="#a" overflow="visible" fill-rule="evenodd" clip-rule="evenodd" fill="none" stroke="#fb4d42" stroke-width="3" stroke-miterlimit="10"/>    <path class="svg-stroke-hover" fill="#FFF" stroke="#fb4d42" stroke-width="3" stroke-miterlimit="10" d="M33.4 11.2v43.4M56.4 32.9h-46M45.7 20.6L21.1 45.2M45.7 45.2L21.1 20.6"/>    <circle class="svg-stroke-hover" fill="#FFF" stroke="#fb4d42" stroke-width="3" stroke-miterlimit="10" cx="33.4" cy="32.9" r="7.1"/>    <path class="svg-stroke-hover" fill="none" stroke="#fb4d42" stroke-width="3" stroke-miterlimit="10" d="M28.2 13.4l5 5.5 5.6-5.2M38.8 52.6l-5.1-5.5-5.5 5.2M12.2 38.3l5.6-5-5.2-5.6M7.5M51.654.2 27.7l-5.5 5.1 5.2 5.5M14.4 21.3l7.5.3.2- 43.5l-7.5-.3-.2 7.5M44.5 14.4l-.4 7.5 7.6.2M22.2 51.6l.4-7.5-7.6-.2"/></svg>
