<svg width="123px" height="108px" viewBox="0 0 123 108" version="1.1" xmlns="http://www.w3.org/2000/svg" xmlns:xlink="http://www.w3.org/1999/xlink">
    <title>Pay property taxes</title>
    <defs>
        <rect id="path-1" x="0.4" y="0.6" width="105" height="81"></rect>
        <rect id="path-3" x="0.4" y="0.6" width="1121" height="1030"></rect>
        <path d="M22.4,45.1 L20.2,45.1 L21.1,43 L30.2,21 L30.6,20.1 L31.6,20.1 L130.5,20.1 L131.5,20.1 L131.9,21 L141,43 L141.9,45.1 L139.7,45.1 L22.4,45.1 L22.4,45.1 Z M22.4,42.1 L139.4,42.1 L138,44.2 L128.9,22.2 L130.3,23.1 L31.5,23.1 L32.9,22.2 L23.8,44.2 L22.4,42.1 L22.4,42.1 Z M0.1,65.1 L161.6,65.1 L161.6,0.1 L0.1,0.1 L0.1,65.1 L0.1,65.1 Z" id="path-5"></path>
        <polygon id="path-7" points="0.4 22.6 117.4 22.6 108.3 0.6 9.5 0.6"></polygon>
        <rect id="path-9" x="0.4" y="0.6" width="1121" height="1030"></rect>
        <polygon id="path-11" points="0.4 22.6 117.4 22.6 108.3 0.6 9.5 0.6"></polygon>
        <rect id="path-13" x="0.4" y="0.6" width="1121" height="1030"></rect>
        <path d="M22.4,20.1 L20.9,20.1 L20.9,21.6 L20.9,37.6 L20.9,39.1 L22.4,39.1 L34.4,39.1 L35.9,39.1 L35.9,37.6 L35.9,21.6 L35.9,20.1 L34.4,20.1 L22.4,20.1 L22.4,20.1 Z M22.4,23.1 L34.4,23.1 L32.9,21.6 L32.9,37.6 L34.4,36.1 L22.4,36.1 L23.9,37.6 L23.9,21.6 L22.4,23.1 L22.4,23.1 Z M0.9,0.1 L55.9,0.1 L55.9,59.1 L0.9,59.1 L0.9,0.1 L0.9,0.1 Z" id="path-15"></path>
        <rect id="path-17" x="0.4" y="0.6" width="12" height="16"></rect>
        <rect id="path-19" x="0.4" y="0.6" width="1121" height="1030"></rect>
        <rect id="path-21" x="0.4" y="0.6" width="12" height="16"></rect>
        <rect id="path-23" x="0.4" y="0.6" width="1121" height="1030"></rect>
        <path d="M22.4,20.1 L20.9,20.1 L20.9,21.6 L20.9,52.6 L20.9,54.1 L22.4,54.1 L43.4,54.1 L44.9,54.1 L44.9,52.6 L44.9,21.6 L44.9,20.1 L43.4,20.1 L22.4,20.1 L22.4,20.1 Z M22.4,23.1 L43.4,23.1 L41.9,21.6 L41.9,52.6 L43.4,51.1 L22.4,51.1 L23.9,52.6 L23.9,21.6 L22.4,23.1 L22.4,23.1 Z M0.9,0.1 L64.9,0.1 L64.9,74.1 L0.9,74.1 L0.9,0.1 L0.9,0.1 Z" id="path-25"></path>
        <rect id="path-27" x="0.4" y="0.6" width="21" height="31"></rect>
        <rect id="path-29" x="0.4" y="0.6" width="1121" height="1030"></rect>
        <rect id="path-31" x="0.4" y="0.6" width="21" height="31"></rect>
        <rect id="path-33" x="0.4" y="0.6" width="1121" height="1030"></rect>
        <path d="M22.4,20.1 L20.9,20.1 L20.9,21.6 L20.9,40.6 L20.9,42.1 L22.4,42.1 L41.4,42.1 L42.9,42.1 L42.9,40.6 L42.9,21.6 L42.9,20.1 L41.4,20.1 L22.4,20.1 L22.4,20.1 Z M22.4,23.1 L41.4,23.1 L39.9,21.6 L39.9,40.6 L41.4,39.1 L22.4,39.1 L23.9,40.6 L23.9,21.6 L22.4,23.1 L22.4,23.1 Z M0.9,0.1 L62.9,0.1 L62.9,62.1 L0.9,62.1 L0.9,0.1 L0.9,0.1 Z" id="path-35"></path>
        <rect id="path-37" x="0.4" y="0.6" width="19" height="19"></rect>
        <rect id="path-39" x="0.4" y="0.6" width="1121" height="1030"></rect>
        <rect id="path-41" x="0.4" y="0.6" width="19" height="19"></rect>
        <rect id="path-43" x="0.4" y="0.6" width="1121" height="1030"></rect>
        <path d="M22.4,20.1 L20.9,20.1 L20.9,21.6 L20.9,30.6 L20.9,32.1 L22.4,32.1 L31.4,32.1 L32.9,32.1 L32.9,30.6 L32.9,21.6 L32.9,20.1 L31.4,20.1 L22.4,20.1 L22.4,20.1 Z M22.4,23.1 L31.4,23.1 L29.9,21.6 L29.9,30.6 L31.4,29.1 L22.4,29.1 L23.9,30.6 L23.9,21.6 L22.4,23.1 L22.4,23.1 Z M0.9,0.1 L52.9,0.1 L52.9,52.1 L0.9,52.1 L0.9,0.1 L0.9,0.1 Z" id="path-45"></path>
        <rect id="path-47" x="0.4" y="0.6" width="9" height="9"></rect>
        <rect id="path-49" x="0.4" y="0.6" width="1121" height="1030"></rect>
        <rect id="path-51" x="0.4" y="0.6" width="9" height="9"></rect>
        <rect id="path-53" x="0.4" y="0.6" width="1121" height="1030"></rect>
        <path d="M22.4,20.1 L20.9,20.1 L20.9,21.6 L20.9,40.6 L20.9,42.1 L22.4,42.1 L41.4,42.1 L42.9,42.1 L42.9,40.6 L42.9,21.6 L42.9,20.1 L41.4,20.1 L22.4,20.1 L22.4,20.1 Z M22.4,23.1 L41.4,23.1 L39.9,21.6 L39.9,40.6 L41.4,39.1 L22.4,39.1 L23.9,40.6 L23.9,21.6 L22.4,23.1 L22.4,23.1 Z M0.9,0.1 L62.9,0.1 L62.9,62.1 L0.9,62.1 L0.9,0.1 L0.9,0.1 Z" id="path-55"></path>
        <rect id="path-57" x="0.4" y="0.6" width="19" height="19"></rect>
        <rect id="path-59" x="0.4" y="0.6" width="1121" height="1030"></rect>
        <rect id="path-61" x="0.4" y="0.6" width="19" height="19"></rect>
        <rect id="path-63" x="0.4" y="0.6" width="1121" height="1030"></rect>
        <path d="M22.4,20.1 L20.9,20.1 L20.9,21.6 L20.9,40.6 L20.9,42.1 L22.4,42.1 L41.4,42.1 L42.9,42.1 L42.9,40.6 L42.9,21.6 L42.9,20.1 L41.4,20.1 L22.4,20.1 L22.4,20.1 Z M22.4,23.1 L41.4,23.1 L39.9,21.6 L39.9,40.6 L41.4,39.1 L22.4,39.1 L23.9,40.6 L23.9,21.6 L22.4,23.1 L22.4,23.1 Z M0.9,0.1 L62.9,0.1 L62.9,62.1 L0.9,62.1 L0.9,0.1 L0.9,0.1 Z" id="path-65"></path>
        <rect id="path-67" x="0.4" y="0.6" width="19" height="19"></rect>
        <rect id="path-69" x="0.4" y="0.6" width="1121" height="1030"></rect>
        <rect id="path-71" x="0.4" y="0.6" width="19" height="19"></rect>
        <rect id="path-73" x="0.4" y="0.6" width="1121" height="1030"></rect>
        <path d="M22.4,20.1 L20.9,20.1 L20.9,21.6 L20.9,40.6 L20.9,42.1 L22.4,42.1 L41.4,42.1 L42.9,42.1 L42.9,40.6 L42.9,21.6 L42.9,20.1 L41.4,20.1 L22.4,20.1 L22.4,20.1 Z M22.4,23.1 L41.4,23.1 L39.9,21.6 L39.9,40.6 L41.4,39.1 L22.4,39.1 L23.9,40.6 L23.9,21.6 L22.4,23.1 L22.4,23.1 Z M0.9,0.1 L62.9,0.1 L62.9,62.1 L0.9,62.1 L0.9,0.1 L0.9,0.1 Z" id="path-75"></path>
        <rect id="path-77" x="0.4" y="0.6" width="19" height="19"></rect>
        <rect id="path-79" x="0.4" y="0.6" width="1121" height="1030"></rect>
        <rect id="path-81" x="0.4" y="0.6" width="19" height="19"></rect>
        <rect id="path-83" x="0.4" y="0.6" width="1121" height="1030"></rect>
        <path d="M22.4,20.1 L20.9,20.1 L20.9,21.6 L20.9,40.6 L20.9,42.1 L22.4,42.1 L41.4,42.1 L42.9,42.1 L42.9,40.6 L42.9,21.6 L42.9,20.1 L41.4,20.1 L22.4,20.1 L22.4,20.1 Z M22.4,23.1 L41.4,23.1 L39.9,21.6 L39.9,40.6 L41.4,39.1 L22.4,39.1 L23.9,40.6 L23.9,21.6 L22.4,23.1 L22.4,23.1 Z M0.9,0.1 L62.9,0.1 L62.9,62.1 L0.9,62.1 L0.9,0.1 L0.9,0.1 Z" id="path-85"></path>
        <rect id="path-87" x="0.4" y="0.6" width="19" height="19"></rect>
        <rect id="path-89" x="0.4" y="0.6" width="1121" height="1030"></rect>
        <rect id="path-91" x="0.4" y="0.6" width="19" height="19"></rect>
        <rect id="path-93" x="0.4" y="0.6" width="1121" height="1030"></rect>
        <path d="M22.4,20.1 L20.9,20.1 L20.9,21.6 L20.9,30.6 L20.9,32.1 L22.4,32.1 L31.4,32.1 L32.9,32.1 L32.9,30.6 L32.9,21.6 L32.9,20.1 L31.4,20.1 L22.4,20.1 L22.4,20.1 Z M22.4,23.1 L31.4,23.1 L29.9,21.6 L29.9,30.6 L31.4,29.1 L22.4,29.1 L23.9,30.6 L23.9,21.6 L22.4,23.1 L22.4,23.1 Z M0.9,0.1 L52.9,0.1 L52.9,52.1 L0.9,52.1 L0.9,0.1 L0.9,0.1 Z" id="path-95"></path>
        <rect id="path-97" x="0.4" y="0.6" width="9" height="9"></rect>
        <rect id="path-99" x="0.4" y="0.6" width="1121" height="1030"></rect>
        <rect id="path-101" x="0.4" y="0.6" width="9" height="9"></rect>
        <rect id="path-103" x="0.4" y="0.6" width="1121" height="1030"></rect>
        <path d="M22.4,20.1 L20.9,20.1 L20.9,21.6 L20.9,30.6 L20.9,32.1 L22.4,32.1 L31.4,32.1 L32.9,32.1 L32.9,30.6 L32.9,21.6 L32.9,20.1 L31.4,20.1 L22.4,20.1 L22.4,20.1 Z M22.4,23.1 L31.4,23.1 L29.9,21.6 L29.9,30.6 L31.4,29.1 L22.4,29.1 L23.9,30.6 L23.9,21.6 L22.4,23.1 L22.4,23.1 Z M0.9,0.1 L52.9,0.1 L52.9,52.1 L0.9,52.1 L0.9,0.1 L0.9,0.1 Z" id="path-105"></path>
        <rect id="path-107" x="0.4" y="0.6" width="9" height="9"></rect>
        <rect id="path-109" x="0.4" y="0.6" width="1121" height="1030"></rect>
        <rect id="path-111" x="0.4" y="0.6" width="9" height="9"></rect>
        <rect id="path-113" x="0.4" y="0.6" width="1121" height="1030"></rect>
        <path d="M22.4,20.1 L20.9,20.1 L20.9,21.6 L20.9,30.6 L20.9,32.1 L22.4,32.1 L31.4,32.1 L32.9,32.1 L32.9,30.6 L32.9,21.6 L32.9,20.1 L31.4,20.1 L22.4,20.1 L22.4,20.1 Z M22.4,23.1 L31.4,23.1 L29.9,21.6 L29.9,30.6 L31.4,29.1 L22.4,29.1 L23.9,30.6 L23.9,21.6 L22.4,23.1 L22.4,23.1 Z M0.9,0.1 L52.9,0.1 L52.9,52.1 L0.9,52.1 L0.9,0.1 L0.9,0.1 Z" id="path-115"></path>
        <rect id="path-117" x="0.4" y="0.6" width="9" height="9"></rect>
        <rect id="path-119" x="0.4" y="0.6" width="1121" height="1030"></rect>
        <rect id="path-121" x="0.4" y="0.6" width="9" height="9"></rect>
        <rect id="path-123" x="0.4" y="0.6" width="1121" height="1030"></rect>
        <path d="M22.4,20.1 L20.9,20.1 L20.9,21.6 L20.9,30.6 L20.9,32.1 L22.4,32.1 L31.4,32.1 L32.9,32.1 L32.9,30.6 L32.9,21.6 L32.9,20.1 L31.4,20.1 L22.4,20.1 L22.4,20.1 Z M22.4,23.1 L31.4,23.1 L29.9,21.6 L29.9,30.6 L31.4,29.1 L22.4,29.1 L23.9,30.6 L23.9,21.6 L22.4,23.1 L22.4,23.1 Z M0.9,0.1 L52.9,0.1 L52.9,52.1 L0.9,52.1 L0.9,0.1 L0.9,0.1 Z" id="path-125"></path>
        <rect id="path-127" x="0.4" y="0.6" width="9" height="9"></rect>
        <rect id="path-129" x="0.4" y="0.6" width="1121" height="1030"></rect>
        <rect id="path-131" x="0.4" y="0.6" width="9" height="9"></rect>
        <rect id="path-133" x="0.4" y="0.6" width="1121" height="1030"></rect>
    </defs>
    <g id="Page-1" stroke="none" stroke-width="1" fill="none" fill-rule="evenodd">
        <g id="Group-2" transform="translate(-22.000000, -21.000000)">
            <g id="Clipped" transform="translate(28.000000, 37.000000)">
                <mask id="mask-2" fill="white">
                    <use xlink:href="#path-1"></use>
                </mask>
                <g id="SVGID_1449_"></g>
                <g mask="url(#mask-2)">
                    <g transform="translate(-881.000000, -499.000000)">
                        <mask id="mask-4" fill="white">
                            <use xlink:href="#path-3"></use>
                        </mask>
                        <g id="SVGID_1451_" stroke="none" fill="none"></g>
                        <path d="M989.4,583.6 L878.4,583.6 L878.4,496.6 L989.4,496.6 L989.4,583.6 L989.4,583.6 Z M884.4,577.6 L983.4,577.6 L983.4,502.6 L884.4,502.6 L884.4,577.6 L884.4,577.6 Z" id="Shape" stroke="none" fill="#0F1F2D" fill-rule="evenodd" mask="url(#mask-4)"></path>
                    </g>
                </g>
            </g>
            <g id="Clipped" transform="translate(0.000000, 8.000000)">
                <mask id="mask-6" fill="white">
                    <use xlink:href="#path-5"></use>
                </mask>
                <g id="SVGID_1453_"></g>
                <g mask="url(#mask-6)">
                    <g transform="translate(22.000000, 21.000000)">
                        <mask id="mask-8" fill="white">
                            <use xlink:href="#path-7"></use>
                        </mask>
                        <g id="SVGID_1455_" stroke="none" fill="none"></g>
                        <g id="Clipped" stroke="none" stroke-width="1" fill="none" fill-rule="evenodd" mask="url(#mask-8)">
                            <g transform="translate(-875.000000, -491.000000)">
                                <mask id="mask-10" fill="white">
                                    <use xlink:href="#path-9"></use>
                                </mask>
                                <g id="SVGID_1457_" stroke="none" fill="none"></g>
                                <polygon id="Shape" stroke="none" fill="#FFFFFF" fill-rule="evenodd" mask="url(#mask-10)" points="875.4 513.6 992.4 513.6 983.3 491.6 884.5 491.6"></polygon>
                            </g>
                        </g>
                    </g>
                </g>
            </g>
            <g id="Clipped" transform="translate(22.000000, 29.000000)">
                <mask id="mask-12" fill="white">
                    <use xlink:href="#path-11"></use>
                </mask>
                <g id="SVGID_1459_"></g>
                <g mask="url(#mask-12)">
                    <g transform="translate(-875.000000, -491.000000)">
                        <mask id="mask-14" fill="white">
                            <use xlink:href="#path-13"></use>
                        </mask>
                        <g id="SVGID_1461_" stroke="none" fill="none"></g>
                        <path d="M996.9,516.6 L870.9,516.6 L882.4,488.6 L985.3,488.6 L996.9,516.6 L996.9,516.6 Z M879.9,510.6 L987.9,510.6 L981.3,494.6 L886.5,494.6 L879.9,510.6 L879.9,510.6 Z" id="Shape" stroke="none" fill="#0F1F2D" fill-rule="evenodd" mask="url(#mask-14)"></path>
                    </g>
                </g>
            </g>
            <g id="Clipped" transform="translate(85.000000, 0.000000)">
                <mask id="mask-16" fill="white">
                    <use xlink:href="#path-15"></use>
                </mask>
                <g id="SVGID_1463_"></g>
                <g mask="url(#mask-16)">
                    <g transform="translate(22.000000, 21.000000)">
                        <mask id="mask-18" fill="white">
                            <use xlink:href="#path-17"></use>
                        </mask>
                        <g id="SVGID_1465_" stroke="none" fill="none"></g>
                        <g id="Clipped" stroke="none" stroke-width="1" fill="none" fill-rule="evenodd" mask="url(#mask-18)">
                            <g transform="translate(-960.000000, -483.000000)">
                                <mask id="mask-20" fill="white">
                                    <use xlink:href="#path-19"></use>
                                </mask>
                                <g id="SVGID_1467_" stroke="none" fill="none"></g>
                                <rect id="Rectangle-path" stroke="none" fill="#FFFFFF" fill-rule="evenodd" mask="url(#mask-20)" x="960.4" y="483.6" width="12" height="16"></rect>
                            </g>
                        </g>
                    </g>
                </g>
            </g>
            <g id="Clipped" transform="translate(107.000000, 21.000000)">
                <mask id="mask-22" fill="white">
                    <use xlink:href="#path-21"></use>
                </mask>
                <g id="SVGID_1469_"></g>
                <g mask="url(#mask-22)">
                    <g transform="translate(-960.000000, -483.000000)">
                        <mask id="mask-24" fill="white">
                            <use xlink:href="#path-23"></use>
                        </mask>
                        <g id="SVGID_1471_" stroke="none" fill="none"></g>
                        <path d="M975.4,502.6 L957.4,502.6 L957.4,480.6 L975.4,480.6 L975.4,502.6 L975.4,502.6 Z M963.4,496.6 L969.4,496.6 L969.4,486.6 L963.4,486.6 L963.4,496.6 L963.4,496.6 Z" id="Shape" stroke="none" fill="#0F1F2D" fill-rule="evenodd" mask="url(#mask-24)"></path>
                    </g>
                </g>
            </g>
            <g id="Clipped" transform="translate(19.000000, 66.000000)">
                <mask id="mask-26" fill="white">
                    <use xlink:href="#path-25"></use>
                </mask>
                <g id="SVGID_1473_"></g>
                <g mask="url(#mask-26)">
                    <g transform="translate(22.000000, 21.000000)">
                        <mask id="mask-28" fill="white">
                            <use xlink:href="#path-27"></use>
                        </mask>
                        <g id="SVGID_1475_" stroke="none" fill="none"></g>
                        <g id="Clipped" stroke="none" stroke-width="1" fill="none" fill-rule="evenodd" mask="url(#mask-28)">
                            <g transform="translate(-894.000000, -549.000000)">
                                <mask id="mask-30" fill="white">
                                    <use xlink:href="#path-29"></use>
                                </mask>
                                <g id="SVGID_1477_" stroke="none" fill="none"></g>
                                <rect id="Rectangle-path" stroke="none" fill="#FFFFFF" fill-rule="evenodd" mask="url(#mask-30)" x="894.4" y="549.6" width="21" height="31"></rect>
                            </g>
                        </g>
                    </g>
                </g>
            </g>
            <g id="Clipped" transform="translate(41.000000, 87.000000)">
                <mask id="mask-32" fill="white">
                    <use xlink:href="#path-31"></use>
                </mask>
                <g id="SVGID_1479_"></g>
                <g mask="url(#mask-32)">
                    <g transform="translate(-894.000000, -549.000000)">
                        <mask id="mask-34" fill="white">
                            <use xlink:href="#path-33"></use>
                        </mask>
                        <g id="SVGID_1481_" stroke="none" fill="none"></g>
                        <path d="M918.4,583.6 L891.4,583.6 L891.4,546.6 L918.4,546.6 L918.4,583.6 L918.4,583.6 Z M897.4,577.6 L912.4,577.6 L912.4,552.6 L897.4,552.6 L897.4,577.6 L897.4,577.6 Z" id="Shape" stroke="none" fill="#0F1F2D" fill-rule="evenodd" mask="url(#mask-34)"></path>
                    </g>
                </g>
            </g>
            <g id="Clipped" transform="translate(20.000000, 38.000000)">
                <mask id="mask-36" fill="white">
                    <use xlink:href="#path-35"></use>
                </mask>
                <g id="SVGID_1483_"></g>
                <g mask="url(#mask-36)">
                    <g transform="translate(22.000000, 21.000000)">
                        <mask id="mask-38" fill="white">
                            <use xlink:href="#path-37"></use>
                        </mask>
                        <g id="SVGID_1485_" stroke="none" fill="none"></g>
                        <g id="Clipped" stroke="none" stroke-width="1" fill="none" fill-rule="evenodd" mask="url(#mask-38)">
                            <g transform="translate(-895.000000, -521.000000)">
                                <mask id="mask-40" fill="white">
                                    <use xlink:href="#path-39"></use>
                                </mask>
                                <g id="SVGID_1487_" stroke="none" fill="none"></g>
                                <rect id="Rectangle-path" stroke="none" fill="#FFFFFF" fill-rule="evenodd" mask="url(#mask-40)" x="895.4" y="521.6" width="19" height="19"></rect>
                            </g>
                        </g>
                    </g>
                </g>
            </g>
            <g id="Clipped" transform="translate(42.000000, 59.000000)">
                <mask id="mask-42" fill="white">
                    <use xlink:href="#path-41"></use>
                </mask>
                <g id="SVGID_1489_"></g>
                <g mask="url(#mask-42)">
                    <g transform="translate(-895.000000, -521.000000)">
                        <mask id="mask-44" fill="white">
                            <use xlink:href="#path-43"></use>
                        </mask>
                        <g id="SVGID_1491_" stroke="none" fill="none"></g>
                        <path d="M917.4,543.6 L892.4,543.6 L892.4,518.6 L917.4,518.6 L917.4,543.6 L917.4,543.6 Z M898.4,537.6 L911.4,537.6 L911.4,524.6 L898.4,524.6 L898.4,537.6 L898.4,537.6 Z" id="Shape" stroke="none" fill="#0F1F2D" fill-rule="evenodd" mask="url(#mask-44)"></path>
                    </g>
                </g>
            </g>
            <g id="Clipped" transform="translate(25.000000, 43.000000)">
                <mask id="mask-46" fill="white">
                    <use xlink:href="#path-45"></use>
                </mask>
                <g id="SVGID_1493_"></g>
                <g mask="url(#mask-46)">
                    <g transform="translate(22.000000, 21.000000)">
                        <mask id="mask-48" fill="white">
                            <use xlink:href="#path-47"></use>
                        </mask>
                        <g id="SVGID_1495_" stroke="none" fill="none"></g>
                        <g id="Clipped" stroke="none" stroke-width="1" fill="none" fill-rule="evenodd" mask="url(#mask-48)">
                            <g transform="translate(-900.000000, -526.000000)">
                                <mask id="mask-50" fill="white">
                                    <use xlink:href="#path-49"></use>
                                </mask>
                                <g id="SVGID_1497_" stroke="none" fill="none"></g>
                                <rect id="Rectangle-path" stroke="none" fill="#FFFFFF" fill-rule="evenodd" mask="url(#mask-50)" x="900.4" y="526.6" width="9" height="9"></rect>
                            </g>
                        </g>
                    </g>
                </g>
            </g>
            <g id="Clipped" transform="translate(47.000000, 64.000000)">
                <mask id="mask-52" fill="white">
                    <use xlink:href="#path-51"></use>
                </mask>
                <g id="SVGID_1499_"></g>
                <g mask="url(#mask-52)">
                    <g transform="translate(-900.000000, -526.000000)">
                        <mask id="mask-54" fill="white">
                            <use xlink:href="#path-53"></use>
                        </mask>
                        <g id="SVGID_1501_" stroke="none" fill="none"></g>
                        <path d="M912.4,538.6 L897.4,538.6 L897.4,523.6 L912.4,523.6 L912.4,538.6 L912.4,538.6 Z M903.4,532.6 L906.4,532.6 L906.4,529.6 L903.4,529.6 L903.4,532.6 L903.4,532.6 Z" id="Shape" stroke="none" fill="#0F1F2D" fill-rule="evenodd" mask="url(#mask-54)"></path>
                    </g>
                </g>
            </g>
            <g id="Clipped" transform="translate(50.000000, 38.000000)">
                <mask id="mask-56" fill="white">
                    <use xlink:href="#path-55"></use>
                </mask>
                <g id="SVGID_1503_"></g>
                <g mask="url(#mask-56)">
                    <g transform="translate(22.000000, 21.000000)">
                        <mask id="mask-58" fill="white">
                            <use xlink:href="#path-57"></use>
                        </mask>
                        <g id="SVGID_1505_" stroke="none" fill="none"></g>
                        <g id="Clipped" stroke="none" stroke-width="1" fill="none" fill-rule="evenodd" mask="url(#mask-58)">
                            <g transform="translate(-925.000000, -521.000000)">
                                <mask id="mask-60" fill="white">
                                    <use xlink:href="#path-59"></use>
                                </mask>
                                <g id="SVGID_1507_" stroke="none" fill="none"></g>
                                <rect id="Rectangle-path" stroke="none" fill="#FFFFFF" fill-rule="evenodd" mask="url(#mask-60)" x="925.4" y="521.6" width="19" height="19"></rect>
                            </g>
                        </g>
                    </g>
                </g>
            </g>
            <g id="Clipped" transform="translate(72.000000, 59.000000)">
                <mask id="mask-62" fill="white">
                    <use xlink:href="#path-61"></use>
                </mask>
                <g id="SVGID_1509_"></g>
                <g mask="url(#mask-62)">
                    <g transform="translate(-925.000000, -521.000000)">
                        <mask id="mask-64" fill="white">
                            <use xlink:href="#path-63"></use>
                        </mask>
                        <g id="SVGID_1511_" stroke="none" fill="none"></g>
                        <path d="M947.4,543.6 L922.4,543.6 L922.4,518.6 L947.4,518.6 L947.4,543.6 L947.4,543.6 Z M928.4,537.6 L941.4,537.6 L941.4,524.6 L928.4,524.6 L928.4,537.6 L928.4,537.6 Z" id="Shape" stroke="none" fill="#0F1F2D" fill-rule="evenodd" mask="url(#mask-64)"></path>
                    </g>
                </g>
            </g>
            <g id="Clipped" transform="translate(79.000000, 38.000000)">
                <mask id="mask-66" fill="white">
                    <use xlink:href="#path-65"></use>
                </mask>
                <g id="SVGID_1513_"></g>
                <g mask="url(#mask-66)">
                    <g transform="translate(22.000000, 21.000000)">
                        <mask id="mask-68" fill="white">
                            <use xlink:href="#path-67"></use>
                        </mask>
                        <g id="SVGID_1515_" stroke="none" fill="none"></g>
                        <g id="Clipped" stroke="none" stroke-width="1" fill="none" fill-rule="evenodd" mask="url(#mask-68)">
                            <g transform="translate(-954.000000, -521.000000)">
                                <mask id="mask-70" fill="white">
                                    <use xlink:href="#path-69"></use>
                                </mask>
                                <g id="SVGID_1517_" stroke="none" fill="none"></g>
                                <rect id="Rectangle-path" stroke="none" fill="#FFFFFF" fill-rule="evenodd" mask="url(#mask-70)" x="954.4" y="521.6" width="19" height="19"></rect>
                            </g>
                        </g>
                    </g>
                </g>
            </g>
            <g id="Clipped" transform="translate(101.000000, 59.000000)">
                <mask id="mask-72" fill="white">
                    <use xlink:href="#path-71"></use>
                </mask>
                <g id="SVGID_1519_"></g>
                <g mask="url(#mask-72)">
                    <g transform="translate(-954.000000, -521.000000)">
                        <mask id="mask-74" fill="white">
                            <use xlink:href="#path-73"></use>
                        </mask>
                        <g id="SVGID_1521_" stroke="none" fill="none"></g>
                        <path d="M976.4,543.6 L951.4,543.6 L951.4,518.6 L976.4,518.6 L976.4,543.6 L976.4,543.6 Z M957.4,537.6 L970.4,537.6 L970.4,524.6 L957.4,524.6 L957.4,537.6 L957.4,537.6 Z" id="Shape" stroke="none" fill="#0F1F2D" fill-rule="evenodd" mask="url(#mask-74)"></path>
                    </g>
                </g>
            </g>
            <g id="Clipped" transform="translate(50.000000, 66.000000)">
                <mask id="mask-76" fill="white">
                    <use xlink:href="#path-75"></use>
                </mask>
                <g id="SVGID_1523_"></g>
                <g mask="url(#mask-76)">
                    <g transform="translate(22.000000, 21.000000)">
                        <mask id="mask-78" fill="white">
                            <use xlink:href="#path-77"></use>
                        </mask>
                        <g id="SVGID_1525_" stroke="none" fill="none"></g>
                        <g id="Clipped" stroke="none" stroke-width="1" fill="none" fill-rule="evenodd" mask="url(#mask-78)">
                            <g transform="translate(-925.000000, -549.000000)">
                                <mask id="mask-80" fill="white">
                                    <use xlink:href="#path-79"></use>
                                </mask>
                                <g id="SVGID_1527_" stroke="none" fill="none"></g>
                                <rect id="Rectangle-path" stroke="none" fill="#FFFFFF" fill-rule="evenodd" mask="url(#mask-80)" x="925.4" y="549.6" width="19" height="19"></rect>
                            </g>
                        </g>
                    </g>
                </g>
            </g>
            <g id="Clipped" transform="translate(72.000000, 87.000000)">
                <mask id="mask-82" fill="white">
                    <use xlink:href="#path-81"></use>
                </mask>
                <g id="SVGID_1529_"></g>
                <g mask="url(#mask-82)">
                    <g transform="translate(-925.000000, -549.000000)">
                        <mask id="mask-84" fill="white">
                            <use xlink:href="#path-83"></use>
                        </mask>
                        <g id="SVGID_1531_" stroke="none" fill="none"></g>
                        <path d="M947.4,571.6 L922.4,571.6 L922.4,546.6 L947.4,546.6 L947.4,571.6 L947.4,571.6 Z M928.4,565.6 L941.4,565.6 L941.4,552.6 L928.4,552.6 L928.4,565.6 L928.4,565.6 Z" id="Shape" stroke="none" fill="#0F1F2D" fill-rule="evenodd" mask="url(#mask-84)"></path>
                    </g>
                </g>
            </g>
            <g id="Clipped" transform="translate(79.000000, 66.000000)">
                <mask id="mask-86" fill="white">
                    <use xlink:href="#path-85"></use>
                </mask>
                <g id="SVGID_1533_"></g>
                <g mask="url(#mask-86)">
                    <g transform="translate(22.000000, 21.000000)">
                        <mask id="mask-88" fill="white">
                            <use xlink:href="#path-87"></use>
                        </mask>
                        <g id="SVGID_1535_" stroke="none" fill="none"></g>
                        <g id="Clipped" stroke="none" stroke-width="1" fill="none" fill-rule="evenodd" mask="url(#mask-88)">
                            <g transform="translate(-954.000000, -549.000000)">
                                <mask id="mask-90" fill="white">
                                    <use xlink:href="#path-89"></use>
                                </mask>
                                <g id="SVGID_1537_" stroke="none" fill="none"></g>
                                <rect id="Rectangle-path" stroke="none" fill="#FFFFFF" fill-rule="evenodd" mask="url(#mask-90)" x="954.4" y="549.6" width="19" height="19"></rect>
                            </g>
                        </g>
                    </g>
                </g>
            </g>
            <g id="Clipped" transform="translate(101.000000, 87.000000)">
                <mask id="mask-92" fill="white">
                    <use xlink:href="#path-91"></use>
                </mask>
                <g id="SVGID_1539_"></g>
                <g mask="url(#mask-92)">
                    <g transform="translate(-954.000000, -549.000000)">
                        <mask id="mask-94" fill="white">
                            <use xlink:href="#path-93"></use>
                        </mask>
                        <g id="SVGID_1541_" stroke="none" fill="none"></g>
                        <path d="M976.4,571.6 L951.4,571.6 L951.4,546.6 L976.4,546.6 L976.4,571.6 L976.4,571.6 Z M957.4,565.6 L970.4,565.6 L970.4,552.6 L957.4,552.6 L957.4,565.6 L957.4,565.6 Z" id="Shape" stroke="none" fill="#0F1F2D" fill-rule="evenodd" mask="url(#mask-94)"></path>
                    </g>
                </g>
            </g>
            <g id="Clipped" transform="translate(55.000000, 43.000000)">
                <mask id="mask-96" fill="white">
                    <use xlink:href="#path-95"></use>
                </mask>
                <g id="SVGID_1543_"></g>
                <g mask="url(#mask-96)">
                    <g transform="translate(22.000000, 21.000000)">
                        <mask id="mask-98" fill="white">
                            <use xlink:href="#path-97"></use>
                        </mask>
                        <g id="SVGID_1545_" stroke="none" fill="none"></g>
                        <g id="Clipped" stroke="none" stroke-width="1" fill="none" fill-rule="evenodd" mask="url(#mask-98)">
                            <g transform="translate(-930.000000, -526.000000)">
                                <mask id="mask-100" fill="white">
                                    <use xlink:href="#path-99"></use>
                                </mask>
                                <g id="SVGID_1547_" stroke="none" fill="none"></g>
                                <rect id="Rectangle-path" stroke="none" fill="#FFFFFF" fill-rule="evenodd" mask="url(#mask-100)" x="930.4" y="526.6" width="9" height="9"></rect>
                            </g>
                        </g>
                    </g>
                </g>
            </g>
            <g id="Clipped" transform="translate(77.000000, 64.000000)">
                <mask id="mask-102" fill="white">
                    <use xlink:href="#path-101"></use>
                </mask>
                <g id="SVGID_1549_"></g>
                <g mask="url(#mask-102)">
                    <g transform="translate(-930.000000, -526.000000)">
                        <mask id="mask-104" fill="white">
                            <use xlink:href="#path-103"></use>
                        </mask>
                        <g id="SVGID_1551_" stroke="none" fill="none"></g>
                        <path d="M942.4,538.6 L927.4,538.6 L927.4,523.6 L942.4,523.6 L942.4,538.6 L942.4,538.6 Z M933.4,532.6 L936.4,532.6 L936.4,529.6 L933.4,529.6 L933.4,532.6 L933.4,532.6 Z" id="Shape" stroke="none" fill="#0F1F2D" fill-rule="evenodd" mask="url(#mask-104)"></path>
                    </g>
                </g>
            </g>
            <g id="Clipped" transform="translate(84.000000, 43.000000)">
                <mask id="mask-106" fill="white">
                    <use xlink:href="#path-105"></use>
                </mask>
                <g id="SVGID_1553_"></g>
                <g mask="url(#mask-106)">
                    <g transform="translate(22.000000, 21.000000)">
                        <mask id="mask-108" fill="white">
                            <use xlink:href="#path-107"></use>
                        </mask>
                        <g id="SVGID_1555_" stroke="none" fill="none"></g>
                        <g id="Clipped" stroke="none" stroke-width="1" fill="none" fill-rule="evenodd" mask="url(#mask-108)">
                            <g transform="translate(-959.000000, -526.000000)">
                                <mask id="mask-110" fill="white">
                                    <use xlink:href="#path-109"></use>
                                </mask>
                                <g id="SVGID_1557_" stroke="none" fill="none"></g>
                                <rect id="Rectangle-path" stroke="none" fill="#FFFFFF" fill-rule="evenodd" mask="url(#mask-110)" x="959.4" y="526.6" width="9" height="9"></rect>
                            </g>
                        </g>
                    </g>
                </g>
            </g>
            <g id="Clipped" transform="translate(106.000000, 64.000000)">
                <mask id="mask-112" fill="white">
                    <use xlink:href="#path-111"></use>
                </mask>
                <g id="SVGID_1559_"></g>
                <g mask="url(#mask-112)">
                    <g transform="translate(-959.000000, -526.000000)">
                        <mask id="mask-114" fill="white">
                            <use xlink:href="#path-113"></use>
                        </mask>
                        <g id="SVGID_1561_" stroke="none" fill="none"></g>
                        <path d="M971.4,538.6 L956.4,538.6 L956.4,523.6 L971.4,523.6 L971.4,538.6 L971.4,538.6 Z M962.4,532.6 L965.4,532.6 L965.4,529.6 L962.4,529.6 L962.4,532.6 L962.4,532.6 Z" id="Shape" stroke="none" fill="#0F1F2D" fill-rule="evenodd" mask="url(#mask-114)"></path>
                    </g>
                </g>
            </g>
            <g id="Clipped" transform="translate(55.000000, 71.000000)">
                <mask id="mask-116" fill="white">
                    <use xlink:href="#path-115"></use>
                </mask>
                <g id="SVGID_1563_"></g>
                <g mask="url(#mask-116)">
                    <g transform="translate(22.000000, 21.000000)">
                        <mask id="mask-118" fill="white">
                            <use xlink:href="#path-117"></use>
                        </mask>
                        <g id="SVGID_1565_" stroke="none" fill="none"></g>
                        <g id="Clipped" stroke="none" stroke-width="1" fill="none" fill-rule="evenodd" mask="url(#mask-118)">
                            <g transform="translate(-930.000000, -554.000000)">
                                <mask id="mask-120" fill="white">
                                    <use xlink:href="#path-119"></use>
                                </mask>
                                <g id="SVGID_1567_" stroke="none" fill="none"></g>
                                <rect id="Rectangle-path" stroke="none" fill="#FFFFFF" fill-rule="evenodd" mask="url(#mask-120)" x="930.4" y="554.6" width="9" height="9"></rect>
                            </g>
                        </g>
                    </g>
                </g>
            </g>
            <g id="Clipped" transform="translate(77.000000, 92.000000)">
                <mask id="mask-122" fill="white">
                    <use xlink:href="#path-121"></use>
                </mask>
                <g id="SVGID_1569_"></g>
                <g mask="url(#mask-122)">
                    <g transform="translate(-930.000000, -554.000000)">
                        <mask id="mask-124" fill="white">
                            <use xlink:href="#path-123"></use>
                        </mask>
                        <g id="SVGID_1571_" stroke="none" fill="none"></g>
                        <path d="M942.4,566.6 L927.4,566.6 L927.4,551.6 L942.4,551.6 L942.4,566.6 L942.4,566.6 Z M933.4,560.6 L936.4,560.6 L936.4,557.6 L933.4,557.6 L933.4,560.6 L933.4,560.6 Z" id="Shape" stroke="none" fill="#0F1F2D" fill-rule="evenodd" mask="url(#mask-124)"></path>
                    </g>
                </g>
            </g>
            <g id="Clipped" transform="translate(84.000000, 71.000000)">
                <mask id="mask-126" fill="white">
                    <use xlink:href="#path-125"></use>
                </mask>
                <g id="SVGID_1573_"></g>
                <g mask="url(#mask-126)">
                    <g transform="translate(22.000000, 21.000000)">
                        <mask id="mask-128" fill="white">
                            <use xlink:href="#path-127"></use>
                        </mask>
                        <g id="SVGID_1575_" stroke="none" fill="none"></g>
                        <g id="Clipped" stroke="none" stroke-width="1" fill="none" fill-rule="evenodd" mask="url(#mask-128)">
                            <g transform="translate(-959.000000, -554.000000)">
                                <mask id="mask-130" fill="white">
                                    <use xlink:href="#path-129"></use>
                                </mask>
                                <g id="SVGID_1577_" stroke="none" fill="none"></g>
                                <rect id="Rectangle-path" stroke="none" fill="#FFFFFF" fill-rule="evenodd" mask="url(#mask-130)" x="959.4" y="554.6" width="9" height="9"></rect>
                            </g>
                        </g>
                    </g>
                </g>
            </g>
            <g id="Clipped" transform="translate(106.000000, 92.000000)">
                <mask id="mask-132" fill="white">
                    <use xlink:href="#path-131"></use>
                </mask>
                <g id="SVGID_1579_"></g>
                <g mask="url(#mask-132)">
                    <g transform="translate(-959.000000, -554.000000)">
                        <mask id="mask-134" fill="white">
                            <use xlink:href="#path-133"></use>
                        </mask>
                        <g id="SVGID_1581_" stroke="none" fill="none"></g>
                        <path d="M971.4,566.6 L956.4,566.6 L956.4,551.6 L971.4,551.6 L971.4,566.6 L971.4,566.6 Z M962.4,560.6 L965.4,560.6 L965.4,557.6 L962.4,557.6 L962.4,560.6 L962.4,560.6 Z" id="Shape" stroke="none" fill="#0F1F2D" fill-rule="evenodd" mask="url(#mask-134)"></path>
                    </g>
                </g>
            </g>
            <g id="Group" transform="translate(105.000000, 88.000000)">
                <circle id="Oval" fill="#FFFFFF" cx="20" cy="20.7" r="18.5"></circle>
                <path d="M20,40.7 C14.7,40.7 9.6,38.6 5.9,34.8 C2.1,31 0,26 0,20.7 C0,15.4 2.1,10.3 5.9,6.6 C9.7,2.8 14.7,0.7 20,0.7 C25.3,0.7 30.4,2.8 34.1,6.6 C37.9,10.4 40,15.4 40,20.7 C40,26 37.9,31.1 34.1,34.8 C30.3,38.6 25.3,40.7 20,40.7 L20,40.7 Z M20,3.7 C15.5,3.7 11.2,5.5 8,8.7 C4.8,11.9 3,16.2 3,20.7 C3,25.2 4.8,29.5 8,32.7 C11.2,35.9 15.5,37.7 20,37.7 C24.5,37.7 28.8,35.9 32,32.7 C35.2,29.5 37,25.2 37,20.7 C37,16.2 35.2,11.9 32,8.7 C28.8,5.5 24.5,3.7 20,3.7 L20,3.7 Z" id="Shape" fill="#0F1F2D"></path>
            </g>
            <path d="M126.4,116 L126.4,119.2 L123.6,119.2 L123.6,115.9 C121.7,115.6 119.9,114.8 118.5,113.7 L120,110.8 C121.5,112.1 123.8,113 125.4,113 C126.6,113 127.3,112.6 127.3,111.7 C127.3,109.1 119.5,110.6 119.5,105.4 C119.5,103.1 121.1,101.6 123.7,101.1 L123.7,98 L126.5,98 L126.5,101 C128.3,101.2 130,101.8 131.3,102.6 L129.9,105.5 C128.3,104.6 126.4,104 125.2,104 C124.2,104 123.6,104.4 123.6,105.1 C123.6,107.7 131.4,106.2 131.4,111.6 C131.3,114.2 129.2,115.7 126.4,116 L126.4,116 Z" id="Shape" fill="#000000"></path>
        </g>
    </g>
</svg>
