<svg width="65" height="65" xmlns="http://www.w3.org/2000/svg">
  <title>Parking Meters</title>
  <g transform="translate(1 1)" fill="none" fill-rule="evenodd">
    <circle class="svg-stroke-hover" stroke="#091F2F" stroke-width="3" cx="31.5" cy="31.5" r="30.929"/>
    <path class="svg-fill-hover" d="M19.195 18.703c0-.08-.403 0-.384 0h7.95c.99-1.17 2.41-1.88 3.94-1.97 1.53.09 2.95.8 3.94 1.97h8.06s-.157-.856-.226-1.093c-.12-.383-.256-.984-.413-1.32-.16-.333-.247-.61-.375-.845-.13-.236-.195-.453-.215-.492-.02-.04-.497-.827-.57-.985-.08-.157-.25-.354-.38-.52l-.16-.14-.167-.196c-.197-.246-.404-.492-.63-.72l-.187-.205c-.09-.09-.198-.168-.286-.256-.09-.08-.46-.41-.7-.61l-.124-.1c-.238-.175-.464-.362-.71-.53-.246-.166-.345-.205-.51-.314l-.22-.127-.284-.18c-1.425-.77-2.99-1.254-4.606-1.416-.42-.04-.84-.06-1.26-.06h-1.26l-.73.1-.285.05-.71.16-.233.057-.76.237-.147.05c-.29.105-.575.217-.85.335-.64.277-1.258.607-1.84.987-.288.196-.564.403-.83.62-.35.404-.68.83-.984 1.27-1.6 1.787-2.75 3.934-3.345 6.26h.495zm-.403 3.524l3.21 23.054h7.53v9.85h3.937v-9.85h6.66l2.98-23.05" fill="#091F2F" fill-rule="nonzero"/>
  </g>
</svg>
