<svg width="66" height="66" viewBox="0 0 66 66" xmlns="http://www.w3.org/2000/svg"><title>1_Schools</title><g fill-rule="nonzero" fill="none"><path d="M33 .08C14.82.08.08 14.82.08 33S14.82 65.92 33 65.92 65.92 51.18 65.92 33C65.876 14.837 51.163.124 33 .08zm0 62.84C16.476 62.92 3.08 49.524 3.08 33S16.476 3.08 33 3.08 62.92 16.476 62.92 33C62.876 49.506 49.506 62.876 33 62.92z" fill="#091F2F" class="svg-hover-fill" /><path d="M62.92 33c0 16.524-13.396 29.92-29.92 29.92S3.08 49.524 3.08 33 16.476 3.08 33 3.08C49.506 3.124 62.876 16.494 62.92 33z" fill="#FFF"/><path d="M55.2 24.08l-21.31-8.51c-.566-.22-1.194-.22-1.76 0l-21.3 8.51c-.887.353-1.475 1.204-1.493 2.158-.017.955.54 1.827 1.413 2.212L12 29l.72.32v9.26c-1.016.414-1.68 1.403-1.68 2.5s.664 2.086 1.68 2.5v1.71c0 .552.448 1 1 1s1-.448 1-1v-1.71c1.016-.414 1.68-1.403 1.68-2.5s-.664-2.086-1.68-2.5v-8.39l.88.39 2.11.93 2.52 1.12L32 37.87c.612.27 1.308.27 1.92 0l11.87-5.24 2.51-1.12 6.93-3.06c.877-.376 1.444-1.24 1.437-2.195-.006-.954-.585-1.81-1.467-2.175zM33 27h-.24c-.486-.008-.964-.124-1.4-.34-.28-.15-.45-.34-.45-.54-.01-.03-.01-.06 0-.09.14-.43 1-.75 2.06-.75s2.09.39 2.09.88-.89.84-2.06.84z" fill="#0C1F2E" class="svg-hover-fill"/><path d="M33.47 40.79L45.81 35c.36-.157.775-.116 1.097.108.323.225.505.6.483.992v8.73c.026.596-.408 1.113-1 1.19-4.17.26-10.69 4.95-12.72 6.48-.373.28-.887.28-1.26 0-2.06-1.45-8.64-5.89-12.77-6.36-.59-.082-1.02-.596-1-1.19v-8.89c-.007-.382.18-.742.498-.956.316-.214.72-.253 1.072-.104l12.35 5.82c.292.127.627.116.91-.03z" fill="#0C1F2E" class="svg-hover-fill"/></g></svg>
