<svg width="67" height="66" viewBox="0 0 67 66" xmlns="http://www.w3.org/2000/svg"><title>snow_parking2</title><g fill-rule="nonzero" fill="none"><path d="M33.8.1C15.7.1.9 14.8.9 33s14.7 32.9 32.9 32.9c9.1 0 17.3-3.7 23.2-9.7 6-6 9.6-14.2 9.7-23.3C66.8 14.8 52 .1 33.8.1zm0 62.8C17.3 62.9 3.9 49.5 3.9 33S17.3 3.1 33.8 3.1c8.3 0 15.7 3.4 21.1 8.8 5.4 5.4 8.8 12.9 8.8 21.2.1 16.4-13.4 29.8-29.9 29.8z" fill="#091F2F" class="svg-hover-fill"/><path d="M63.8 33c0 16.5-13.4 29.9-29.9 29.9-16.6 0-30-13.4-30-29.9S17.3 3.1 33.8 3.1c8.3 0 15.7 3.4 21.1 8.8 5.5 5.4 8.8 12.8 8.9 21.1z" fill="#FFF"/><path d="M58.1 31.5v3h-4.2l3 3.2-2.2 2.1-5-5.3h-6.1c-.4 1.5-1.2 2.9-2.2 4.1l3.8 3.8 7.9.4-.1 3-5.7-.3-.5.5-.2.2-.2 5.8-3-.1.2-7-4.6-4.3c-1.2.8-2.6 1.2-4 1.4v5.2l5.3 5.8-2.2 2-3.1-3.3v4.5h-3V52l-3 2.8-2-2.2 5-4.8V42c-1.4-.2-2.8-.7-4-1.4l-4.5 4.6-.4 7.8-3-.1.3-6.4-6.6-.2.1-3 7 .2 4.9-4.8c-1.1-1.2-1.8-2.6-2.2-4.1h-5.7L12 39.9l-2-2.2 3.5-3.2H9v-3h4l-2.8-3 2.2-2 4.7 5h6.1c0-1.8.6-3.6 1.5-5.2l-3.8-3.8-7.6-.4.1-3 6.4.3.2-6.6 3 .1-.2 7.2 3.9 3.9c1.5-1.3 3.4-2.2 5.4-2.5v-2.6L27 13.3l2.2-2 2.9 3.2V9.8h3v4.6l3.2-3 2.1 2.2-5.2 4.9v2.9c2 .3 3.9 1.2 5.4 2.5l3.1-3.1.4-7.7 3 .1-.3 6.4 6.5.2L53 23l-7.1-.2-3.5 3.5c1 1.6 1.5 3.4 1.5 5.2h5.7l5.6-5.1 2 2.2-3.2 2.9h4.1z" fill="#091F2F" class="svg-hover-fill"/><path d="M38.1 26.4c.9.9 1.4 2.1 1.3 3.4.1 1.3-.4 2.5-1.4 3.3-1.2.8-2.6 1.1-4 1.1h-1.7v3.4h-2.8V25.3h4.3c1.6-.1 3.1.3 4.3 1.1zm-2 4.9c.4-.5.5-1 .5-1.6.1-.6-.2-1.2-.6-1.5-.6-.3-1.3-.5-2-.5h-1.6v4.1h1.8c.6.1 1.3-.1 1.9-.5z" fill="#FFF"/></g></svg>
