<svg width="65" height="65" xmlns="http://www.w3.org/2000/svg">
  <title>Street Sweeping</title>
  <g transform="translate(1 1)" fill="none" fill-rule="evenodd">
    <circle class="svg-stroke-hover" stroke="#091F2F" stroke-width="3" cx="31.5" cy="31.5" r="30.929"/>
    <path class="svg-stroke-hover" d="M35.3 23.212l12.088-10.415-10.454 12.56s-.512-1.82-1.634-2.145zM13.053 33.95c.71 2.775 2.15 5.308 4.174 7.335 2.463 2.253 5.332 4.017 8.455 5.197 1.546-5.788 5.818-9.076 7.678-11.044 3.357-3.377 2.954-7.324.414-9.844-2.54-2.52-6.38-2.757-9.736.63-1.89 1.89-7.727 7.018-10.985 7.727zm9.99-6.81l9.37 9.302" stroke="#091F2F" stroke-width="3"/>
    <path class="svg-fill-hover" fill="#091F2F" fill-rule="nonzero" d="M18.89 35.438l-4.794 1.397 1.762 2.875m8.564-.916s-1.968 5.296-.984 6.743-1.673-1.142-1.673-1.142-.237-2.717 2.657-5.6zm-.216-3.356s-3.17 3.356-3.78 6.555l-2.894-.738-.187-1.29c2.548-1.07 4.875-2.605 6.86-4.528z"/>
    <ellipse class="svg-fill-hover" fill="#091F2F" fill-rule="nonzero" cx="35.487" cy="45.645" rx="3.071" ry="3.071"/>
    <circle class="svg-fill-hover" fill="#091F2F" fill-rule="nonzero" cx="43.627" cy="41.422" r="2.284"/>
    <ellipse class="svg-fill-hover" fill="#091F2F" fill-rule="nonzero" cx="41.856" cy="51.335" rx="1.486" ry="1.486"/>
  </g>
</svg>
