<svg width="65" height="65" xmlns="http://www.w3.org/2000/svg">
  <title>Tow Lot</title>
  <g transform="translate(1 1)" fill="none" fill-rule="evenodd">
    <circle class="svg-stroke-hover" stroke="#091F2F" stroke-width="3" cx="31.5" cy="31.5" r="30.929"/>
    <path class="svg-fill-hover" d="M26.578 32.563v-9.096h-7.875l-2.274 4.785c-2.11.437-4.19.995-6.23 1.673l-.366.118v7.718H53.15v-5.19H26.578zm-1.86-1.417h-6.222v-2.068l1.644-3.484h4.538l.04 5.552z" fill="#091F2F" fill-rule="nonzero"/>
    <ellipse class="svg-fill-hover" fill="#091F2F" fill-rule="nonzero" cx="18.053" cy="38.784" rx="3.938" ry="3.938"/>
    <path class="svg-fill-hover" d="M18.053 43.313c-2.473 0-4.478-2.006-4.478-4.48 0-2.473 2.005-4.478 4.478-4.478 2.474 0 4.48 2.005 4.48 4.48-.006 2.47-2.008 4.472-4.48 4.477zm0-7.876c-1.382 0-2.628.837-3.15 2.117-.525 1.28-.223 2.75.764 3.72.986.968 2.46 1.245 3.73.7 1.272-.547 2.086-1.807 2.062-3.19 0-1.88-1.53-3.406-3.41-3.406v.06z" fill="#091F2F" fill-rule="nonzero"/>
    <circle class="svg-fill-hover" fill="#091F2F" fill-rule="nonzero" cx="46.65" cy="38.784" r="3.938"/>
    <path class="svg-fill-hover" d="M46.65 43.313c-2.474 0-4.48-2.006-4.48-4.48 0-2.473 2.006-4.478 4.48-4.478 2.473 0 4.478 2.005 4.478 4.48-.005 2.47-2.007 4.472-4.478 4.477zm0-7.876c-1.882 0-3.406 1.525-3.406 3.406 0 1.88 1.524 3.406 3.406 3.406 1.88 0 3.405-1.53 3.405-3.41.016-.92-.336-1.8-.976-2.45-.64-.65-1.52-1.02-2.43-1.02v.06z" fill="#091F2F" fill-rule="nonzero"/>
    <ellipse class="svg-fill-hover" fill="#091F2F" fill-rule="nonzero" cx="18.004" cy="38.725" rx="1.792" ry="1.792"/>
    <path class="svg-fill-hover" d="M18.004 41.058c-1.288 0-2.333-1.044-2.333-2.333 0-1.288 1.05-2.333 2.34-2.333 1.29 0 2.337 1.045 2.337 2.333 0 1.29-1.044 2.333-2.333 2.333zm0-3.583c-.69 0-1.25.56-1.25 1.25s.56 1.25 1.25 1.25 1.25-.56 1.25-1.25c0-.33-.13-.65-.366-.884-.234-.23-.552-.36-.884-.36zm7.984-8.278l3.05 3.11 21.54-11.104.49-1.998" fill="#091F2F" fill-rule="nonzero"/>
    <ellipse class="svg-fill-hover" fill="#091F2F" fill-rule="nonzero" cx="46.6" cy="38.725" rx="1.792" ry="1.792"/>
    <path class="svg-fill-hover" d="M46.6 41.058c-1.288 0-2.333-1.044-2.333-2.333 0-1.288 1.045-2.333 2.333-2.333 1.29 0 2.333 1.045 2.333 2.333 0 1.29-1.044 2.333-2.333 2.333zm0-3.583c-.69 0-1.25.56-1.25 1.25s.56 1.25 1.25 1.25 1.25-.56 1.25-1.25c0-.33-.13-.65-.366-.884-.234-.23-.552-.36-.884-.36zM24.61 23.733h-4.105l.984-3.79h2.13" fill="#091F2F" fill-rule="nonzero"/>
    <ellipse class="svg-fill-hover" fill="#091F2F" fill-rule="nonzero" cx="51" cy="25.712" rx="1.358" ry="1.358"/>
    <path class="svg-stroke-hover" d="M51.188 25.712v2.727c.458.22.77.67.826 1.18.03.33-.08.65-.302.9-.223.24-.54.38-.87.38-.308-.02-.598-.16-.8-.4-.205-.236-.306-.54-.282-.85m1.24-5.3v-5.03" stroke="#091F2F"/>
    <path class="svg-fill-hover" fill="#091F2F" fill-rule="nonzero" d="M24.678 29.777h16.538v5.06H24.678z"/>
  </g>
</svg>
